<?xml version="1.0" standalone="no"?>
<!DOCTYPE svg PUBLIC "-//W3C//DTD SVG 1.1//EN" "http://www.w3.org/Graphics/SVG/1.1/DTD/svg11.dtd" >
<svg xmlns="http://www.w3.org/2000/svg" xmlns:xlink="http://www.w3.org/1999/xlink" version="1.1">
<metadata>
Created by FontForge 20170910 at Mon Dec 22 11:37:31 2003
 By Jimmy Wärting
Copyright 1990-2003 Bitstream Inc. All rights reserved.
</metadata>
<defs>
<font id="CenturySchoolbookBT-Monospace" horiz-adv-x="1233" >
  <font-face 
    font-family="CentSchbook Mono BT"
    font-weight="400"
    font-stretch="normal"
    units-per-em="2048"
    panose-1="2 4 6 9 5 5 5 2 3 4"
    ascent="1556"
    descent="-492"
    x-height="948"
    cap-height="1374"
    bbox="-37 -483 1329 1950"
    underline-thickness="125"
    underline-position="-275"
    unicode-range="U+0020-F002"
  />
<missing-glyph 
d="M104 -362v1806h1024v-1806h-1024zM219 -248h795v1577h-795v-1577z" />
    <glyph glyph-name=".notdef" 
d="M104 -362v1806h1024v-1806h-1024zM219 -248h795v1577h-795v-1577z" />
    <glyph glyph-name=".null" horiz-adv-x="0" 
 />
    <glyph glyph-name="nonmarkingreturn" 
 />
    <glyph glyph-name="space" unicode=" " 
 />
    <glyph glyph-name="exclam" unicode="!" 
d="M657 587l-2 -192h-82l-4 193q-3 219 -43.5 464.5t-40.5 282.5q0 84 34 130t95 46q64 0 95.5 -44.5t31.5 -133.5q0 -36 -40 -280.5t-44 -465.5zM614 223q52 0 88.5 -37t36.5 -90q0 -52 -36 -89.5t-89 -37.5q-52 0 -89.5 37.5t-37.5 89.5t37.5 89.5t89.5 37.5z" />
    <glyph glyph-name="quotedbl" unicode="&#x22;" 
d="M764 860l-70 459q-1 7 -1.5 14.5t-0.5 22.5q0 51 23.5 78.5t66.5 27.5t66.5 -27t23.5 -75q0 -7 -0.5 -15t-3.5 -27l-69 -458h-35zM432 860l-67 459q-1 2 -1 6q-4 27 -4 35q0 49 23.5 75.5t65.5 26.5q43 0 66.5 -27.5t23.5 -78.5q0 -16 -0.5 -23t-1.5 -14l-70 -459h-35z
" />
    <glyph glyph-name="numbersign" unicode="#" 
d="M729 539l57 270h-282l-58 -270h283zM528 922h283l92 430h119l-92 -430h203l-25 -113h-203l-57 -270h203l-25 -113h-201l-92 -426h-119l91 426h-283l-90 -426h-119l90 426h-205l25 113h205l57 270h-205l25 113h205l90 430h118z" />
    <glyph glyph-name="dollar" unicode="$" 
d="M565 854v461q-116 -10 -185 -72.5t-69 -157.5q0 -90 63 -147.5t191 -83.5zM565 641q-200 44 -292.5 138.5t-92.5 254.5q0 154 105.5 254t279.5 111v119h101v-119q163 -10 265.5 -90t102.5 -191q0 -66 -36 -104.5t-99 -38.5q-53 0 -87 33t-34 86q0 55 45 85.5t45 41.5
q0 29 -60.5 60t-141.5 34v-494q232 -60 329 -156t97 -259q0 -176 -115 -291.5t-311 -134.5v-256h-101v256q-6 0 -18 -1.5t-17 -1.5q-151 0 -269 98t-118 226q0 79 41.5 127.5t108.5 48.5q51 0 87 -36.5t36 -88.5q0 -68 -57.5 -107t-57.5 -50q0 -41 77.5 -83t180.5 -42h6v571
zM666 74q128 13 201 86t73 186q0 106 -52 159.5t-222 102.5v-534z" />
    <glyph glyph-name="percent" unicode="%" 
d="M1098 1409l-842 -1444h-100l749 1288q-41 -30 -85 -46.5t-85 -16.5q-26 0 -48 4t-40 12q1 -10 1.5 -20.5t0.5 -20.5q0 -155 -125 -301.5t-272 -146.5q-101 0 -163 63t-62 166q0 153 131 295.5t270 142.5q66 0 114 -22.5t79 -69.5q22 -22 54.5 -34.5t69.5 -12.5
q70 0 148 48t113 116h92zM592 1171q0 66 -35 106t-90 40q-46 0 -88 -35.5t-103 -130.5q-52 -84 -80 -150t-28 -108q0 -48 34.5 -77.5t90.5 -29.5q104 0 201.5 129t97.5 256zM1149 422q0 66 -34 105.5t-89 39.5q-47 0 -89 -36t-101 -132q-54 -84 -81.5 -149t-27.5 -107
q0 -48 34.5 -77t90.5 -29q104 0 200.5 128.5t96.5 256.5zM987 633q104 0 161.5 -55.5t57.5 -155.5q0 -164 -123.5 -310.5t-271.5 -146.5q-101 0 -164 64t-63 166q0 152 132 295t271 143z" />
    <glyph glyph-name="ampersand" unicode="&#x26;" 
d="M1139 780v-88q-67 0 -98 -18t-56 -70q-12 -26 -36 -87q-71 -178 -144 -279q63 -70 95 -90.5t65 -20.5q39 0 67.5 50t48.5 155l93 -19q-27 -178 -90.5 -260t-176.5 -82q-67 0 -133.5 43t-81.5 92q-38 -66 -115 -105.5t-169 -39.5q-148 0 -241 110t-93 279
q0 139 61.5 240.5t202.5 191.5q-32 58 -52 141t-20 158q0 147 74.5 236.5t196.5 89.5q113 0 181 -73.5t68 -196.5q0 -106 -52 -179.5t-216 -175.5q66 -138 147 -295.5t85 -175.5q12 31 37 86q63 141 63 197q0 51 -29.5 74.5t-95.5 23.5h-27v88h441zM485 862q90 76 122 134
t32 130q0 93 -27 140t-82 47q-51 0 -76.5 -47t-25.5 -142q0 -54 39 -195q12 -43 18 -67zM367 707q-65 -56 -93 -109.5t-28 -122.5q0 -146 75.5 -265.5t155.5 -119.5q53 0 96 23.5t62 62.5q-78 105 -146 240t-122 291z" />
    <glyph glyph-name="quotesingle" unicode="'" 
d="M598 860l-68 459q0 3 -1 9q-3 19 -3 28q0 50 24 78t66 28q43 0 67 -26.5t24 -75.5q0 -6 -1 -15t-4 -27l-69 -458h-35z" />
    <glyph glyph-name="parenleft" unicode="(" 
d="M889 1460q-175 -130 -252.5 -317t-77.5 -488q0 -327 76.5 -521t253.5 -327v-53q-229 124 -358.5 359t-129.5 528q0 281 123.5 502.5t364.5 372.5v-56z" />
    <glyph glyph-name="parenright" unicode=")" 
d="M348 1460v56q240 -149 364 -371t124 -504q0 -292 -129 -526.5t-359 -360.5v53q177 133 253.5 327t76.5 521q0 301 -77.5 488t-252.5 317z" />
    <glyph glyph-name="asterisk" unicode="*" 
d="M641 1104q80 -50 200 -63q33 -4 46 -7q44 -11 70 -38.5t26 -59.5q0 -33 -23.5 -55.5t-58.5 -22.5q-51 0 -125.5 91.5t-146.5 131.5v-16q0 -76 34.5 -163.5t34.5 -108.5q0 -47 -22.5 -74t-61.5 -27q-35 0 -57 24.5t-22 63.5q0 31 34.5 122.5t34.5 166.5v12
q-70 -36 -144 -128.5t-134 -92.5q-33 0 -54.5 22.5t-21.5 55.5q0 36 26 61t74 35q9 2 31 4q119 13 211 66q-81 49 -199 62q-33 4 -46 7q-48 13 -72.5 37.5t-24.5 59.5q0 33 24 56.5t58 23.5q51 0 125.5 -92.5t146.5 -133.5v17q0 73 -34.5 162t-34.5 116q0 43 22.5 70
t58.5 27t59 -25.5t23 -65.5q0 -30 -34.5 -120.5t-34.5 -167.5v-13q70 37 144 130.5t134 93.5q34 0 55 -23.5t21 -60.5q0 -36 -31.5 -61t-87.5 -34q-7 -1 -24 -2q-106 -10 -199 -63z" />
    <glyph glyph-name="plus" unicode="+" 
d="M688 586h404v-140h-404v-446h-143v446h-404v140h404v446h143v-446z" />
    <glyph glyph-name="comma" unicode="," 
d="M649 -13q-15 -5 -28.5 -8.5t-24.5 -3.5q-59 0 -93 32.5t-34 88.5q0 52 38 89.5t89 37.5q73 0 119.5 -56t46.5 -144q0 -119 -65.5 -220t-198.5 -188l-47 59q97 72 148.5 145.5t51.5 137.5q0 13 -0.5 19.5t-1.5 10.5z" />
    <glyph glyph-name="hyphen" unicode="-" 
d="M956 573v-174h-682v174h682z" />
    <glyph glyph-name="period" unicode="." 
d="M489 96q0 52 38 89.5t89 37.5q52 0 88.5 -37t36.5 -90q0 -52 -36 -89.5t-89 -37.5q-52 0 -89.5 37.5t-37.5 89.5z" />
    <glyph glyph-name="slash" unicode="/" 
d="M801 1419h145l-514 -1609h-145z" />
    <glyph glyph-name="zero" unicode="0" 
d="M616 1319q-134 0 -192.5 -145t-58.5 -486q0 -339 58.5 -483t192.5 -144q135 0 193.5 145t58.5 482q0 341 -58.5 486t-193.5 145zM141 688q0 325 132.5 523t342.5 198q215 0 344.5 -196t129.5 -525q0 -326 -131.5 -524.5t-342.5 -198.5t-343 200t-132 523z" />
    <glyph glyph-name="one" unicode="1" 
d="M1040 98v-98h-768v98h138q89 0 115 20t26 75v917q0 38 -19.5 52t-76.5 14h-197v88q148 7 256 43.5t178 101.5h56v-1221q0 -51 27.5 -70.5t113.5 -19.5h151z" />
    <glyph glyph-name="two" unicode="2" 
d="M1038 0h-911v66q126 160 403 458q84 90 125 135q106 117 148.5 207t42.5 195q0 123 -69 187.5t-199 64.5q-120 0 -204.5 -59.5t-84.5 -131.5q0 -35 70 -58l3 -1q44 -14 66.5 -42.5t22.5 -72.5q0 -49 -36 -85t-89 -36q-76 0 -120 54.5t-44 148.5q0 160 127.5 267.5
t326.5 107.5q209 0 329 -101t120 -274q0 -118 -47 -206t-184 -208q-10 -8 -46 -36q-202 -157 -385 -330l-63 -60h465q104 0 128 29t52 170l10 51h82z" />
    <glyph glyph-name="three" unicode="3" 
d="M756 743q159 -32 241 -128t82 -248q0 -178 -135.5 -290t-353.5 -112q-202 0 -324.5 91.5t-122.5 238.5q0 81 42 131.5t108 50.5q56 0 89.5 -35.5t33.5 -97.5q0 -64 -58.5 -107.5t-58.5 -54.5q0 -43 76.5 -84t183.5 -41q148 0 222.5 79t74.5 237q0 170 -61.5 245.5
t-200.5 75.5q-26 0 -67.5 -5t-57.5 -5q-26 0 -41.5 14t-15.5 37q0 27 16.5 41.5t46.5 14.5q9 0 47.5 -3.5t67.5 -3.5q126 0 183.5 69.5t57.5 219.5q0 121 -61.5 183.5t-181.5 62.5q-94 0 -157.5 -34.5t-63.5 -78.5q0 -12 44 -49.5t44 -95.5q0 -53 -32.5 -83t-88.5 -30
q-58 0 -92.5 39t-34.5 105q0 140 113.5 227.5t300.5 87.5q190 0 300.5 -90.5t110.5 -245.5q0 -124 -67.5 -204.5t-208.5 -123.5z" />
    <glyph glyph-name="four" unicode="4" 
d="M680 1073l-451 -602h451v602zM559 96h25q54 0 74 16t20 64v178h-567v119l686 932h75v-934h244v-117h-244v-178q0 -49 22.5 -64.5t98.5 -15.5h88v-96h-610v96h88z" />
    <glyph glyph-name="five" unicode="5" 
d="M1010 1427l22 -14q-29 -122 -130 -187t-261 -65q-56 0 -119.5 8t-130.5 23q-11 -74 -20.5 -157.5t-18.5 -182.5q82 34 145 47.5t128 13.5q198 0 325 -125.5t127 -324.5q0 -229 -142 -363.5t-382 -134.5q-175 0 -292.5 95t-117.5 235q0 81 42 131.5t108 50.5
q56 0 89.5 -35.5t33.5 -97.5q0 -63 -58.5 -107t-58.5 -55q0 -43 74 -84t176 -41q148 0 229.5 107.5t81.5 302.5q0 164 -79.5 257t-217.5 93q-60 0 -114.5 -18.5t-100.5 -55.5q-6 -65 -27 -96t-59 -31q-30 0 -48.5 19t-18.5 49q0 24 11 46t40 50q18 78 33 246t22 381h49
q57 -23 155 -36t216 -13q95 0 169.5 18t119.5 51z" />
    <glyph glyph-name="six" unicode="6" 
d="M363 678q68 94 154 141t190 47q179 0 286 -112.5t107 -302.5q0 -215 -131 -350.5t-336 -135.5q-227 0 -360.5 179t-133.5 485q0 345 165.5 562.5t426.5 217.5q143 0 231.5 -68t88.5 -176q0 -60 -35 -97.5t-90 -37.5q-51 0 -86 33.5t-35 81.5q0 36 21.5 74.5t21.5 42.5
q0 24 -35 40.5t-90 16.5q-172 0 -265.5 -166t-94.5 -475zM645 741q-124 0 -196 -89.5t-72 -245.5q0 -159 68.5 -253t183.5 -94q121 0 189.5 93.5t68.5 259.5q0 159 -63 244t-179 85z" />
    <glyph glyph-name="seven" unicode="7" 
d="M260 1407q79 -13 175.5 -19t236.5 -6q133 0 237.5 3.5t188.5 10.5v-67q-189 -391 -265.5 -615.5t-76.5 -377.5q0 -32 2 -92.5t2 -89.5q0 -96 -36.5 -144.5t-107.5 -48.5q-54 0 -86 39t-32 106q0 138 109 400.5t353 711.5q-106 -5 -169.5 -7.5t-106.5 -2.5q-47 0 -122 3
t-103 3q-80 0 -97.5 -15t-33.5 -95l-39 -195l-86 9z" />
    <glyph glyph-name="eight" unicode="8" 
d="M731 809q82 61 118 126.5t36 151.5q0 108 -73 172t-196 64q-121 0 -191.5 -60t-70.5 -163q0 -98 83.5 -163.5t293.5 -127.5zM529 649q-112 -43 -167 -120.5t-55 -190.5q0 -135 79.5 -208t225.5 -73q150 0 238 75.5t88 203.5q0 176 -352 294q-37 12 -57 19zM444 686
q-118 45 -180.5 130.5t-62.5 203.5q0 170 118 278.5t306 108.5q182 0 292.5 -88.5t110.5 -233.5q0 -93 -59.5 -173t-163.5 -130q150 -53 224.5 -147t74.5 -229q0 -196 -143.5 -318.5t-376.5 -122.5q-207 0 -328 101.5t-121 275.5q0 121 81 211.5t228 132.5z" />
    <glyph glyph-name="nine" unicode="9" 
d="M874 696q-69 -95 -155 -142.5t-189 -47.5q-178 0 -286.5 114t-108.5 304q0 213 132 348t337 135q226 0 359 -179t133 -485q0 -346 -164.5 -563t-425.5 -217q-143 0 -231.5 68.5t-88.5 177.5q0 59 35 96t90 37q49 0 84 -33.5t35 -81.5q0 -36 -21.5 -73.5t-21.5 -40.5
q0 -24 36 -41t91 -17q173 0 266 166t94 475zM592 631q120 0 193 89t73 234q0 170 -66 264.5t-184 94.5q-121 0 -189.5 -92.5t-68.5 -257.5q0 -160 63 -246t179 -86z" />
    <glyph glyph-name="colon" unicode=":" 
d="M616 -31q-52 0 -89.5 37t-37.5 88t38 89t89 38q52 0 88.5 -37t36.5 -90q0 -52 -36 -88.5t-89 -36.5zM616 676q-52 0 -89.5 37.5t-37.5 89.5q0 51 37.5 88t89.5 37q53 0 89 -36.5t36 -88.5t-36 -89.5t-89 -37.5z" />
    <glyph glyph-name="semicolon" unicode=";" 
d="M616 676q-51 0 -87.5 37.5t-36.5 89.5t36 88.5t88 36.5q53 0 89 -36.5t36 -88.5t-36 -89.5t-89 -37.5zM670 -13q-15 -5 -29.5 -8.5t-26.5 -3.5q-58 0 -91.5 32.5t-33.5 88.5q0 52 38 89.5t89 37.5q73 0 118.5 -56t45.5 -144q0 -120 -65 -221t-197 -187l-47 59
q97 72 149 145.5t52 137.5q0 13 -0.5 19t-1.5 11z" />
    <glyph glyph-name="less" unicode="&#x3c;" 
d="M1092 178v-164l-951 437v129l951 436v-162l-754 -338z" />
    <glyph glyph-name="equal" unicode="=" 
d="M1092 641h-951v139h951v-139zM1092 244h-951v139h951v-139z" />
    <glyph glyph-name="greater" unicode="&#x3e;" 
d="M1092 580v-129l-951 -437v164l754 338l-754 338v162z" />
    <glyph glyph-name="question" unicode="?" 
d="M559 -27q-52 0 -88.5 37.5t-36.5 89.5q0 53 36.5 90t88.5 37t89.5 -37t37.5 -90q0 -51 -37 -89t-90 -38zM604 487v-79h-82v141q0 78 20 132t81 132q7 10 21 27q142 181 142 329q0 130 -58.5 194t-176.5 64q-72 0 -128 -34t-56 -74q0 -12 46 -54t46 -100
q0 -53 -32.5 -85.5t-86.5 -32.5q-59 0 -95 43t-36 114q0 132 113 223t284 91q172 0 280.5 -97t108.5 -250q0 -188 -237 -398q-30 -26 -45 -40q-65 -59 -87 -111.5t-22 -134.5z" />
    <glyph glyph-name="at" unicode="@" 
d="M688 979q-43 0 -78.5 -36.5t-70.5 -119.5q-41 -96 -59.5 -171t-18.5 -140q0 -68 24 -105.5t66 -37.5q44 0 87 52t81 150q27 74 42 145t15 124q0 68 -22.5 103.5t-65.5 35.5zM731 466q-44 -84 -94 -123.5t-113 -39.5q-99 0 -156 76t-57 209q0 174 110.5 313t244.5 139
q66 0 104.5 -37t50.5 -112l33 135h135l-119 -498q-7 -28 -10.5 -51t-3.5 -45q0 -37 15 -54.5t47 -17.5q93 0 175.5 146.5t82.5 335.5q0 228 -131.5 370t-337.5 142q-248 0 -415 -206t-167 -519q0 -277 145.5 -440.5t388.5 -163.5q116 0 223 41.5t218 130.5l26 -43
q-104 -93 -222.5 -140t-246.5 -47q-298 0 -477.5 185t-179.5 493q0 151 48.5 286t139.5 240q101 117 230.5 177.5t275.5 60.5q243 0 391 -157t148 -416q0 -218 -106 -375.5t-242 -157.5q-70 0 -109.5 42t-44.5 121z" />
    <glyph glyph-name="A" unicode="A" 
d="M569 1092l-188 -543h383zM1100 188q21 -57 45.5 -73.5t105.5 -18.5v-96h-532v96q11 0 32 1q138 2 138 44q0 13 -4 31t-10 36l-80 236h-445l-55 -145q-10 -26 -16.5 -59t-6.5 -54q0 -49 32.5 -69.5t119.5 -20.5h18v-96h-462v96h20q66 0 100.5 30.5t69.5 127.5l405 1143h84
z" />
    <glyph glyph-name="B" unicode="B" 
d="M57 96h19q113 0 136.5 16.5t23.5 71.5v1006q0 57 -23 74.5t-98 17.5h-58v92h668q187 0 285 -85t98 -247q0 -130 -78 -213t-221 -106q175 -18 270 -105t95 -229q0 -189 -120.5 -289t-348.5 -100h-648v96zM655 96q156 0 222.5 65t66.5 214q0 156 -81.5 224.5t-270.5 68.5
h-148v-486q0 -52 17.5 -69t70.5 -17h123zM633 1282h-111q-44 0 -61 -15.5t-17 -58.5v-6v-446h131q184 0 250 61.5t66 218.5q0 128 -61.5 187t-196.5 59z" />
    <glyph glyph-name="C" unicode="C" 
d="M969 1278l61 119h84l23 -561h-88q-38 233 -133 356t-236 123q-187 0 -280 -157t-93 -472q0 -318 93.5 -470.5t287.5 -152.5q150 0 246.5 106.5t136.5 315.5l100 -12q-25 -238 -160 -374t-343 -136q-257 0 -423.5 203t-166.5 520q0 310 164 514.5t411 204.5
q100 0 180.5 -32.5t135.5 -94.5z" />
    <glyph glyph-name="D" unicode="D" 
d="M35 0v96h24q71 0 93 18t22 68v1010q0 52 -23.5 69t-115.5 17v96h500q300 0 462 -178t162 -508q0 -319 -155.5 -503.5t-423.5 -184.5h-545zM383 182q0 -51 25 -68.5t116 -17.5q145 0 212 29.5t112 103.5q42 71 63 185t21 274q0 327 -90 458.5t-316 131.5q-93 0 -118 -17.5
t-25 -68.5v-1010z" />
    <glyph glyph-name="E" unicode="E" 
d="M57 0v96q10 0 27 1q147 1 147 87v1006q0 86 -148 88h-26v96h1014l25 -489h-92q-36 243 -111 320t-307 77q-94 0 -120 -17.5t-26 -68.5v-434h11q133 0 187 55.5t64 204.5h91v-610h-91q-10 148 -64 204t-187 56h-11v-494q0 -52 26.5 -70t135.5 -18q250 0 327 77t124 357h86
l-27 -524h-1055z" />
    <glyph glyph-name="F" unicode="F" 
d="M465 184q0 -85 155 -87q44 0 70 -1v-96h-627v96q14 0 38 1q155 1 155 87v1006q0 86 -151 88h-42v96h1096l23 -489h-92q-35 243 -110.5 320t-369.5 77q-94 0 -119.5 -17.5t-25.5 -68.5v-434h39q139 0 194 55.5t66 204.5h90v-610h-90q-11 149 -66 204.5t-194 55.5h-39v-488
z" />
    <glyph glyph-name="G" unicode="G" 
d="M1210 631v-96h-96q-41 0 -53 -17.5t-12 -68.5v-482h-88l-50 178q-5 -72 -93 -125t-206 -53q-243 0 -392.5 197t-149.5 522q0 322 146.5 521.5t379.5 199.5q101 0 191 -41t98 -88l49 121h90l18 -547h-94q-40 238 -121.5 350.5t-212.5 112.5q-157 0 -235 -156.5t-78 -472.5
q0 -317 79.5 -472t242.5 -155q111 0 172 75t61 212v92q0 55 -11.5 76t-39.5 21h-14h-101v96h520z" />
    <glyph glyph-name="H" unicode="H" 
d="M522 1374v-96h-45q-53 0 -73.5 -19t-20.5 -67v-420h467v420q0 50 -23 68t-94 18h-22v96h487v-96h-35q-61 0 -82.5 -18t-21.5 -68v-1010q0 -50 22 -68t93 -18h24v-96h-487v96h22q71 0 94 18t23 68v486h-467v-486q0 -50 23 -68t94 -18h22v-96h-487v96h24q71 0 93 18t22 68
v1010q0 52 -23.5 69t-115.5 17v96h487z" />
    <glyph glyph-name="I" unicode="I" 
d="M221 0v96h193q54 0 76 19t22 67v1010q0 48 -22 67t-76 19h-193v96h789v-96h-191q-55 0 -76.5 -19t-21.5 -67v-1010q0 -49 21.5 -67.5t76.5 -18.5h191v-96h-789z" />
    <glyph glyph-name="J" unicode="J" 
d="M451 1278v96h720v-96h-159q-45 0 -66.5 -22t-21.5 -66v-832q0 -183 -115.5 -288t-319.5 -105q-182 0 -286.5 91t-104.5 249q0 106 54 173t137 67q67 0 106 -40t39 -108q0 -65 -35.5 -103t-97.5 -38q-15 0 -34 2t-23 2q-27 0 -36 -6.5t-9 -26.5q0 -59 73 -106t179 -47
q139 0 202.5 66.5t63.5 215.5v834q0 47 -21 67.5t-67 20.5h-27h-151z" />
    <glyph glyph-name="K" unicode="K" 
d="M815 1161q12 16 19.5 33t7.5 31q0 31 -24 42t-136 11v96h498v-96h-43q-60 0 -107.5 -28.5t-101.5 -96.5l-240 -299l381 -674q28 -49 56 -67.5t77 -18.5q5 0 15.5 1t15.5 1v-96h-543v96q11 0 33 1q131 2 131 40q0 5 -3.5 14.5t-11.5 25.5l-282 513l-162 -194v-314
q0 -50 24 -68t95 -18h23v-96h-498v96h29q73 0 95.5 17.5t22.5 68.5v1010q0 49 -21 67.5t-85 18.5h-41v96h498v-96h-45q-54 0 -75.5 -19t-21.5 -67v-555z" />
    <glyph glyph-name="L" unicode="L" 
d="M57 0v96q17 0 46 1q155 1 155 87v1006q0 87 -151 88h-50v96h611v-96h-72q-89 0 -109 -17t-20 -71v-1006q0 -57 22.5 -75.5t126.5 -18.5q264 0 341 77t122 357h86l-26 -524h-1082z" />
    <glyph glyph-name="M" unicode="M" 
d="M858 1374h356v-96h-47q-54 0 -71 -16.5t-17 -71.5v-1006q0 -57 20 -72.5t115 -15.5v-96h-458v96q106 0 125.5 16t19.5 72v1045l-266 -727h-94l-289 727v-901q0 -144 29.5 -192t107.5 -48h17v-88h-402v88h8q82 0 112 45t30 195v862q0 57 -19 72.5t-125 15.5v96h344
l264 -663z" />
    <glyph glyph-name="N" unicode="N" 
d="M203 328v891q-20 58 -146 61h-12v94h344l539 -1034v733q0 124 -36 168.5t-132 44.5h-8v88h434l-1 -88q-91 -1 -126 -49t-35 -190v-1080h-117l-606 1149v-809q0 -125 34.5 -172t121.5 -47h18v-88h-430v88q90 4 124 49.5t34 181.5v9z" />
    <glyph glyph-name="O" unicode="O" 
d="M616 1315q-160 0 -236.5 -157t-76.5 -486q0 -308 78 -460.5t235 -152.5q158 0 236 156t78 471q0 321 -77 475t-237 154zM70 686q0 317 153.5 519t390.5 202q239 0 393 -202t154 -519q0 -319 -153.5 -519t-393.5 -200q-237 0 -390.5 200.5t-153.5 518.5z" />
    <glyph glyph-name="P" unicode="P" 
d="M455 705q31 -4 62 -5.5t63 -1.5q200 0 281 68t81 229q0 160 -67 223.5t-271 63.5q-96 0 -122.5 -15t-26.5 -71v-2v-489zM59 96q138 0 163.5 15.5t25.5 72.5v1006q0 86 -153 88h-36v96h695q194 0 300.5 -99t106.5 -280q0 -200 -137 -295.5t-426 -95.5q-62 0 -91.5 1
t-51.5 3v-424q0 -85 203 -88h1v-96h-600v96z" />
    <glyph glyph-name="Q" unicode="Q" 
d="M370 179q-5 26 -7.5 45t-2.5 32q0 117 63.5 189.5t162.5 72.5q113 0 182.5 -78.5t95.5 -236.5q31 61 51.5 203t20.5 313q0 288 -82.5 442t-237.5 154q-162 0 -240.5 -157.5t-78.5 -483.5q0 -176 18.5 -299.5t54.5 -195.5zM924 14q41 -146 59 -181.5t39 -35.5
q25 0 36.5 30.5t19.5 129.5h87q0 -13 1 -30.5t1 -22.5q0 -125 -56 -195.5t-155 -70.5q-107 0 -160 87.5t-55 265.5q-24 -12 -52 -18t-75 -6q-239 0 -391.5 200t-152.5 519q0 322 150.5 521.5t393.5 199.5q247 0 397 -198.5t150 -522.5q0 -207 -61.5 -358.5t-190.5 -261.5z
M733 98v35q0 136 -39.5 210.5t-111.5 74.5q-56 0 -89.5 -50t-33.5 -132q0 -85 40 -132t113 -47q43 0 76.5 11.5t44.5 29.5z" />
    <glyph glyph-name="R" unicode="R" 
d="M440 762q6 0 16 -1q60 -3 89 -3q186 0 261 60.5t75 205.5q0 144 -62 201t-268 57q-67 0 -89 -12t-22 -43v-25v-440zM231 184v1006q0 86 -140 88h-34v96h637q198 0 302 -86t104 -252q0 -150 -98.5 -238.5t-284.5 -103.5q100 -7 162.5 -68.5t85.5 -174.5l45 -213
q13 -63 29 -93t36 -30q29 0 43.5 47.5t18.5 150.5h84v-49q0 -147 -54.5 -223t-158.5 -76q-110 0 -158.5 66t-71.5 321q-17 183 -69 247.5t-185 64.5h-84v-480q0 -87 143 -87q32 -1 50 -1v-96h-576v96h45q90 0 109.5 16.5t19.5 71.5z" />
    <glyph glyph-name="S" unicode="S" 
d="M147 -25l-8 560h88q40 -238 151.5 -358t293.5 -120q134 0 211.5 72t77.5 197q0 183 -327 268q-31 8 -46 12q-260 69 -349 158.5t-89 253.5q0 173 107 281t278 108q109 0 199 -34.5t155 -100.5l72 117h71l19 -500h-84q-48 209 -154.5 316.5t-265.5 107.5q-116 0 -180 -59
t-64 -164q0 -172 328 -254q28 -7 43 -11q254 -65 348 -163t94 -275q0 -201 -119 -310.5t-340 -109.5q-108 0 -207.5 39t-156.5 103l-76 -134h-70z" />
    <glyph glyph-name="T" unicode="T" 
d="M920 96v-96h-611v96h41q114 0 137 14.5t23 73.5v1014q0 65 -14.5 81.5t-55.5 16.5h-43q-105 0 -163.5 -104.5t-88.5 -347.5h-82l25 530h1053l26 -530h-84q-31 250 -89 351t-167 101h-24q-57 0 -70.5 -19.5t-13.5 -78.5v-1014q0 -57 24 -72.5t138 -15.5h39z" />
    <glyph glyph-name="U" unicode="U" 
d="M197 1192q0 51 -23.5 68.5t-103.5 17.5h-35v96h528v-96h-63q-53 0 -73.5 -19t-20.5 -67v-766q0 -181 66 -264.5t208 -83.5q141 0 200.5 92t59.5 346v643q0 71 -32.5 95t-139.5 24v96h440v-96h-14q-93 0 -121.5 -28.5t-28.5 -137.5v-604q0 -294 -99.5 -417.5
t-326.5 -123.5q-207 0 -314 117t-107 344v764z" />
    <glyph glyph-name="V" unicode="V" 
d="M141 1196v0q-29 82 -129 82h-32v96h546v-96h-63q-57 0 -79 -11.5t-22 -43.5q0 -13 2.5 -27t8.5 -31l299 -866l264 776q13 43 17.5 67t4.5 46q0 47 -30 68.5t-99 21.5h-28h-15v96h461v-96h-20q-64 0 -98 -30.5t-68 -127.5l-402 -1153h-81z" />
    <glyph glyph-name="W" unicode="W" 
d="M463 -33h-105l-268 1241q-9 45 -27.5 57.5t-70.5 12.5v96h387v-96h-10q-43 0 -61.5 -12.5t-18.5 -40.5q0 -31 1.5 -52.5t4.5 -31.5l166 -779l123 590h161l127 -598l146 719q6 33 9 65t3 58q0 48 -18.5 65t-75.5 17h-18v96h325v-96q-3 0 -9 1t-9 1q-38 0 -60.5 -35
t-40.5 -125l-225 -1153h-108l-168 735z" />
    <glyph glyph-name="X" unicode="X" 
d="M-4 0v96h18q72 0 131 49t146 185l219 342l-340 534v1q-45 71 -102 71h-68v96h539v-96h-105q-18 0 -26.5 -6t-8.5 -19q0 -11 4 -22t13 -25l215 -356l172 280q14 25 21 44.5t7 35.5q0 36 -26 52t-86 16h-27v96h482v-96h-9q-80 0 -130 -29t-113 -129l-232 -358l361 -569
q40 -63 71.5 -80t89.5 -17h33v-96h-577v96h90q43 0 59.5 8t16.5 27t-24 57q-6 9 -9 14l-234 384l-170 -277q-29 -46 -41 -76t-12 -57q0 -40 30.5 -60t92.5 -20h27v-96h-498z" />
    <glyph glyph-name="Y" unicode="Y" 
d="M942 96v-96h-629v96h146q34 0 49.5 20.5t15.5 65.5v385l-368 609q-41 68 -68 85t-70 17h-18v96h545v-96h-82q-50 0 -70 -9t-20 -30q0 -11 6.5 -27t19.5 -38l285 -476l234 432q11 21 16.5 39t5.5 33q0 41 -31.5 58.5t-109.5 17.5h-35v96h469v-96h-16q-53 0 -82 -18.5
t-66 -83.5l-336 -598v-396q0 -50 18 -68t72 -18h119z" />
    <glyph glyph-name="Z" unicode="Z" 
d="M698 96q158 0 225.5 83t110.5 345h86l-26 -524h-1008v94l774 1188h-303q-162 0 -227.5 -75.5t-108.5 -309.5h-86l31 477h942v-86l-776 -1192h366z" />
    <glyph glyph-name="bracketleft" unicode="[" 
d="M594 1417v-1583h315v-61h-465v1706h465v-62h-315z" />
    <glyph glyph-name="backslash" unicode="\" 
d="M432 1419l514 -1609h-145l-514 1609h145z" />
    <glyph glyph-name="bracketright" unicode="]" 
d="M786 -227h-467v61h318v1583h-318v62h467v-1706z" />
    <glyph glyph-name="asciicircum" unicode="^" 
d="M684 1360l277 -353q6 -9 9 -18t3 -18q0 -22 -15.5 -36.5t-35.5 -14.5q-10 0 -15.5 2t-11.5 8l-279 278l-278 -278q-5 -5 -11 -7.5t-16 -2.5q-20 0 -35.5 14.5t-15.5 36.5q0 9 3 18t9 18l279 353q9 12 25.5 18t39.5 6q22 0 40 -6.5t28 -17.5z" />
    <glyph glyph-name="underscore" unicode="_" 
d="M1233 -358v-125h-1233v125h1233z" />
    <glyph glyph-name="grave" unicode="`" 
d="M418 1276q-51 31 -67.5 51.5t-16.5 46.5q0 32 22.5 56t53.5 24q25 0 52 -15.5t54 -45.5l277 -301h-76z" />
    <glyph glyph-name="a" unicode="a" 
d="M784 514q-231 -31 -332.5 -94t-101.5 -174q0 -90 39 -131t123 -41q126 0 199 77.5t73 217.5v145zM971 678v-475q0 -47 19.5 -70.5t58.5 -23.5q23 0 51 14t35 14q12 0 19 -8.5t7 -24.5q0 -40 -57.5 -82t-130.5 -42q-72 0 -117 39t-57 112q-54 -73 -156.5 -118.5
t-212.5 -45.5q-127 0 -203.5 68t-76.5 182q0 148 147.5 237.5t486.5 143.5v147q0 71 -56.5 109.5t-162.5 38.5q-81 0 -132.5 -21.5t-51.5 -52.5q0 -7 25.5 -40t25.5 -74q0 -48 -29.5 -75.5t-78.5 -27.5q-57 0 -88 30.5t-31 86.5q0 113 110 187.5t283 74.5q196 0 284.5 -70.5
t88.5 -232.5z" />
    <glyph glyph-name="b" unicode="b" 
d="M666 59q128 0 186.5 98t58.5 312q0 211 -62 309.5t-196 98.5q-136 0 -198 -96.5t-62 -311.5q0 -217 65 -313.5t208 -96.5zM244 -25h-72q19 95 26 161.5t7 131.5v969q0 48 -19.5 63t-91.5 15l-10.5 1t-20.5 1l-10.5 -1t-21.5 -1v82l362 22v-588q53 78 123 114t168 36
q195 0 316.5 -139.5t121.5 -368.5q0 -226 -121.5 -367t-312.5 -141q-109 0 -189 39.5t-161 132.5z" />
    <glyph glyph-name="c" unicode="c" 
d="M1094 264q-60 -151 -163.5 -224t-258.5 -73q-215 0 -350.5 136.5t-135.5 355.5q0 234 143.5 378t377.5 144q155 0 256.5 -68.5t101.5 -171.5q0 -67 -38 -107t-99 -40q-54 0 -88.5 31.5t-34.5 81.5q0 46 32.5 78.5t32.5 41.5q0 31 -47 51.5t-121 20.5q-153 0 -226 -99.5
t-73 -310.5q0 -201 79 -299t241 -98q104 0 175 51t118 158z" />
    <glyph glyph-name="d" unicode="d" 
d="M563 868q-133 0 -195.5 -94t-62.5 -297q0 -209 61.5 -301t198.5 -92q135 0 196.5 93.5t61.5 299.5q0 209 -61.5 300t-198.5 91zM834 152q-61 -92 -137.5 -136.5t-174.5 -44.5q-185 0 -306.5 141.5t-121.5 360.5q0 221 123 364.5t307 143.5q97 0 168.5 -36.5t130.5 -115.5
v408q0 48 -20 63t-96 15h-7q-19 2 -32 2q-2 0 -7 -1q-20 -1 -38 -1v82l387 22v-1255q0 -45 21.5 -61.5t84.5 -16.5q7 0 23.5 1t25.5 1v-88l-331 -23v175z" />
    <glyph glyph-name="e" unicode="e" 
d="M365 459v-33q0 -164 79.5 -257t219.5 -93q118 0 208.5 54.5t155.5 166.5l66 -41q-74 -144 -191 -216.5t-276 -72.5q-213 0 -346.5 140.5t-133.5 365.5t133.5 366.5t346.5 141.5q214 0 341.5 -129.5t127.5 -349.5q0 -7 -1 -21.5t-1 -21.5h-729zM365 547h430q47 0 63 13.5
t16 49.5q0 137 -60.5 212t-170.5 75q-140 0 -206 -83t-72 -267z" />
    <glyph glyph-name="f" unicode="f" 
d="M188 88h183q41 5 54 19t13 59v698h-262v84h262v13q0 228 110.5 342t330.5 114q141 0 228 -56t87 -147q0 -54 -30 -87t-79 -33q-46 0 -77 31t-31 77q0 24 16.5 56.5t16.5 39.5q0 21 -22.5 29t-90.5 8q-137 0 -204.5 -84t-67.5 -256q0 -7 1 -22.5t1 -24.5h360v-84h-360
v-698q0 -45 14 -60t54 -18h268v-88h-775v88z" />
    <glyph glyph-name="g" unicode="g" 
d="M465 -16q-70 -10 -115 -56.5t-45 -111.5q0 -72 65.5 -109t192.5 -37q190 0 279.5 44t89.5 136q0 71 -47.5 102.5t-167.5 31.5h-252zM596 891q-107 0 -158 -60.5t-51 -187.5q0 -121 51.5 -180.5t157.5 -59.5q108 0 158.5 59t50.5 185q0 125 -51 184.5t-158 59.5zM889 928
q54 47 96 66.5t86 19.5q60 0 91.5 -32.5t31.5 -94.5q0 -39 -25.5 -63.5t-66.5 -24.5q-63 0 -84 55t-25 55q-6 0 -15 -5.5t-21 -16.5l-42 -33q38 -42 55 -89.5t17 -113.5q0 -162 -123.5 -249t-355.5 -87q-109 0 -152 -21t-43 -71q0 -41 32 -58.5t114 -17.5h20l166 5h111
q175 0 252 -60t77 -192q0 -158 -136.5 -241t-395.5 -83q-201 0 -312.5 56.5t-111.5 156.5q0 69 55 120.5t152 72.5q-83 19 -120.5 62.5t-37.5 119.5q0 83 53.5 138t147.5 69q-85 38 -129.5 108.5t-44.5 165.5q0 151 107.5 243.5t283.5 92.5q80 0 143.5 -19t118.5 -59z" />
    <glyph glyph-name="h" unicode="h" 
d="M213 1237q0 48 -19 63t-92 15l-10.5 1t-19.5 1q-1 0 -11.5 -1t-21.5 -1v82l362 22v-631q60 93 140 139t184 46q147 0 228 -85.5t81 -242.5v-479q0 -45 13 -59.5t55 -16.5l88 -4v-86h-498v86l88 4q42 2 55 17t13 59v487q0 98 -45.5 145.5t-138.5 47.5q-132 0 -197.5 -85.5
t-65.5 -256.5v-338q0 -47 13.5 -60.5t54.5 -15.5l88 -4v-86h-500v86l88 4q42 2 55 16.5t13 59.5v1071z" />
    <glyph glyph-name="i" unicode="i" 
d="M197 86l268 4q40 0 55 15t15 61v622q0 47 -20 63.5t-73 16.5h-223v80l502 25v-807q0 -47 14 -61.5t56 -14.5l262 -4v-86h-856v86zM743 1360q0 -50 -35 -85.5t-85 -35.5q-51 0 -86 35.5t-35 85.5q0 49 35.5 85t85.5 36q48 0 84 -36t36 -85z" />
    <glyph glyph-name="j" unicode="j" 
d="M836 1358q0 -50 -35.5 -84.5t-85.5 -34.5q-49 0 -84 35.5t-35 83.5q0 49 36 85t83 36q49 0 85 -35.5t36 -85.5zM633 788q0 49 -19.5 64.5t-81.5 15.5h-36h-254v78l577 27v-905q0 -253 -111 -370.5t-348 -117.5q-121 0 -189.5 44.5t-68.5 123.5q0 58 32.5 91.5t86.5 33.5
q47 0 76 -27.5t29 -70.5q0 -38 -24 -75q-5 -8 -5 -9q0 -13 18.5 -20t55.5 -7q141 0 201.5 70t60.5 282v772z" />
    <glyph glyph-name="k" unicode="k" 
d="M169 90q43 2 56 16t13 60v1073q0 48 -19.5 63t-93.5 15q-1 0 -11 1t-20 1h-3q-13 -2 -25 -2v82l360 22v-919l313 289q10 9 18.5 23t8.5 22q0 18 -24.5 26t-82.5 8h-65v78h524v-78h-6q-82 0 -149 -30.5t-175 -128.5l-102 -97l320 -428q37 -50 82 -72.5t120 -27.5v-86h-528
v86l61 4q48 2 61 9t13 22t-17 39l-1 2l-246 332l-125 -111v-217q0 -46 13 -60t55 -16l90 -4v-86h-508v86z" />
    <glyph glyph-name="l" unicode="l" 
d="M465 90q40 0 55 15t15 61v1071q0 47 -20 62.5t-81 15.5h-5q-18 2 -34 2q-4 0 -21 -1q-61 -1 -116 -1v82l463 22v-1253q0 -47 14 -61.5t56 -14.5h260v-90h-852v90h266z" />
    <glyph glyph-name="m" unicode="m" 
d="M33 0v86q47 0 63.5 14.5t16.5 63.5v624q0 55 -14.5 67.5t-65.5 12.5v80l235 25v-148q42 70 98.5 109t116.5 39q73 0 125 -42t70 -116q52 82 106.5 120t120.5 38q98 0 157.5 -68.5t59.5 -183.5v-23v-534q0 -48 17 -63t65 -15v-86h-330v86h11q45 0 60.5 14.5t15.5 63.5v500
q0 109 -27.5 147.5t-93.5 38.5q-75 0 -108.5 -62t-33.5 -213v-411q0 -49 16 -63.5t62 -14.5h12v-86h-339v86h12q46 0 62 15t16 63v500q0 109 -27.5 147.5t-93.5 38.5q-76 0 -109 -61t-33 -214v-411q0 -48 16 -63t62 -15h11v-86h-332z" />
    <glyph glyph-name="n" unicode="n" 
d="M145 90q42 2 55 16.5t13 59.5v622q0 49 -20.5 64.5t-92.5 15.5h-28h-25v80l342 25v-197q70 103 150 150t184 47q148 0 228.5 -85t80.5 -243v-479q0 -45 12.5 -59.5t55.5 -16.5l80 -4v-86h-486v86l84 4q42 2 54.5 16.5t13.5 59.5v487q0 92 -48 142.5t-136 50.5
q-132 0 -197.5 -85.5t-65.5 -256.5v-338q0 -47 13.5 -60.5t54.5 -15.5l86 -4v-86h-485v86z" />
    <glyph glyph-name="o" unicode="o" 
d="M618 897q-137 0 -201.5 -102.5t-64.5 -321.5q0 -218 64.5 -320t201.5 -102q138 0 201.5 100.5t63.5 321.5q0 222 -63.5 323t-201.5 101zM133 473q0 227 134.5 367.5t348.5 140.5t349 -141.5t135 -366.5t-134.5 -365.5t-349.5 -140.5q-214 0 -348.5 140t-134.5 366z" />
    <glyph glyph-name="p" unicode="p" 
d="M659 78q138 0 202.5 94t64.5 297q0 206 -61 299.5t-193 93.5q-147 0 -213 -91.5t-66 -301.5q0 -207 63.5 -299t202.5 -92zM379 795q59 94 137 140t178 46q192 0 317.5 -142t125.5 -366q0 -222 -129 -365t-328 -143q-90 0 -158 35t-129 113v-375q0 -46 13 -59t55 -15
l86 -4v-86h-500v86l90 4q42 2 55 16t13 58v1036q0 53 -20 69.5t-85 16.5h-24h-3q-14 -2 -26 -2v88l332 25v-176z" />
    <glyph glyph-name="q" unicode="q" 
d="M879 809l94 162h69q-16 -74 -24 -146t-8 -147v-940q0 -46 13 -59t55 -15l87 -4v-86h-499v86l89 4q43 2 55.5 16t12.5 58v381q-56 -81 -126.5 -117.5t-170.5 -36.5q-184 0 -308 144t-124 364q0 228 124 368t325 140q97 0 178 -41.5t158 -130.5zM565 887
q-135 0 -197.5 -93.5t-62.5 -295.5q0 -225 61.5 -322.5t198.5 -97.5q135 0 196.5 95.5t61.5 307.5q0 211 -62 308.5t-196 97.5z" />
    <glyph glyph-name="r" unicode="r" 
d="M858 86v-86h-686v86l145 4q41 2 54.5 16t13.5 60v622q0 48 -20 64t-78 16h-56h-79v80l409 25v-289q57 144 149.5 219.5t213.5 75.5q97 0 156 -48t59 -126q0 -59 -34.5 -94t-92.5 -35q-50 0 -82.5 33.5t-32.5 85.5q0 28 10.5 51t29.5 36q-11 3 -20.5 4t-19.5 1
q-121 0 -223.5 -148t-102.5 -354v-219q0 -46 14.5 -61t53.5 -15z" />
    <glyph glyph-name="s" unicode="s" 
d="M360 63l-69 -94h-68v406h74q38 -153 138 -238.5t241 -85.5q105 0 169 48t64 126q0 112 -226 155l-48 9q-246 48 -322.5 117t-76.5 196q0 128 88.5 202.5t240.5 74.5q86 0 154 -19t131 -61l59 72h64v-340h-64q-37 123 -126 190.5t-214 67.5q-96 0 -153.5 -36t-57.5 -93
q0 -121 244 -163q41 -7 64 -11q219 -42 297.5 -109.5t78.5 -193.5q0 -148 -100 -234t-274 -86q-86 0 -167 26.5t-141 73.5z" />
    <glyph glyph-name="t" unicode="t" 
d="M352 365v493h-223v82h16q145 0 221.5 105t86.5 319h86v-416h426v-90h-426v-565q0 -103 42 -152t130 -49q119 0 177.5 66.5t68.5 212.5h73v-52q0 -165 -102.5 -259.5t-282.5 -94.5q-158 0 -225.5 86.5t-67.5 313.5z" />
    <glyph glyph-name="u" unicode="u" 
d="M834 164q-74 -105 -153.5 -152t-182.5 -47q-148 0 -229 85t-81 243v495q0 49 -20 64.5t-90 15.5h-31h-33v80l363 25v-688q0 -98 45.5 -145.5t138.5 -47.5q117 0 188.5 78.5t71.5 206.5q0 1 1 6q1 17 1 35v370q0 49 -20 64.5t-90 15.5h-33h-33v80l363 25v-823
q0 -41 21.5 -55.5t94.5 -14.5h58v-80l-350 -25v189z" />
    <glyph glyph-name="v" unicode="v" 
d="M242 780q-23 51 -51.5 66.5t-96.5 15.5v86h459v-86q-79 -2 -101 -11.5t-22 -35.5q0 -7 5.5 -23t17.5 -42l221 -510l182 471q11 27 16 47.5t5 34.5q0 32 -29 51.5t-80 19.5q-4 0 -12.5 -1t-14.5 -1v86h398l-1 -86q-64 -3 -102 -33t-71 -110l-306 -752h-63z" />
    <glyph glyph-name="w" unicode="w" 
d="M331 858q-24 -2 -33 -11t-9 -34q0 -7 6 -26q3 -9 4 -13l143 -502l129 478l-6 30q-10 47 -30.5 64.5t-65.5 17.5h-20v86h370v-86l-60 -4q-19 -1 -27.5 -11.5t-8.5 -33.5q0 -10 11 -50q2 -9 3 -13l133 -474l109 435q1 5 4 15q12 39 12 71q0 25 -18 44t-47 19q-1 0 -4 1
q-10 1 -21 1v86h312v-86h-5q-47 0 -77.5 -33.5t-51.5 -109.5l-211 -752h-71l-180 656l-177 -656h-69l-250 813q-15 51 -34.5 66.5t-65.5 15.5v86h348v-86z" />
    <glyph glyph-name="x" unicode="x" 
d="M268 172l258 291l-284 342q-27 31 -53.5 44t-63.5 13h-19v86h474v-78q-73 -2 -95 -9.5t-22 -24.5t24 -46q4 -5 6 -7l148 -181l141 156q12 13 19.5 28.5t7.5 26.5q0 30 -27 43t-94 15v77h410l-1 -86q-54 -2 -90 -17t-81 -65l-230 -254l262 -339q3 -4 7 -9q72 -94 172 -94
v-84h-498v86q69 2 96 11t27 28q0 9 -5.5 19.5t-25.5 37.5l-149 203l-168 -180q-14 -16 -21.5 -32t-7.5 -32q0 -30 28 -42.5t103 -12.5v-86h-422l1 86q57 5 92.5 20.5t80.5 65.5z" />
    <glyph glyph-name="y" unicode="y" 
d="M563 948v-86h-55h-27q-25 0 -39 -11t-14 -32q0 -7 5.5 -23t17.5 -41l217 -499l204 491q5 10 8 22t3 24q0 39 -26.5 53t-116.5 16l-1 86h396v-86q-57 0 -92.5 -25.5t-61.5 -84.5l-346 -805q-88 -203 -180 -288t-217 -85q-87 0 -138 42t-51 112q0 54 35 89.5t88 35.5
q50 0 78.5 -28.5t28.5 -78.5q0 -17 -8.5 -33.5t-8.5 -19.5q0 -11 9 -16.5t28 -6.5q55 0 126 88.5t130 233.5l14 33l-325 749q-21 49 -53 68.5t-93 19.5h-12v86h477z" />
    <glyph glyph-name="z" unicode="z" 
d="M971 0h-772v82l565 782h-227q-101 0 -155 -62t-67 -192h-75l20 338h725v-76l-561 -782h235q130 0 185.5 59t79.5 224h69z" />
    <glyph glyph-name="braceleft" unicode="{" 
d="M952 1505v-61q-137 -3 -186 -54t-49 -210v-133q0 -227 -59.5 -306.5t-219.5 -113.5q161 -34 220 -113.5t59 -308.5v-135q0 -158 49 -209t186 -54v-61q-229 2 -312 74t-83 272v209q0 160 -57 219t-219 74v65q164 17 220 75t56 218v207q0 201 83.5 273t311.5 73z" />
    <glyph glyph-name="bar" unicode="|" 
d="M692 1565v-2048h-149v2048h149z" />
    <glyph glyph-name="braceright" unicode="}" 
d="M281 1505q227 -1 310 -72.5t83 -273.5v-207q0 -160 56 -218t220 -75v-65q-163 -15 -219.5 -73.5t-56.5 -219.5v-209q0 -201 -82.5 -272.5t-310.5 -73.5v61q137 3 186 54t49 209v135q0 231 58.5 309.5t218.5 112.5q-160 33 -218.5 111.5t-58.5 308.5v133q0 159 -49.5 210
t-185.5 54v61z" />
    <glyph glyph-name="asciitilde" unicode="~" 
d="M133 586q0 55 88 108.5t191 53.5q69 0 207.5 -43t205.5 -43q66 0 138.5 36.5t87.5 36.5q24 0 36.5 -15.5t12.5 -45.5q0 -55 -88.5 -108.5t-190.5 -53.5q-68 0 -206.5 43t-206.5 43q-66 0 -139 -37t-87 -37q-24 0 -36.5 16t-12.5 46z" />
    <glyph glyph-name="Adieresis" unicode="&#xc4;" 
d="M569 1092l-188 -543h383zM1100 188q21 -57 45.5 -73.5t105.5 -18.5v-96h-532v96q11 0 32 1q138 2 138 44q0 13 -4 31t-10 36l-80 236h-445l-55 -145q-10 -26 -16.5 -59t-6.5 -54q0 -49 32.5 -69.5t119.5 -20.5h18v-96h-462v96h20q66 0 100.5 30.5t69.5 127.5l405 1143h84
zM799 1796q45 0 77.5 -33.5t32.5 -79.5q0 -49 -31 -80.5t-79 -31.5q-49 0 -82 32t-33 80q0 45 34.5 79t80.5 34zM436 1796q44 0 77.5 -34t33.5 -79q0 -48 -31.5 -80t-79.5 -32q-49 0 -81.5 32t-32.5 80q0 45 34 79t80 34z" />
    <glyph glyph-name="Aring" unicode="&#xc5;" 
d="M616 1843q-59 0 -100 -41t-41 -100t41 -101t100 -42t100.5 41.5t41.5 101.5q0 59 -41.5 100t-100.5 41zM616 1950q103 0 175.5 -72.5t72.5 -175.5q0 -105 -71.5 -176.5t-176.5 -71.5q-104 0 -175.5 71.5t-71.5 176.5q0 104 71.5 176t175.5 72zM569 1092l-188 -543h383z
M1100 188q21 -57 45.5 -73.5t105.5 -18.5v-96h-532v96q11 0 32 1q138 2 138 44q0 13 -4 31t-10 36l-80 236h-445l-55 -145q-10 -26 -16.5 -59t-6.5 -54q0 -49 32.5 -69.5t119.5 -20.5h18v-96h-462v96h20q66 0 100.5 30.5t69.5 127.5l405 1143h84z" />
    <glyph glyph-name="Ccedilla" unicode="&#xc7;" 
d="M969 1278l61 119h84l23 -561h-88q-38 233 -133 356t-236 123q-187 0 -280 -157t-93 -472q0 -318 93.5 -470.5t287.5 -152.5q150 0 246.5 106.5t136.5 315.5l100 -12q-25 -238 -160 -374t-343 -136q-257 0 -423.5 203t-166.5 520q0 310 164 514.5t411 204.5
q100 0 180.5 -32.5t135.5 -94.5zM647 -196v196h63v-115q16 2 32 3t40 1q80 0 128 -45t48 -120q0 -84 -58.5 -131.5t-164.5 -47.5q-57 0 -129 18.5t-170 57.5l37 90q59 -37 121 -57.5t112 -20.5q56 0 83.5 22.5t27.5 68.5q0 40 -27.5 63t-77.5 23q-8 0 -23.5 -1.5t-41.5 -4.5
z" />
    <glyph glyph-name="Eacute" unicode="&#xc9;" 
d="M57 0v96q10 0 27 1q147 1 147 87v1006q0 86 -148 88h-26v96h1014l25 -489h-92q-36 243 -111 320t-307 77q-94 0 -120 -17.5t-26 -68.5v-434h11q133 0 187 55.5t64 204.5h91v-610h-91q-10 148 -64 204t-187 56h-11v-494q0 -52 26.5 -70t135.5 -18q250 0 327 77t124 357h86
l-27 -524h-1055zM788 1704l-301 -184h-74l277 301q27 30 54 45.5t52 15.5q31 0 53.5 -24t22.5 -56q0 -26 -16.5 -46.5t-67.5 -51.5z" />
    <glyph glyph-name="Ntilde" unicode="&#xd1;" 
d="M203 328v891q-20 58 -146 61h-12v94h344l539 -1034v733q0 124 -36 168.5t-132 44.5h-8v88h434l-1 -88q-91 -1 -126 -49t-35 -190v-1080h-117l-606 1149v-809q0 -125 34.5 -172t121.5 -47h18v-88h-430v88q90 4 124 49.5t34 181.5v9zM508 1642q-18 4 -32.5 6.5t-20.5 2.5
q-43 0 -65 -19.5t-38 -70.5h-57q19 109 69.5 170t120.5 61q19 0 36 -2t34 -6l109 -27q10 -3 21 -4.5t21 -1.5q40 0 62 19.5t35 66.5h57q-21 -112 -70 -169.5t-122 -57.5q-13 0 -27 1.5t-27 4.5z" />
    <glyph glyph-name="Odieresis" unicode="&#xd6;" 
d="M616 1315q-160 0 -236.5 -157t-76.5 -486q0 -308 78 -460.5t235 -152.5q158 0 236 156t78 471q0 321 -77 475t-237 154zM70 686q0 317 153.5 519t390.5 202q239 0 393 -202t154 -519q0 -319 -153.5 -519t-393.5 -200q-237 0 -390.5 200.5t-153.5 518.5zM799 1796
q45 0 77.5 -33.5t32.5 -79.5q0 -49 -31 -80.5t-79 -31.5q-49 0 -82 32t-33 80q0 45 34.5 79t80.5 34zM436 1796q44 0 77.5 -34t33.5 -79q0 -48 -31.5 -80t-79.5 -32q-49 0 -81.5 32t-32.5 80q0 45 34 79t80 34z" />
    <glyph glyph-name="Udieresis" unicode="&#xdc;" 
d="M197 1192q0 51 -23.5 68.5t-103.5 17.5h-35v96h528v-96h-63q-53 0 -73.5 -19t-20.5 -67v-766q0 -181 66 -264.5t208 -83.5q141 0 200.5 92t59.5 346v643q0 71 -32.5 95t-139.5 24v96h440v-96h-14q-93 0 -121.5 -28.5t-28.5 -137.5v-604q0 -294 -99.5 -417.5
t-326.5 -123.5q-207 0 -314 117t-107 344v764zM865 1796q45 0 77.5 -33.5t32.5 -79.5q0 -49 -31 -80.5t-79 -31.5q-49 0 -82 32t-33 80q0 45 34.5 79t80.5 34zM502 1796q44 0 77.5 -34t33.5 -79q0 -48 -31.5 -80t-79.5 -32q-49 0 -81.5 32t-32.5 80q0 45 34 79t80 34z" />
    <glyph glyph-name="aacute" unicode="&#xe1;" 
d="M784 514q-231 -31 -332.5 -94t-101.5 -174q0 -90 39 -131t123 -41q126 0 199 77.5t73 217.5v145zM971 678v-475q0 -47 19.5 -70.5t58.5 -23.5q23 0 51 14t35 14q12 0 19 -8.5t7 -24.5q0 -40 -57.5 -82t-130.5 -42q-72 0 -117 39t-57 112q-54 -73 -156.5 -118.5
t-212.5 -45.5q-127 0 -203.5 68t-76.5 182q0 148 147.5 237.5t486.5 143.5v147q0 71 -56.5 109.5t-162.5 38.5q-81 0 -132.5 -21.5t-51.5 -52.5q0 -7 25.5 -40t25.5 -74q0 -48 -29.5 -75.5t-78.5 -27.5q-57 0 -88 30.5t-31 86.5q0 113 110 187.5t283 74.5q196 0 284.5 -70.5
t88.5 -232.5zM815 1276l-301 -184h-74l277 301q27 30 54 45.5t52 15.5q31 0 53.5 -24t22.5 -56q0 -26 -16.5 -46.5t-67.5 -51.5z" />
    <glyph glyph-name="agrave" unicode="&#xe0;" 
d="M784 514q-231 -31 -332.5 -94t-101.5 -174q0 -90 39 -131t123 -41q126 0 199 77.5t73 217.5v145zM971 678v-475q0 -47 19.5 -70.5t58.5 -23.5q23 0 51 14t35 14q12 0 19 -8.5t7 -24.5q0 -40 -57.5 -82t-130.5 -42q-72 0 -117 39t-57 112q-54 -73 -156.5 -118.5
t-212.5 -45.5q-127 0 -203.5 68t-76.5 182q0 148 147.5 237.5t486.5 143.5v147q0 71 -56.5 109.5t-162.5 38.5q-81 0 -132.5 -21.5t-51.5 -52.5q0 -7 25.5 -40t25.5 -74q0 -48 -29.5 -75.5t-78.5 -27.5q-57 0 -88 30.5t-31 86.5q0 113 110 187.5t283 74.5q196 0 284.5 -70.5
t88.5 -232.5zM418 1276q-51 31 -67.5 51.5t-16.5 46.5q0 32 22.5 56t53.5 24q25 0 52 -15.5t54 -45.5l277 -301h-76z" />
    <glyph glyph-name="acircumflex" unicode="&#xe2;" 
d="M784 514q-231 -31 -332.5 -94t-101.5 -174q0 -90 39 -131t123 -41q126 0 199 77.5t73 217.5v145zM971 678v-475q0 -47 19.5 -70.5t58.5 -23.5q23 0 51 14t35 14q12 0 19 -8.5t7 -24.5q0 -40 -57.5 -82t-130.5 -42q-72 0 -117 39t-57 112q-54 -73 -156.5 -118.5
t-212.5 -45.5q-127 0 -203.5 68t-76.5 182q0 148 147.5 237.5t486.5 143.5v147q0 71 -56.5 109.5t-162.5 38.5q-81 0 -132.5 -21.5t-51.5 -52.5q0 -7 25.5 -40t25.5 -74q0 -48 -29.5 -75.5t-78.5 -27.5q-57 0 -88 30.5t-31 86.5q0 113 110 187.5t283 74.5q196 0 284.5 -70.5
t88.5 -232.5zM682 1442l229 -350h-73l-222 196l-221 -196h-73l227 350h133z" />
    <glyph glyph-name="adieresis" unicode="&#xe4;" 
d="M784 514q-231 -31 -332.5 -94t-101.5 -174q0 -90 39 -131t123 -41q126 0 199 77.5t73 217.5v145zM971 678v-475q0 -47 19.5 -70.5t58.5 -23.5q23 0 51 14t35 14q12 0 19 -8.5t7 -24.5q0 -40 -57.5 -82t-130.5 -42q-72 0 -117 39t-57 112q-54 -73 -156.5 -118.5
t-212.5 -45.5q-127 0 -203.5 68t-76.5 182q0 148 147.5 237.5t486.5 143.5v147q0 71 -56.5 109.5t-162.5 38.5q-81 0 -132.5 -21.5t-51.5 -52.5q0 -7 25.5 -40t25.5 -74q0 -48 -29.5 -75.5t-78.5 -27.5q-57 0 -88 30.5t-31 86.5q0 113 110 187.5t283 74.5q196 0 284.5 -70.5
t88.5 -232.5zM799 1368q45 0 77.5 -33.5t32.5 -79.5q0 -49 -31 -80.5t-79 -31.5q-49 0 -82 32t-33 80q0 45 34.5 79t80.5 34zM436 1368q44 0 77.5 -34t33.5 -79q0 -48 -31.5 -80t-79.5 -32q-49 0 -81.5 32t-32.5 80q0 45 34 79t80 34z" />
    <glyph glyph-name="atilde" unicode="&#xe3;" 
d="M784 514q-231 -31 -332.5 -94t-101.5 -174q0 -90 39 -131t123 -41q126 0 199 77.5t73 217.5v145zM971 678v-475q0 -47 19.5 -70.5t58.5 -23.5q23 0 51 14t35 14q12 0 19 -8.5t7 -24.5q0 -40 -57.5 -82t-130.5 -42q-72 0 -117 39t-57 112q-54 -73 -156.5 -118.5
t-212.5 -45.5q-127 0 -203.5 68t-76.5 182q0 148 147.5 237.5t486.5 143.5v147q0 71 -56.5 109.5t-162.5 38.5q-81 0 -132.5 -21.5t-51.5 -52.5q0 -7 25.5 -40t25.5 -74q0 -48 -29.5 -75.5t-78.5 -27.5q-57 0 -88 30.5t-31 86.5q0 113 110 187.5t283 74.5q196 0 284.5 -70.5
t88.5 -232.5zM547 1214q-18 4 -32.5 6.5t-20.5 2.5q-43 0 -65 -19.5t-38 -70.5h-57q19 109 69.5 170t120.5 61q19 0 36 -2t34 -6l109 -27q10 -3 21 -4.5t21 -1.5q40 0 62 19.5t35 66.5h57q-21 -112 -70 -169.5t-122 -57.5q-13 0 -27 1.5t-27 4.5z" />
    <glyph glyph-name="aring" unicode="&#xe5;" 
d="M616 1427q-59 0 -100 -41t-41 -100t41 -101t100 -42t100.5 42t41.5 101t-41.5 100t-100.5 41zM616 1534q103 0 175.5 -72.5t72.5 -175.5q0 -104 -71.5 -176t-176.5 -72q-104 0 -175.5 72t-71.5 176q0 105 71.5 176.5t175.5 71.5zM971 678v-475q0 -47 19.5 -70.5
t58.5 -23.5q23 0 51 14t35 14q12 0 19 -8.5t7 -24.5q0 -40 -57.5 -82t-130.5 -42q-72 0 -117 39t-57 112q-54 -73 -156.5 -118.5t-212.5 -45.5q-127 0 -203.5 68t-76.5 182q0 148 147.5 237.5t486.5 143.5v147q0 71 -56.5 109.5t-162.5 38.5q-81 0 -132.5 -21.5t-51.5 -52.5
q0 -7 25.5 -40t25.5 -74q0 -48 -29.5 -75.5t-78.5 -27.5q-57 0 -88 30.5t-31 86.5q0 113 110 187.5t283 74.5q196 0 284.5 -70.5t88.5 -232.5zM784 514q-231 -31 -332.5 -94t-101.5 -174q0 -90 39 -131t123 -41q126 0 199 77.5t73 217.5v145z" />
    <glyph glyph-name="ccedilla" unicode="&#xe7;" 
d="M1094 264q-60 -151 -163.5 -224t-258.5 -73q-215 0 -350.5 136.5t-135.5 355.5q0 234 143.5 378t377.5 144q155 0 256.5 -68.5t101.5 -171.5q0 -67 -38 -107t-99 -40q-54 0 -88.5 31.5t-34.5 81.5q0 46 32.5 78.5t32.5 41.5q0 31 -47 51.5t-121 20.5q-153 0 -226 -99.5
t-73 -310.5q0 -201 79 -299t241 -98q104 0 175 51t118 158zM631 -196v196h63v-115q16 2 32 3t40 1q80 0 128 -45t48 -120q0 -84 -58.5 -131.5t-164.5 -47.5q-57 0 -129 18.5t-170 57.5l37 90q59 -37 121 -57.5t112 -20.5q56 0 83.5 22.5t27.5 68.5q0 40 -27.5 63t-77.5 23
q-8 0 -23.5 -1.5t-41.5 -4.5z" />
    <glyph glyph-name="eacute" unicode="&#xe9;" 
d="M365 459v-33q0 -164 79.5 -257t219.5 -93q118 0 208.5 54.5t155.5 166.5l66 -41q-74 -144 -191 -216.5t-276 -72.5q-213 0 -346.5 140.5t-133.5 365.5t133.5 366.5t346.5 141.5q214 0 341.5 -129.5t127.5 -349.5q0 -7 -1 -21.5t-1 -21.5h-729zM365 547h430q47 0 63 13.5
t16 49.5q0 137 -60.5 212t-170.5 75q-140 0 -206 -83t-72 -267zM833 1276l-301 -184h-74l277 301q27 30 54 45.5t52 15.5q31 0 53.5 -24t22.5 -56q0 -26 -16.5 -46.5t-67.5 -51.5z" />
    <glyph glyph-name="egrave" unicode="&#xe8;" 
d="M365 459v-33q0 -164 79.5 -257t219.5 -93q118 0 208.5 54.5t155.5 166.5l66 -41q-74 -144 -191 -216.5t-276 -72.5q-213 0 -346.5 140.5t-133.5 365.5t133.5 366.5t346.5 141.5q214 0 341.5 -129.5t127.5 -349.5q0 -7 -1 -21.5t-1 -21.5h-729zM365 547h430q47 0 63 13.5
t16 49.5q0 137 -60.5 212t-170.5 75q-140 0 -206 -83t-72 -267zM436 1276q-51 31 -67.5 51.5t-16.5 46.5q0 32 22.5 56t53.5 24q25 0 52 -15.5t54 -45.5l277 -301h-76z" />
    <glyph glyph-name="ecircumflex" unicode="&#xea;" 
d="M365 459v-33q0 -164 79.5 -257t219.5 -93q118 0 208.5 54.5t155.5 166.5l66 -41q-74 -144 -191 -216.5t-276 -72.5q-213 0 -346.5 140.5t-133.5 365.5t133.5 366.5t346.5 141.5q214 0 341.5 -129.5t127.5 -349.5q0 -7 -1 -21.5t-1 -21.5h-729zM365 547h430q47 0 63 13.5
t16 49.5q0 137 -60.5 212t-170.5 75q-140 0 -206 -83t-72 -267zM700 1442l229 -350h-73l-222 196l-221 -196h-73l227 350h133z" />
    <glyph glyph-name="edieresis" unicode="&#xeb;" 
d="M365 459v-33q0 -164 79.5 -257t219.5 -93q118 0 208.5 54.5t155.5 166.5l66 -41q-74 -144 -191 -216.5t-276 -72.5q-213 0 -346.5 140.5t-133.5 365.5t133.5 366.5t346.5 141.5q214 0 341.5 -129.5t127.5 -349.5q0 -7 -1 -21.5t-1 -21.5h-729zM365 547h430q47 0 63 13.5
t16 49.5q0 137 -60.5 212t-170.5 75q-140 0 -206 -83t-72 -267zM817 1368q45 0 77.5 -33.5t32.5 -79.5q0 -49 -31 -80.5t-79 -31.5q-49 0 -82 32t-33 80q0 45 34.5 79t80.5 34zM454 1368q44 0 77.5 -34t33.5 -79q0 -48 -31.5 -80t-79.5 -32q-49 0 -81.5 32t-32.5 80
q0 45 34 79t80 34z" />
    <glyph glyph-name="iacute" unicode="&#xed;" 
d="M197 86l268 4q40 0 55 15t15 61v622q0 47 -20 63.5t-73 16.5h-223v80l502 25v-807q0 -47 14 -61.5t56 -14.5l262 -4v-86h-856v86zM815 1276l-301 -184h-74l277 301q27 30 54 45.5t52 15.5q31 0 53.5 -24t22.5 -56q0 -26 -16.5 -46.5t-67.5 -51.5z" />
    <glyph glyph-name="igrave" unicode="&#xec;" 
d="M197 86l268 4q40 0 55 15t15 61v622q0 47 -20 63.5t-73 16.5h-223v80l502 25v-807q0 -47 14 -61.5t56 -14.5l262 -4v-86h-856v86zM418 1276q-51 31 -67.5 51.5t-16.5 46.5q0 32 22.5 56t53.5 24q25 0 52 -15.5t54 -45.5l277 -301h-76z" />
    <glyph glyph-name="icircumflex" unicode="&#xee;" 
d="M197 86l268 4q40 0 55 15t15 61v622q0 47 -20 63.5t-73 16.5h-223v80l502 25v-807q0 -47 14 -61.5t56 -14.5l262 -4v-86h-856v86zM682 1442l229 -350h-73l-222 196l-221 -196h-73l227 350h133z" />
    <glyph glyph-name="idieresis" unicode="&#xef;" 
d="M197 86l268 4q40 0 55 15t15 61v622q0 47 -20 63.5t-73 16.5h-223v80l502 25v-807q0 -47 14 -61.5t56 -14.5l262 -4v-86h-856v86zM799 1368q45 0 77.5 -33.5t32.5 -79.5q0 -49 -31 -80.5t-79 -31.5q-49 0 -82 32t-33 80q0 45 34.5 79t80.5 34zM436 1368q44 0 77.5 -34
t33.5 -79q0 -48 -31.5 -80t-79.5 -32q-49 0 -81.5 32t-32.5 80q0 45 34 79t80 34z" />
    <glyph glyph-name="ntilde" unicode="&#xf1;" 
d="M145 90q42 2 55 16.5t13 59.5v622q0 49 -20.5 64.5t-92.5 15.5h-28h-25v80l342 25v-197q70 103 150 150t184 47q148 0 228.5 -85t80.5 -243v-479q0 -45 12.5 -59.5t55.5 -16.5l80 -4v-86h-486v86l84 4q42 2 54.5 16.5t13.5 59.5v487q0 92 -48 142.5t-136 50.5
q-132 0 -197.5 -85.5t-65.5 -256.5v-338q0 -47 13.5 -60.5t54.5 -15.5l86 -4v-86h-485v86zM549 1214q-18 4 -32.5 6.5t-20.5 2.5q-43 0 -65 -19.5t-38 -70.5h-57q19 109 69.5 170t120.5 61q19 0 36 -2t34 -6l109 -27q10 -3 21 -4.5t21 -1.5q40 0 62 19.5t35 66.5h57
q-21 -112 -70 -169.5t-122 -57.5q-13 0 -27 1.5t-27 4.5z" />
    <glyph glyph-name="oacute" unicode="&#xf3;" 
d="M618 897q-137 0 -201.5 -102.5t-64.5 -321.5q0 -218 64.5 -320t201.5 -102q138 0 201.5 100.5t63.5 321.5q0 222 -63.5 323t-201.5 101zM133 473q0 227 134.5 367.5t348.5 140.5t349 -141.5t135 -366.5t-134.5 -365.5t-349.5 -140.5q-214 0 -348.5 140t-134.5 366z
M815 1276l-301 -184h-74l277 301q27 30 54 45.5t52 15.5q31 0 53.5 -24t22.5 -56q0 -26 -16.5 -46.5t-67.5 -51.5z" />
    <glyph glyph-name="ograve" unicode="&#xf2;" 
d="M618 897q-137 0 -201.5 -102.5t-64.5 -321.5q0 -218 64.5 -320t201.5 -102q138 0 201.5 100.5t63.5 321.5q0 222 -63.5 323t-201.5 101zM133 473q0 227 134.5 367.5t348.5 140.5t349 -141.5t135 -366.5t-134.5 -365.5t-349.5 -140.5q-214 0 -348.5 140t-134.5 366z
M418 1276q-51 31 -67.5 51.5t-16.5 46.5q0 32 22.5 56t53.5 24q25 0 52 -15.5t54 -45.5l277 -301h-76z" />
    <glyph glyph-name="ocircumflex" unicode="&#xf4;" 
d="M618 897q-137 0 -201.5 -102.5t-64.5 -321.5q0 -218 64.5 -320t201.5 -102q138 0 201.5 100.5t63.5 321.5q0 222 -63.5 323t-201.5 101zM133 473q0 227 134.5 367.5t348.5 140.5t349 -141.5t135 -366.5t-134.5 -365.5t-349.5 -140.5q-214 0 -348.5 140t-134.5 366z
M682 1442l229 -350h-73l-222 196l-221 -196h-73l227 350h133z" />
    <glyph glyph-name="odieresis" unicode="&#xf6;" 
d="M618 897q-137 0 -201.5 -102.5t-64.5 -321.5q0 -218 64.5 -320t201.5 -102q138 0 201.5 100.5t63.5 321.5q0 222 -63.5 323t-201.5 101zM133 473q0 227 134.5 367.5t348.5 140.5t349 -141.5t135 -366.5t-134.5 -365.5t-349.5 -140.5q-214 0 -348.5 140t-134.5 366z
M799 1368q45 0 77.5 -33.5t32.5 -79.5q0 -49 -31 -80.5t-79 -31.5q-49 0 -82 32t-33 80q0 45 34.5 79t80.5 34zM436 1368q44 0 77.5 -34t33.5 -79q0 -48 -31.5 -80t-79.5 -32q-49 0 -81.5 32t-32.5 80q0 45 34 79t80 34z" />
    <glyph glyph-name="otilde" unicode="&#xf5;" 
d="M618 897q-137 0 -201.5 -102.5t-64.5 -321.5q0 -218 64.5 -320t201.5 -102q138 0 201.5 100.5t63.5 321.5q0 222 -63.5 323t-201.5 101zM133 473q0 227 134.5 367.5t348.5 140.5t349 -141.5t135 -366.5t-134.5 -365.5t-349.5 -140.5q-214 0 -348.5 140t-134.5 366z
M547 1214q-18 4 -32.5 6.5t-20.5 2.5q-43 0 -65 -19.5t-38 -70.5h-57q19 109 69.5 170t120.5 61q19 0 36 -2t34 -6l109 -27q10 -3 21 -4.5t21 -1.5q40 0 62 19.5t35 66.5h57q-21 -112 -70 -169.5t-122 -57.5q-13 0 -27 1.5t-27 4.5z" />
    <glyph glyph-name="uacute" unicode="&#xfa;" 
d="M834 164q-74 -105 -153.5 -152t-182.5 -47q-148 0 -229 85t-81 243v495q0 49 -20 64.5t-90 15.5h-31h-33v80l363 25v-688q0 -98 45.5 -145.5t138.5 -47.5q117 0 188.5 78.5t71.5 206.5q0 1 1 6q1 17 1 35v370q0 49 -20 64.5t-90 15.5h-33h-33v80l363 25v-823
q0 -41 21.5 -55.5t94.5 -14.5h58v-80l-350 -25v189zM752 1276l-301 -184h-74l277 301q27 30 54 45.5t52 15.5q31 0 53.5 -24t22.5 -56q0 -26 -16.5 -46.5t-67.5 -51.5z" />
    <glyph glyph-name="ugrave" unicode="&#xf9;" 
d="M834 164q-74 -105 -153.5 -152t-182.5 -47q-148 0 -229 85t-81 243v495q0 49 -20 64.5t-90 15.5h-31h-33v80l363 25v-688q0 -98 45.5 -145.5t138.5 -47.5q117 0 188.5 78.5t71.5 206.5q0 1 1 6q1 17 1 35v370q0 49 -20 64.5t-90 15.5h-33h-33v80l363 25v-823
q0 -41 21.5 -55.5t94.5 -14.5h58v-80l-350 -25v189zM355 1276q-51 31 -67.5 51.5t-16.5 46.5q0 32 22.5 56t53.5 24q25 0 52 -15.5t54 -45.5l277 -301h-76z" />
    <glyph glyph-name="ucircumflex" unicode="&#xfb;" 
d="M834 164q-74 -105 -153.5 -152t-182.5 -47q-148 0 -229 85t-81 243v495q0 49 -20 64.5t-90 15.5h-31h-33v80l363 25v-688q0 -98 45.5 -145.5t138.5 -47.5q117 0 188.5 78.5t71.5 206.5q0 1 1 6q1 17 1 35v370q0 49 -20 64.5t-90 15.5h-33h-33v80l363 25v-823
q0 -41 21.5 -55.5t94.5 -14.5h58v-80l-350 -25v189zM619 1442l229 -350h-73l-222 196l-221 -196h-73l227 350h133z" />
    <glyph glyph-name="udieresis" unicode="&#xfc;" 
d="M834 164q-74 -105 -153.5 -152t-182.5 -47q-148 0 -229 85t-81 243v495q0 49 -20 64.5t-90 15.5h-31h-33v80l363 25v-688q0 -98 45.5 -145.5t138.5 -47.5q117 0 188.5 78.5t71.5 206.5q0 1 1 6q1 17 1 35v370q0 49 -20 64.5t-90 15.5h-33h-33v80l363 25v-823
q0 -41 21.5 -55.5t94.5 -14.5h58v-80l-350 -25v189zM736 1368q45 0 77.5 -33.5t32.5 -79.5q0 -49 -31 -80.5t-79 -31.5q-49 0 -82 32t-33 80q0 45 34.5 79t80.5 34zM373 1368q44 0 77.5 -34t33.5 -79q0 -48 -31.5 -80t-79.5 -32q-49 0 -81.5 32t-32.5 80q0 45 34 79t80 34z
" />
    <glyph glyph-name="dagger" unicode="&#x2020;" 
d="M594 1009q-76 -2 -166 -42.5t-127 -40.5q-48 0 -77 26.5t-29 71.5q0 50 29.5 78t82.5 28q33 0 122.5 -38.5t160.5 -38.5h4v28q0 99 -43 206t-43 122q0 48 30 77.5t80 29.5q48 0 77.5 -30t29.5 -77q0 -15 -44 -120.5t-44 -203.5q0 -5 1 -16.5t1 -15.5h4q71 0 160.5 38.5
t122.5 38.5q52 0 82 -27.5t30 -74.5q0 -49 -29 -75.5t-81 -26.5q-34 0 -123.5 40t-165.5 43q0 -112 24 -200t74 -166q-47 -167 -70.5 -383.5t-23.5 -482.5h-51q0 239 -23.5 451t-72.5 415q47 75 72.5 161t25.5 175v30z" />
    <glyph glyph-name="degree" unicode="&#xb0;" 
d="M811 1169q0 81 -56.5 137t-138.5 56q-80 0 -137 -56t-57 -137t56.5 -138.5t137.5 -57.5q82 0 138.5 57.5t56.5 138.5zM616 1456q119 0 204 -84.5t85 -204.5q0 -117 -84 -201.5t-205 -84.5q-120 0 -204 83.5t-84 202.5q0 120 85 204.5t203 84.5z" />
    <glyph glyph-name="cent" unicode="&#xa2;" 
d="M459 162l227 561q14 34 40 57t26 33q0 24 -40.5 44t-95.5 20q-127 0 -190.5 -101.5t-63.5 -304.5q0 -111 25 -189.5t72 -119.5zM358 -291h-86l123 297q-123 59 -187.5 170.5t-64.5 267.5q0 233 130 373.5t343 140.5q40 0 78.5 -6t75.5 -18l92 219h82l-102 -250
q55 -33 82.5 -77t27.5 -97q0 -64 -37.5 -103.5t-99.5 -39.5q-26 0 -50.5 7.5t-39.5 20.5l-201 -497q34 -14 61 -20.5t50 -6.5q91 0 160.5 53t107.5 152l76 -35q-52 -146 -154 -220.5t-250 -74.5q-24 0 -49.5 4t-56.5 13z" />
    <glyph glyph-name="sterling" unicode="&#xa3;" 
d="M131 741h240q-28 84 -42 157t-14 132q0 164 117.5 270.5t304.5 106.5q153 0 247.5 -78t94.5 -205q0 -77 -39.5 -121.5t-109.5 -44.5q-53 0 -85 31t-32 80q0 73 67.5 106t67.5 48q0 36 -58.5 66t-144.5 30q-109 0 -172 -61.5t-63 -167.5q0 -57 18.5 -149t53.5 -200h348
v-92h-328q13 -50 20 -98t7 -92q0 -68 -18 -131t-52 -117q80 -34 141.5 -49t118.5 -15q103 0 168 45t92 136l72 -27q-44 -163 -131 -248.5t-209 -85.5q-86 0 -162 30t-153 95q-47 -65 -103.5 -96t-128.5 -31q-77 0 -126.5 46t-49.5 116q0 81 51.5 130.5t134.5 49.5
q61 0 169 -45q9 -4 13 -6q9 19 13 41t4 55q0 48 -20 130.5t-54 166.5h-268v92zM418 152q-51 36 -87.5 53.5t-62.5 17.5q-46 0 -73 -23t-27 -61q0 -39 27.5 -62.5t72.5 -23.5q44 0 84.5 26.5t65.5 72.5z" />
    <glyph glyph-name="section" unicode="&#xa7;" 
d="M397 418q-92 79 -134 148t-42 141q0 107 81 178.5t205 73.5q-109 96 -148.5 159.5t-39.5 132.5q0 115 88 190t226 75q123 0 201.5 -60.5t78.5 -152.5q0 -52 -33 -86.5t-83 -34.5q-44 0 -73.5 26t-29.5 64q0 31 33 69.5t33 53.5q0 25 -38 46t-91 21q-75 0 -118.5 -38.5
t-43.5 -104.5q0 -58 38.5 -114t151.5 -152l179 -150q88 -74 131 -146t43 -145q0 -110 -79 -179t-210 -73q99 -81 145.5 -153t46.5 -144q0 -112 -95 -182.5t-251 -70.5q-119 0 -201.5 61t-82.5 145q0 56 31.5 90.5t82.5 34.5q45 0 74 -27.5t29 -70.5q0 -38 -32 -72.5
t-32 -46.5q0 -28 40.5 -46.5t105.5 -18.5q79 0 128.5 42.5t49.5 108.5q0 51 -39.5 106t-144.5 146zM358 778q0 -54 27.5 -101t116.5 -130q78 -74 128.5 -103.5t96.5 -29.5q62 0 102.5 38t40.5 97q0 51 -34.5 106.5t-110.5 122.5q-92 81 -135.5 105t-85.5 24
q-59 0 -102.5 -39t-43.5 -90z" />
    <glyph glyph-name="bullet" unicode="&#x2022;" 
d="M457 684q0 67 46.5 114.5t112.5 47.5t113 -48t47 -114t-47 -113t-113 -47t-112.5 46.5t-46.5 113.5z" />
    <glyph glyph-name="paragraph" unicode="&#xb6;" 
d="M1063 1393h-121v-1393h-111v1393h-176v-1393h-112v782q-170 6 -271.5 101.5t-101.5 246.5q0 157 107.5 253t285.5 96h500v-86z" />
    <glyph glyph-name="germandbls" unicode="&#xdf;" 
d="M422 1063v-1063h-359v80h64q71 0 91 15.5t20 64.5v913q0 169 102.5 256.5t302.5 87.5q183 0 290 -88t107 -237q0 -106 -58.5 -175t-174.5 -102v-16q156 -23 232.5 -120.5t76.5 -270.5q0 -218 -91.5 -329.5t-268.5 -111.5q-104 0 -170 56t-66 141q0 57 30.5 91t82.5 34
q43 0 72.5 -33t29.5 -84q0 -35 -24 -77q-6 -11 -6 -13q0 -14 16 -24.5t37 -10.5q83 0 118 80.5t35 278.5q0 209 -60.5 287.5t-213.5 78.5q-3 0 -14 -1t-19 -1q-19 0 -29 10.5t-10 30.5t11.5 29.5t35.5 9.5h56q87 0 136.5 63t49.5 174q0 130 -54.5 190t-170.5 60
q-112 0 -159.5 -58.5t-47.5 -215.5z" />
    <glyph glyph-name="registered" unicode="&#xae;" 
d="M532 926v-183h58q66 0 99.5 23.5t33.5 69.5t-31.5 68t-99.5 22h-60zM532 471h19q39 0 57.5 -13.5t18.5 -41.5q0 -30 -16.5 -43t-55.5 -13h-180q-26 0 -41 15t-15 41q0 31 17.5 43t64.5 12h15v455h-15q-48 0 -65 11.5t-17 41.5q0 26 15 40.5t41 14.5h190q147 0 217 -49.5
t70 -153.5q0 -60 -33.5 -106t-91.5 -66q5 -4 11 -12t14 -19l104 -157h8q36 0 53 -13.5t17 -41.5q0 -26 -14.5 -41t-40.5 -15h-60q-22 0 -37.5 10.5t-33.5 41.5l-105 157q-33 50 -48.5 60t-43.5 10h-19v-168zM616 1180q-97 0 -187.5 -38t-160.5 -108q-69 -70 -107 -161.5
t-38 -186.5t38.5 -186.5t108.5 -161.5q71 -71 160 -108t186 -37t188 38t161 107q70 72 107.5 161.5t37.5 186.5q0 98 -38 189.5t-107 160.5q-71 70 -161 107t-188 37zM25 686q0 119 44 226.5t128 191.5t192.5 129t226.5 45q117 0 226.5 -45t191.5 -127t128 -193t46 -227
q0 -118 -45.5 -226t-130.5 -194q-83 -85 -189.5 -129.5t-226.5 -44.5q-86 0 -169 25t-156 73q-128 85 -197 214.5t-69 281.5z" />
    <glyph glyph-name="copyright" unicode="&#xa9;" 
d="M616 1180q-97 0 -187.5 -38t-160.5 -108q-69 -70 -107 -161.5t-38 -186.5t38.5 -186.5t108.5 -161.5q71 -71 160 -108t186 -37t188 38t161 107q70 72 107.5 161.5t37.5 186.5q0 98 -38 189.5t-107 160.5q-71 70 -161 107t-188 37zM25 686q0 119 44 226.5t128 191.5
t192.5 129t226.5 45q117 0 226.5 -45t191.5 -127t128 -193t46 -227q0 -118 -45.5 -226t-130.5 -194q-83 -85 -189.5 -129.5t-226.5 -44.5q-86 0 -169 25t-156 73q-128 85 -197 214.5t-69 281.5zM768 1024q7 11 20 16.5t33 6.5q36 0 48 -25t12 -121v-67q0 -38 -14 -53
t-48 -15q-50 0 -68 81q-2 9 -4 16q-8 33 -45.5 56t-87.5 23q-96 0 -151 -69.5t-55 -192.5q0 -113 58.5 -182.5t151.5 -69.5q66 0 137.5 43t78.5 43q27 0 43 -15.5t16 -41.5q0 -49 -89 -100.5t-192 -51.5q-147 0 -245.5 105t-98.5 264q0 163 99.5 272t248.5 109q37 0 74 -7.5
t78 -23.5z" />
    <glyph glyph-name="trademark" unicode="&#x2122;" 
d="M221 1058q-2 -42 -14 -57.5t-41 -15.5q-27 0 -38 15.5t-11 52.5v10l4 145q0 25 14.5 39.5t38.5 14.5h338q24 0 38 -14.5t15 -38.5l6 -146v-27q0 -22 -14.5 -36.5t-36.5 -14.5q-28 0 -39.5 15t-13.5 58l-4 93h-66v-350h37q39 0 54.5 -12.5t15.5 -43.5q0 -23 -14.5 -39
t-36.5 -16h-220q-22 0 -36.5 15.5t-14.5 39.5q0 31 15.5 43.5t56.5 12.5h35v350h-66zM860 993l62 219q6 24 22.5 36t42.5 12h66q22 0 35.5 -15t13.5 -39q0 -21 -11.5 -34.5t-33.5 -18.5l10 -352q28 -4 40.5 -17t12.5 -39q0 -24 -14.5 -39.5t-36.5 -15.5h-108q-33 0 -49.5 14
t-16.5 41q0 28 16.5 42t49.5 14h8v282l-51 -188q-9 -27 -21.5 -38t-36.5 -11t-37.5 11t-21.5 38l-51 188v-282h8q35 0 51 -13.5t16 -42.5q0 -27 -15.5 -41t-47.5 -14h-109q-23 0 -37 15t-14 40q0 27 12.5 40t38.5 16l10 352q-22 5 -32 18t-10 35q0 24 13.5 39t35.5 15h63
q27 0 44.5 -12.5t23.5 -35.5z" />
    <glyph glyph-name="acute" unicode="&#xb4;" 
d="M815 1276l-301 -184h-74l277 301q27 30 54 45.5t52 15.5q31 0 53.5 -24t22.5 -56q0 -26 -16.5 -46.5t-67.5 -51.5z" />
    <glyph glyph-name="dieresis" unicode="&#xa8;" 
d="M799 1368q45 0 77.5 -33.5t32.5 -79.5q0 -49 -31 -80.5t-79 -31.5q-49 0 -82 32t-33 80q0 45 34.5 79t80.5 34zM436 1368q44 0 77.5 -34t33.5 -79q0 -48 -31.5 -80t-79.5 -32q-49 0 -81.5 32t-32.5 80q0 45 34 79t80 34z" />
    <glyph glyph-name="notequal" unicode="&#x2260;" 
d="M899 872h164q30 0 46.5 -19.5t16.5 -53.5q0 -37 -16 -55.5t-47 -18.5h-291l-162 -193h453q33 0 48 -16.5t15 -52.5q0 -35 -17 -55.5t-46 -20.5h-565l-170 -207q-12 -15 -25.5 -22.5t-26.5 -7.5q-23 0 -50 24.5t-27 48.5q0 14 6.5 28.5t19.5 29.5l90 106h-147
q-29 0 -46.5 20.5t-17.5 55.5q0 37 15 53t49 16h268l162 193h-430q-31 0 -47.5 18.5t-16.5 55.5q0 36 16.5 54.5t47.5 18.5h549l172 207q12 15 25 23t26 8q25 0 51.5 -25t26.5 -49q0 -13 -7 -28t-20 -29z" />
    <glyph glyph-name="AE" unicode="&#xc6;" 
d="M362 1179q5 15 8 29t3 25q0 25 -21.5 35t-85.5 10v96h883l25 -489h-93q-24 229 -85 314t-193 85q-67 0 -85 -16.5t-18 -77.5v-428h9q78 0 111 56t39 204h89v-610h-90v28q0 113 -37 172.5t-106 59.5h-15v-498q0 -45 14 -61.5t70 -16.5h9q157 0 218.5 75.5t100.5 352.5h84
l-25 -524h-776v96h15q60 0 81 18.5t21 69.5v260h-274l-64 -204q-7 -25 -11.5 -49t-4.5 -31q0 -33 24.5 -47.5t81.5 -16.5v-96h-301v96q62 0 90 90q3 10 4 14zM489 1278l-223 -729h246v729h-23z" />
    <glyph glyph-name="Oslash" unicode="&#xd8;" 
d="M340 313l514 850q-42 76 -101.5 114t-136.5 38q-160 0 -236.5 -157.5t-76.5 -491.5q0 -108 9 -193t28 -160zM928 1292l110 185h105l-152 -252q86 -112 128 -245.5t42 -293.5q0 -319 -153.5 -519t-393.5 -200q-87 0 -163.5 28.5t-145.5 86.5l-137 -225h-105l179 293
q-90 113 -131 241.5t-41 294.5q0 316 154 518.5t390 202.5q93 0 170.5 -28.5t143.5 -86.5zM895 1063l-514 -858q40 -71 100.5 -108.5t134.5 -37.5q158 0 236 156t78 471q0 146 -8.5 225.5t-26.5 151.5z" />
    <glyph glyph-name="infinity" unicode="&#x221e;" 
d="M694 627q57 -136 102.5 -186t106.5 -50q71 0 116.5 67t45.5 175q0 107 -42 171t-112 64q-66 0 -118.5 -58.5t-98.5 -182.5zM537 635q-56 134 -102 183.5t-107 49.5q-71 0 -116.5 -66.5t-45.5 -172.5q0 -109 41.5 -173.5t109.5 -64.5q67 0 120 59t100 185zM616 764
q47 117 120.5 180.5t164.5 63.5q119 0 205 -109.5t86 -269.5q0 -167 -81.5 -273t-207.5 -106q-83 0 -147 50t-142 181q-65 -124 -131 -177.5t-151 -53.5q-125 0 -208 107t-83 272q0 173 78.5 276t210.5 103q94 0 162 -57.5t124 -186.5z" />
    <glyph glyph-name="plusminus" unicode="&#xb1;" 
d="M139 0v139h955v-139h-955zM688 1032v-297h406v-139h-406v-297h-143v297h-406v139h406v297h143z" />
    <glyph glyph-name="lessequal" unicode="&#x2264;" 
d="M236 285h759q35 0 57.5 -21t22.5 -53q0 -30 -23.5 -52t-56.5 -22h-759q-36 0 -58 20.5t-22 53.5q0 32 22 53t58 21zM426 786l565 -184q54 -17 74 -36.5t20 -53.5q0 -27 -18.5 -44t-48.5 -17q-14 0 -33 4t-41 12l-704 233q-46 16 -65 35.5t-19 50.5q0 29 21 51t63 35
l704 234q24 8 43 12t31 4q29 0 48 -17t19 -42q0 -34 -20 -53.5t-74 -36.5z" />
    <glyph glyph-name="greaterequal" unicode="&#x2265;" 
d="M240 285h761q36 0 58 -21t22 -53q0 -33 -22 -53.5t-58 -20.5h-761q-33 0 -56.5 22t-23.5 52q0 32 22 53t58 21zM809 786l-565 187q-52 17 -72 36t-20 48q0 31 17.5 48t49.5 17q11 0 26.5 -3.5t45.5 -12.5l706 -234q42 -13 63 -35t21 -51q0 -30 -19.5 -50.5t-64.5 -35.5
l-706 -233q-27 -9 -43 -12.5t-29 -3.5q-31 0 -49 17.5t-18 47.5t20.5 49.5t71.5 36.5z" />
    <glyph glyph-name="yen" unicode="&#xa5;" 
d="M434 96q60 0 81.5 20.5t21.5 73.5v363h-537v84h500l-144 227h-356v86h303l-162 260q-40 64 -67.5 81.5t-73.5 19.5v96h528v-96h-82q-72 0 -90 -11t-18 -40q0 -9 2.5 -18t7.5 -17l336 -535l264 463q12 23 17.5 40.5t5.5 35.5q0 43 -31.5 62.5t-101.5 19.5h-60v96h455v-98
q-53 -10 -88.5 -39.5t-81.5 -108.5l-123 -211h293v-86h-342l-135 -227h477v-84h-506v-363q0 -53 21 -73.5t81 -20.5h123v-96h-641v96h123z" />
    <glyph glyph-name="mu" unicode="&#xb5;" 
d="M936 137h63q29 0 44.5 -14.5t15.5 -42.5q0 -39 -23 -59.5t-67 -20.5h-158q-26 0 -37.5 7.5t-11.5 23.5q0 3 2 11q1 4 2 7l20 72q-79 -73 -162 -108.5t-175 -35.5q-55 0 -96 15t-72 47l-60 -334q-12 -67 -29 -91t-51 -24q-39 0 -56 13.5t-17 44.5q0 15 3 36.5t9 49.5
l217 1052h-80q-30 0 -45.5 15t-15.5 43q0 39 23 59.5t67 20.5h174q26 0 37.5 -7.5t11.5 -23.5q0 -7 -0.5 -10t-1.5 -7l-117 -532q-9 -46 -11.5 -63t-2.5 -29q0 -66 40 -99.5t120 -33.5q122 0 222.5 78t123.5 192l94 465q8 44 25.5 57t62.5 13q33 0 50.5 -14t17.5 -40
q0 -7 -0.5 -10.5t-2.5 -8.5z" />
    <glyph glyph-name="partialdiff" unicode="&#x2202;" 
d="M893 561q-56 77 -126.5 115.5t-158.5 38.5q-146 0 -248 -106t-102 -257q0 -109 67 -175t177 -66q138 0 239 115.5t152 334.5zM930 727q8 61 11 94.5t3 57.5q0 139 -60 212.5t-175 73.5q-81 0 -168 -45t-101 -45q-22 0 -41.5 21.5t-19.5 46.5q0 47 115 102t245 55
q168 0 262.5 -109.5t94.5 -305.5q0 -190 -51 -374.5t-134 -305.5q-79 -115 -184 -172.5t-235 -57.5q-178 0 -287 101.5t-109 265.5q0 213 151.5 360.5t370.5 147.5q95 0 169 -29.5t143 -93.5z" />
    <glyph glyph-name="summation" unicode="&#x2211;" 
d="M66 1356q-22 30 -32.5 55t-10.5 43q0 35 21 49.5t75 14.5h973q34 0 52.5 -19.5t18.5 -54.5v-371q0 -36 -18 -55t-53 -19q-42 0 -57 23t-15 98v256h-805l520 -731l2 -2q47 -68 47 -94q0 -18 -10 -41t-31 -51l-540 -752h837v260q0 77 15 99t55 22q37 0 54.5 -18.5
t17.5 -57.5v-45v-327q0 -36 -19 -55t-53 -19h-1014q-53 0 -74.5 14t-21.5 47q0 31 38 83q8 11 11 16l588 823z" />
    <glyph glyph-name="product" unicode="&#x220f;" 
d="M1081 1374v-1669h27q53 0 72.5 -15.5t19.5 -54.5q0 -36 -18.5 -53.5t-57.5 -17.5h-43h-182q-81 0 -103 15.5t-22 55.5q0 39 25 54.5t90 15.5h35v1669h-611v-1669h47q56 0 79.5 -16t23.5 -54q0 -40 -22 -55.5t-91 -15.5h-241q-37 0 -54.5 17.5t-17.5 53.5q0 40 20.5 55
t79.5 15h19v1669h-41q-65 0 -87 15.5t-22 56.5q0 36 18.5 53t57.5 17h6q20 2 37 2h983q19 0 40 -2h7q37 0 54.5 -17.5t17.5 -52.5q0 -40 -23 -56t-86 -16h-37z" />
    <glyph glyph-name="pi" unicode="&#x3c0;" 
d="M1010 786l-144 -653h80q48 0 67 -14t19 -49q0 -39 -22 -54.5t-88 -15.5h-127q-44 0 -66 10.5t-22 30.5q0 37 18 112l2 7l143 626h-393l-176 -704q-14 -56 -32.5 -74t-51.5 -18q-39 0 -55.5 14t-16.5 47q0 10 4 29t13 54l176 652h-115q-35 0 -52 15.5t-17 46.5q0 42 24 59
t101 17h47h807q50 0 65.5 -12t15.5 -42q0 -46 -24 -65t-82 -19h-98z" />
    <glyph glyph-name="integral" unicode="&#x222b;" 
d="M954 1589q130 0 203.5 -24.5t73.5 -67.5q0 -34 -20.5 -55t-55.5 -21q-26 0 -101 15.5t-124 15.5q-222 0 -236 -616q-3 -149 -6 -234q-2 -53 -5 -150q-12 -362 -26 -462q-21 -160 -114 -239t-260 -79q-132 0 -206.5 24.5t-74.5 67.5q0 34 21 55t55 21q24 0 102 -16.5
t129 -16.5q220 0 233 732q0 45 1 70q5 272 11 428.5t15 217.5q28 176 119 255t266 79z" />
    <glyph glyph-name="ordfeminine" unicode="&#xaa;" 
d="M989 479v-119h-713v119h713zM922 1159v-381q0 -36 14.5 -52.5t46.5 -16.5q17 0 41.5 11t32.5 11q12 0 19 -9t7 -24q0 -33 -50.5 -67.5t-114.5 -34.5q-60 0 -98 29.5t-52 85.5q-49 -57 -134 -91t-177 -34q-111 0 -177.5 55t-66.5 147q0 121 126 194t415 118v110
q0 56 -47 86.5t-134 30.5q-65 0 -109 -16.5t-44 -38.5q0 -4 21.5 -31t21.5 -61q0 -40 -26.5 -63t-71.5 -23q-49 0 -77 26.5t-28 71.5q0 94 97.5 154.5t256.5 60.5q160 0 234 -59t74 -189zM754 1022q-193 -24 -277 -73t-84 -136q0 -70 31.5 -101.5t101.5 -31.5q106 0 167 61
t61 170v111z" />
    <glyph glyph-name="ordmasculine" unicode="&#xba;" 
d="M958 479v-119h-684v119h684zM616 1329q-118 0 -172.5 -79.5t-54.5 -254.5q0 -174 54 -253.5t171 -79.5q121 0 175.5 79t54.5 254t-54.5 254.5t-173.5 79.5zM616 1407q183 0 299.5 -115t116.5 -297q0 -181 -115.5 -295t-300.5 -114t-300 113t-115 296q0 184 115.5 298
t299.5 114z" />
    <glyph glyph-name="Omega" unicode="&#x3a9;" 
d="M852 274v-155h152v49q0 56 13.5 71t47.5 15q33 0 47 -18t14 -68v-84q0 -53 -18.5 -68.5t-73.5 -15.5h-196q-94 0 -109.5 13.5t-15.5 88.5v166q0 28 6 44t24 36q17 18 50 51q155 154 155 306q0 161 -92 262.5t-238 101.5q-152 0 -243.5 -99t-91.5 -263q0 -153 161 -313
q12 -13 19 -19q39 -39 47 -58.5t8 -64.5v-23v-127q0 -75 -15.5 -88.5t-107.5 -13.5h-196q-56 0 -75.5 16.5t-19.5 67.5v84q0 48 15 67t49 19t47.5 -15t13.5 -71v-49h152v155q-153 105 -217 206t-64 237q0 213 143 350t369 137q233 0 377 -134.5t144 -346.5q0 -134 -64 -237
t-217 -212z" />
    <glyph glyph-name="ae" unicode="&#xe6;" 
d="M512 510q-169 -44 -230 -103.5t-61 -168.5q0 -76 27 -117t78 -41q87 0 136.5 77t49.5 218v135zM693 547h278q19 0 27 15t8 69q0 122 -40.5 193t-109.5 71q-78 0 -119.5 -88t-43.5 -260zM690 459v-27q0 -169 52 -263.5t145 -94.5q66 0 121.5 54t107.5 169l76 -41
q-59 -149 -142 -219t-200 -70q-96 0 -170 54.5t-109 150.5q-53 -100 -129 -152.5t-168 -52.5q-113 0 -177 66t-64 182q0 143 108.5 230.5t370.5 152.5v152q0 69 -39 107t-111 38q-54 0 -85 -21t-31 -59q0 -6 19.5 -39t19.5 -71q0 -51 -28.5 -77t-84.5 -26q-48 0 -73 33.5
t-25 95.5q0 104 92.5 177t236.5 73q75 0 130.5 -28t97.5 -87q52 62 107.5 88.5t131.5 26.5q147 0 236.5 -129t89.5 -346v-47h-506z" />
    <glyph glyph-name="oslash" unicode="&#xf8;" 
d="M399 172l369 682q-31 23 -66.5 33t-85.5 10q-138 0 -205 -99t-67 -302q0 -121 14.5 -205.5t40.5 -118.5zM815 942l121 223h98l-145 -266q102 -65 156.5 -175t54.5 -251q0 -225 -134.5 -365.5t-349.5 -140.5q-60 0 -110 11t-96 34l-138 -256h-96l160 297
q-98 62 -150.5 170.5t-52.5 249.5q0 227 134.5 367.5t348.5 140.5q52 0 101.5 -9.5t97.5 -29.5zM829 786l-372 -688q36 -24 75 -35.5t84 -11.5q144 0 209.5 100.5t65.5 321.5q0 108 -15.5 187t-46.5 126z" />
    <glyph glyph-name="questiondown" unicode="&#xbf;" 
d="M598 1001v80h82v-141q0 -75 -20 -128.5t-83 -136.5q-8 -10 -26 -33q-137 -178 -137 -323q0 -129 58.5 -193.5t176.5 -64.5q72 0 129.5 34.5t57.5 74.5q0 13 -47.5 54.5t-47.5 99.5q0 52 32.5 85t84.5 33q62 0 98.5 -43t36.5 -116q0 -132 -112.5 -222t-284.5 -90
t-280.5 97t-108.5 249q0 190 237 400q28 25 44 39q65 60 87.5 112.5t22.5 132.5zM641 1516q52 0 89.5 -38.5t37.5 -88.5q0 -52 -37.5 -89.5t-89.5 -37.5t-88.5 37t-36.5 90q0 52 36.5 89.5t88.5 37.5z" />
    <glyph glyph-name="exclamdown" unicode="&#xa1;" 
d="M569 892l4 193h82l2 -192q4 -220 44 -464.5t40 -281.5q0 -85 -33 -131.5t-94 -46.5q-63 0 -96 45t-33 133q0 37 40.5 281.5t43.5 463.5zM614 1260q-52 0 -89.5 36.5t-37.5 87.5q0 52 37.5 89.5t89.5 37.5t89.5 -38t37.5 -89t-37.5 -87.5t-89.5 -36.5z" />
    <glyph glyph-name="logicalnot" unicode="&#xac;" 
d="M981 764h-803q-35 0 -56.5 20.5t-21.5 53.5q0 31 22.5 51t55.5 20h897q28 0 43 -10t15 -29v-440q0 -35 -21.5 -57.5t-54.5 -22.5q-31 0 -53.5 23.5t-22.5 56.5v334z" />
    <glyph glyph-name="radical" unicode="&#x221a;" 
d="M1087 1565h162q35 0 57.5 -21t22.5 -53q0 -33 -22 -53.5t-58 -20.5h-61l-555 -1456q-17 -45 -33 -61.5t-39 -16.5t-40.5 18.5t-31.5 57.5l-301 821l-120 -39q-2 0 -6 -1q-15 -3 -21 -3q-31 0 -50.5 21t-19.5 55q0 25 14.5 41.5t45.5 26.5l184 59q5 2 11.5 3t17.5 1
q23 0 39.5 -13.5t27.5 -41.5l252 -699z" />
    <glyph glyph-name="florin" unicode="&#x192;" 
d="M289 815h248q17 276 126.5 435t276.5 159q88 0 145.5 -45.5t57.5 -116.5q0 -50 -31.5 -84.5t-81.5 -34.5q-42 0 -70 28t-28 69q0 32 20.5 58t20.5 32q0 5 -11 8.5t-28 3.5q-94 0 -149.5 -127.5t-73.5 -384.5h264v-88h-270q-35 -720 -133.5 -954t-321.5 -234
q-89 0 -143 44t-54 116q0 54 32.5 86.5t86.5 32.5q46 0 73 -26t27 -71q0 -27 -16 -52.5t-16 -28.5q0 -7 8.5 -13t19.5 -6q185 0 247 971q6 88 9 135h-235v88z" />
    <glyph glyph-name="approxequal" unicode="&#x2248;" 
d="M133 434q0 57 89 110.5t190 53.5q67 0 207 -44t206 -44q67 0 138 37t88 37q24 0 36.5 -15t12.5 -45q0 -56 -90 -110t-189 -54q-67 0 -206.5 43t-206.5 43q-68 0 -139.5 -35.5t-86.5 -35.5q-24 0 -36.5 15t-12.5 44zM133 735q0 57 89 110.5t190 53.5q67 0 207 -43t206 -43
q67 0 138 36t88 36q24 0 36.5 -15t12.5 -45q0 -56 -90 -109.5t-189 -53.5q-67 0 -206.5 44t-206.5 44q-68 0 -139.5 -37t-86.5 -37q-24 0 -36.5 15t-12.5 44z" />
    <glyph glyph-name="Delta" unicode="&#x2206;" 
d="M1112 141h12q52 0 72.5 -15.5t20.5 -53.5q0 -35 -18 -53.5t-52 -18.5h-1061q-34 0 -52 18.5t-18 53.5q0 39 20.5 54t72.5 15h12l362 944q29 75 47.5 94t47.5 19h57q65 0 106 -106l2 -6zM606 1014l-332 -873h672z" />
    <glyph glyph-name="guillemotleft" unicode="&#xab;" 
d="M170 473v23q124 100 260 237t164 137q8 0 13 -7.5t5 -18.5q0 -26 -66 -122t-181 -237q110 -131 178.5 -232t68.5 -128q0 -11 -5 -18t-13 -7q-31 0 -166.5 138t-257.5 235zM645 473v23q125 101 260 237.5t162 136.5q8 0 13 -7.5t5 -18.5q0 -26 -66 -122t-181 -237
q110 -131 178.5 -232t68.5 -128q0 -11 -5 -18t-13 -7q-31 0 -165.5 137.5t-256.5 235.5z" />
    <glyph glyph-name="guillemotright" unicode="&#xbb;" 
d="M1063 473q-122 -97 -257.5 -235t-166.5 -138q-8 0 -13 7t-5 18q0 28 68 127.5t179 232.5q-112 135 -179.5 233.5t-67.5 125.5q0 11 5 18.5t13 7.5q27 0 163.5 -137t260.5 -237v-23zM588 473q-122 -98 -256.5 -235.5t-165.5 -137.5q-8 0 -14.5 7.5t-6.5 17.5
q0 27 68.5 126t181.5 234q-114 137 -182 234.5t-68 124.5q1 11 6 18.5t13 7.5q27 0 163.5 -137t260.5 -237v-23z" />
    <glyph glyph-name="ellipsis" unicode="&#x2026;" 
d="M901 96q0 52 37 89.5t88 37.5q52 0 89.5 -37.5t37.5 -89.5t-37 -89.5t-90 -37.5q-52 0 -88.5 37.5t-36.5 89.5zM80 96q0 52 36.5 89.5t88.5 37.5t89.5 -37.5t37.5 -89.5t-37.5 -89.5t-89.5 -37.5t-88.5 37.5t-36.5 89.5zM489 96q0 52 38 89.5t89 37.5q52 0 88.5 -37
t36.5 -90q0 -52 -36 -89.5t-89 -37.5q-52 0 -89.5 37.5t-37.5 89.5z" />
    <glyph glyph-name="nonbreakingspace" unicode="&#xa0;" 
 />
    <glyph glyph-name="Agrave" unicode="&#xc0;" 
d="M569 1092l-188 -543h383zM1100 188q21 -57 45.5 -73.5t105.5 -18.5v-96h-532v96q11 0 32 1q138 2 138 44q0 13 -4 31t-10 36l-80 236h-445l-55 -145q-10 -26 -16.5 -59t-6.5 -54q0 -49 32.5 -69.5t119.5 -20.5h18v-96h-462v96h20q66 0 100.5 30.5t69.5 127.5l405 1143h84
zM418 1704q-51 31 -67.5 51.5t-16.5 46.5q0 32 22.5 56t53.5 24q25 0 52 -15.5t54 -45.5l277 -301h-76z" />
    <glyph glyph-name="Atilde" unicode="&#xc3;" 
d="M569 1092l-188 -543h383zM1100 188q21 -57 45.5 -73.5t105.5 -18.5v-96h-532v96q11 0 32 1q138 2 138 44q0 13 -4 31t-10 36l-80 236h-445l-55 -145q-10 -26 -16.5 -59t-6.5 -54q0 -49 32.5 -69.5t119.5 -20.5h18v-96h-462v96h20q66 0 100.5 30.5t69.5 127.5l405 1143h84
zM547 1642q-18 4 -32.5 6.5t-20.5 2.5q-43 0 -65 -19.5t-38 -70.5h-57q19 109 69.5 170t120.5 61q19 0 36 -2t34 -6l109 -27q10 -3 21 -4.5t21 -1.5q40 0 62 19.5t35 66.5h57q-21 -112 -70 -169.5t-122 -57.5q-13 0 -27 1.5t-27 4.5z" />
    <glyph glyph-name="Otilde" unicode="&#xd5;" 
d="M616 1315q-160 0 -236.5 -157t-76.5 -486q0 -308 78 -460.5t235 -152.5q158 0 236 156t78 471q0 321 -77 475t-237 154zM70 686q0 317 153.5 519t390.5 202q239 0 393 -202t154 -519q0 -319 -153.5 -519t-393.5 -200q-237 0 -390.5 200.5t-153.5 518.5zM547 1642
q-18 4 -32.5 6.5t-20.5 2.5q-43 0 -65 -19.5t-38 -70.5h-57q19 109 69.5 170t120.5 61q19 0 36 -2t34 -6l109 -27q10 -3 21 -4.5t21 -1.5q40 0 62 19.5t35 66.5h57q-21 -112 -70 -169.5t-122 -57.5q-13 0 -27 1.5t-27 4.5z" />
    <glyph glyph-name="OE" unicode="&#x152;" 
d="M541 207v962q0 68 -24 94.5t-83 26.5q-96 0 -142 -147t-46 -457q0 -302 46.5 -451t141.5 -149q58 0 82.5 27.5t24.5 93.5zM465 1374h694l25 -489h-94q-21 211 -80.5 305t-169.5 94q-70 0 -90.5 -16t-20.5 -78v-428h4q78 0 111.5 57t38.5 203h90v-610h-90q0 4 -1 13.5
t-1 14.5q0 115 -36 173.5t-106 58.5h-10v-498q0 -47 15.5 -64.5t68.5 -17.5q146 0 207.5 77.5t99.5 354.5h86l-24 -524h-783q-168 0 -267 184t-99 502q0 349 106 518.5t326 169.5z" />
    <glyph glyph-name="oe" unicode="&#x153;" 
d="M713 547h252q14 0 22 14.5t8 40.5q0 140 -35.5 217.5t-99.5 77.5q-69 0 -106 -88t-41 -262zM379 897q-79 0 -118.5 -106.5t-39.5 -317.5q0 -209 40 -315.5t118 -106.5q79 0 118.5 104.5t39.5 317.5q0 211 -40 317.5t-118 106.5zM1192 459h-479v-35q0 -160 48.5 -255
t129.5 -95q59 0 116 56.5t103 160.5l80 -35q-46 -142 -130 -215.5t-200 -73.5q-77 0 -138.5 38.5t-96.5 109.5q-36 -69 -101 -108.5t-145 -39.5q-159 0 -255.5 138t-96.5 368t97 369t255 139q81 0 141 -36t105 -111q41 74 102 110.5t143 36.5q146 0 234 -129.5t88 -347.5
v-45z" />
    <glyph glyph-name="endash" unicode="&#x2013;" 
d="M1233 549v-125h-1233v125h1233z" />
    <glyph glyph-name="emdash" unicode="&#x2014;" 
d="M1233 549v-125h-1233v125h1233z" />
    <glyph glyph-name="quotedblleft" unicode="&#x201c;" 
d="M842 1036q12 5 26 8t27 3q59 0 92 -31.5t33 -87.5q0 -53 -37.5 -90t-91.5 -37q-71 0 -116.5 57t-45.5 150q0 114 66.5 215.5t195.5 183.5l47 -57q-94 -70 -147 -144t-53 -135q0 -10 1 -18t3 -17zM317 1037q13 4 26 6.5t28 3.5q59 0 92 -31.5t33 -87.5q0 -53 -37.5 -90
t-91.5 -37q-71 0 -116.5 57t-45.5 150q0 114 66.5 215.5t195.5 183.5l47 -57q-95 -70 -148 -144t-53 -135q0 -9 1 -17t3 -17z" />
    <glyph glyph-name="quotedblright" unicode="&#x201d;" 
d="M401 1171q-15 -5 -28.5 -7.5t-24.5 -2.5q-58 0 -91.5 32.5t-33.5 88.5q0 51 38 88t89 37q73 0 118.5 -55t45.5 -144q0 -120 -65 -221t-197 -186l-47 59q97 72 149 145t52 138q-1 9 -4 25q0 2 -1 3zM926 1171q-16 -5 -29.5 -7.5t-24.5 -2.5q-58 0 -91 32.5t-33 88.5
q0 52 36.5 88.5t87.5 36.5q74 0 120 -55.5t46 -143.5q0 -119 -66 -221t-198 -186l-45 59q97 72 149 145t52 138q0 8 -3 24q-1 3 -1 4z" />
    <glyph glyph-name="quoteleft" unicode="&#x2018;" 
d="M579 1037q13 4 26 6.5t28 3.5q59 0 92 -31.5t33 -87.5q0 -53 -37.5 -90t-91.5 -37q-71 0 -116.5 57t-45.5 150q0 115 66 215.5t196 183.5l47 -57q-94 -70 -147.5 -144t-53.5 -135q1 -10 2 -18z" />
    <glyph glyph-name="quoteright" unicode="&#x2019;" 
d="M512 801l-45 59q97 72 149 145t52 138q0 8 -4 25q0 2 -1 3q-15 -5 -28.5 -7.5t-24.5 -2.5q-58 0 -91.5 32.5t-33.5 88.5q0 52 37 88.5t88 36.5q73 0 119.5 -55.5t46.5 -143.5q0 -119 -66 -221t-198 -186z" />
    <glyph glyph-name="divide" unicode="&#xf7;" 
d="M616 428q46 0 78.5 -33t32.5 -80q0 -45 -32 -77.5t-79 -32.5q-46 0 -78 32t-32 78q0 47 32.5 80t77.5 33zM168 705h895q30 0 46.5 -19.5t16.5 -54.5q0 -36 -16.5 -55t-46.5 -19h-895q-31 0 -47.5 18.5t-16.5 55.5q0 35 16.5 54.5t47.5 19.5zM616 1057q45 0 78 -33.5
t33 -79.5q0 -45 -32.5 -79t-78.5 -34q-45 0 -77.5 33.5t-32.5 79.5q0 47 32.5 80t77.5 33z" />
    <glyph glyph-name="lozenge" unicode="&#x25ca;" 
d="M616 1270l-342 -727l342 -736l342 736zM616 1509l455 -966l-455 -971l-454 971z" />
    <glyph glyph-name="ydieresis" unicode="&#xff;" 
d="M563 948v-86h-55h-27q-25 0 -39 -11t-14 -32q0 -7 5.5 -23t17.5 -41l217 -499l204 491q5 10 8 22t3 24q0 39 -26.5 53t-116.5 16l-1 86h396v-86q-57 0 -92.5 -25.5t-61.5 -84.5l-346 -805q-88 -203 -180 -288t-217 -85q-87 0 -138 42t-51 112q0 54 35 89.5t88 35.5
q50 0 78.5 -28.5t28.5 -78.5q0 -17 -8.5 -33.5t-8.5 -19.5q0 -11 9 -16.5t28 -6.5q55 0 126 88.5t130 233.5l14 33l-325 749q-21 49 -53 68.5t-93 19.5h-12v86h477zM799 1368q45 0 77.5 -33.5t32.5 -79.5q0 -49 -31 -80.5t-79 -31.5q-49 0 -82 32t-33 80q0 45 34.5 79
t80.5 34zM436 1368q44 0 77.5 -34t33.5 -79q0 -48 -31.5 -80t-79.5 -32q-49 0 -81.5 32t-32.5 80q0 45 34 79t80 34z" />
    <glyph glyph-name="Ydieresis" unicode="&#x178;" 
d="M942 96v-96h-629v96h146q34 0 49.5 20.5t15.5 65.5v385l-368 609q-41 68 -68 85t-70 17h-18v96h545v-96h-82q-50 0 -70 -9t-20 -30q0 -11 6.5 -27t19.5 -38l285 -476l234 432q11 21 16.5 39t5.5 33q0 41 -31.5 58.5t-109.5 17.5h-35v96h469v-96h-16q-53 0 -82 -18.5
t-66 -83.5l-336 -598v-396q0 -50 18 -68t72 -18h119zM799 1796q45 0 77.5 -33.5t32.5 -79.5q0 -49 -31 -80.5t-79 -31.5q-49 0 -82 32t-33 80q0 45 34.5 79t80.5 34zM436 1796q44 0 77.5 -34t33.5 -79q0 -48 -31.5 -80t-79.5 -32q-49 0 -81.5 32t-32.5 80q0 45 34 79t80 34z
" />
    <glyph glyph-name="fraction" unicode="&#x2215;" 
d="M1161 1092l45 -72l-1134 -737l-47 71z" />
    <glyph glyph-name="currency" unicode="&#xa4;" 
d="M918 598l-31 -84h-428q12 -248 77 -348t207 -100q112 0 189 81t117 240l92 -12q-40 -194 -149 -302t-265 -108q-192 0 -321.5 147t-163.5 402h-181l33 84h139q-1 16 -1.5 34t-0.5 56q0 36 0.5 53.5t1.5 32.5h-172l33 84h148q35 252 162 401.5t311 149.5q85 0 153 -32.5
t115 -94.5l51 119h72l18 -465h-88q-39 187 -115.5 285t-183.5 98q-134 0 -199.5 -107.5t-78.5 -353.5h555l-31 -84h-528v-176h463z" />
    <glyph glyph-name="guilsinglleft" unicode="&#x2039;" 
d="M408 473v23q124 100 260 237t163 137q8 0 13.5 -8t5.5 -18q0 -26 -66.5 -122t-181.5 -237q110 -131 179 -232t69 -128q0 -10 -6 -17.5t-15 -7.5q-30 0 -164.5 137.5t-256.5 235.5z" />
    <glyph glyph-name="guilsinglright" unicode="&#x203a;" 
d="M825 473q-121 -97 -257 -235t-167 -138q-7 0 -12.5 7t-5.5 18q0 28 68 127.5t180 232.5q-113 135 -180.5 233.5t-67.5 125.5q0 10 5.5 18t12.5 8q28 0 164 -137t260 -237v-23z" />
    <glyph glyph-name="fi" unicode="&#xf001;" 
d="M153 92q42 2 54 15.5t12 58.5v698h-166v84h170v29q0 222 118 331t357 109q131 0 207 -55t76 -148q0 -54 -30 -87t-79 -33q-46 0 -77 31t-31 77q0 26 16.5 57.5t16.5 38.5q0 19 -26 30t-71 11q-142 0 -220.5 -87.5t-78.5 -247.5q0 -23 0.5 -34.5t2.5 -21.5h217
q114 0 215.5 6t201.5 19v-807q0 -48 13 -61t55 -15l90 -2v-88h-508v88l96 2q42 2 55 15.5t13 60.5v618q0 48 -19.5 63t-80.5 15q-2 0 -7 1q-16 1 -30 1h-312v-698q0 -45 13.5 -59.5t55.5 -16.5l87 -2v-88h-493v88z" />
    <glyph glyph-name="fi" unicode="&#xfb01;" 
d="M153 92q42 2 54 15.5t12 58.5v698h-166v84h170v29q0 222 118 331t357 109q131 0 207 -55t76 -148q0 -54 -30 -87t-79 -33q-46 0 -77 31t-31 77q0 26 16.5 57.5t16.5 38.5q0 19 -26 30t-71 11q-142 0 -220.5 -87.5t-78.5 -247.5q0 -23 0.5 -34.5t2.5 -21.5h217
q114 0 215.5 6t201.5 19v-807q0 -48 13 -61t55 -15l90 -2v-88h-508v88l96 2q42 2 55 15.5t13 60.5v618q0 48 -19.5 63t-80.5 15q-2 0 -7 1q-16 1 -30 1h-312v-698q0 -45 13.5 -59.5t55.5 -16.5l87 -2v-88h-493v88z" />
    <glyph glyph-name="fl" unicode="&#xf002;" 
d="M866 948v144h-4q-38 0 -64 29.5t-26 74.5q0 31 18.5 63.5t18.5 38.5q0 16 -31 27.5t-78 11.5q-140 0 -218.5 -79t-78.5 -222v-43v-45h463zM153 92q42 2 54 15.5t12 58.5v698h-166v84h170v31q0 212 116 324t335 112q48 0 100 -8t115 -25l164 33v-1249q0 -48 12.5 -61
t55.5 -15l89 -4v-86h-508v86l96 4q42 2 55 15.5t13 60.5v698h-463v-698q0 -45 13.5 -59.5t55.5 -16.5l87 -4v-86h-493v88z" />
    <glyph glyph-name="fl" unicode="&#xfb02;" 
d="M866 948v144h-4q-38 0 -64 29.5t-26 74.5q0 31 18.5 63.5t18.5 38.5q0 16 -31 27.5t-78 11.5q-140 0 -218.5 -79t-78.5 -222v-43v-45h463zM153 92q42 2 54 15.5t12 58.5v698h-166v84h170v31q0 212 116 324t335 112q48 0 100 -8t115 -25l164 33v-1249q0 -48 12.5 -61
t55.5 -15l89 -4v-86h-508v86l96 4q42 2 55 15.5t13 60.5v698h-463v-698q0 -45 13.5 -59.5t55.5 -16.5l87 -4v-86h-493v88z" />
    <glyph glyph-name="daggerdbl" unicode="&#x2021;" 
d="M590 1055v20q0 113 -41 219t-41 115q0 48 30 77.5t80 29.5q48 0 77.5 -30t29.5 -77q0 -12 -41 -114t-41 -201q0 -6 1 -19t1 -20q71 2 161.5 38.5t119.5 36.5q52 0 82 -27.5t30 -74.5q0 -48 -28 -75t-78 -27q-36 0 -127.5 38.5t-163.5 40.5q4 -119 27 -208t69 -158
q-45 -69 -69.5 -153.5t-24.5 -168.5v-14l1 -4q1 -10 1 -20h14q55 0 143 38.5t130 38.5q50 0 78 -27t28 -75q0 -47 -30 -74.5t-82 -27.5q-30 0 -119 37t-164 38v-26q0 -110 41 -214.5t41 -113.5q0 -48 -30 -77t-81 -29q-47 0 -76.5 29.5t-29.5 76.5q0 13 41 114.5t41 200.5
q0 6 -1 19t-1 20q-69 -2 -160.5 -39.5t-124.5 -37.5q-49 0 -78.5 29.5t-29.5 78.5q0 45 29 71.5t77 26.5q36 0 127.5 -38.5t163.5 -40.5q-3 115 -26.5 204t-69.5 158q45 72 68.5 157.5t23.5 176.5v31h-15q-55 0 -142.5 -39t-129.5 -39q-48 0 -77 26.5t-29 71.5q0 50 29.5 78
t82.5 28q29 0 118.5 -37t164.5 -38z" />
    <glyph glyph-name="periodcentered" unicode="&#xb7;" 
d="M614 582q-49 0 -84.5 36.5t-35.5 86.5q0 49 35.5 84.5t84.5 35.5q50 0 86.5 -36.5t36.5 -86.5q0 -49 -36 -84.5t-87 -35.5z" />
    <glyph glyph-name="quotesinglbase" unicode="&#x201a;" 
d="M664 -13q-15 -5 -29 -8.5t-25 -3.5q-58 0 -91.5 32.5t-33.5 88.5q0 52 38 89.5t89 37.5q73 0 118.5 -56t45.5 -144q0 -120 -65 -221t-197 -187l-47 59q97 72 149 145.5t52 137.5q0 5 -1 11.5t-3 18.5z" />
    <glyph glyph-name="quotedblbase" unicode="&#x201e;" 
d="M928 -13q-15 -5 -29.5 -8.5t-26.5 -3.5q-58 0 -91 32.5t-33 88.5q0 52 37.5 89.5t88.5 37.5q73 0 118.5 -56t45.5 -144q0 -120 -65 -221t-197 -187l-47 59q97 72 149 145.5t52 137.5q0 13 -0.5 19t-1.5 11zM404 -13q-15 -5 -29.5 -8.5t-26.5 -3.5q-58 0 -91.5 32.5
t-33.5 88.5q0 52 38 89.5t89 37.5q73 0 118.5 -56t45.5 -144q0 -120 -65 -221t-197 -187l-47 59q97 72 149 145.5t52 137.5q0 13 -1 19.5t-1 10.5z" />
    <glyph glyph-name="perthousand" unicode="&#x2030;" 
d="M502 1202q0 53 -30.5 86t-80.5 33q-38 0 -71 -26t-74 -93q-56 -89 -78.5 -140t-22.5 -85q0 -40 26.5 -62t74.5 -22q97 0 176.5 102.5t79.5 206.5zM586 342q0 53 -30.5 86t-80.5 33q-39 0 -73 -26.5t-74 -92.5q-56 -89 -78.5 -140.5t-22.5 -84.5q0 -40 27.5 -62t75.5 -22
q97 0 176.5 102.5t79.5 206.5zM449 520q89 0 138.5 -46.5t49.5 -131.5q0 -137 -106 -260t-234 -123q-93 0 -150 53t-57 140q0 126 115 247t244 121zM1169 342q0 53 -30.5 86t-79.5 33q-40 0 -73.5 -26.5t-74.5 -92.5q-52 -85 -75 -137.5t-23 -87.5q0 -40 26.5 -62t73.5 -22
q97 0 176.5 102.5t79.5 206.5zM1034 520q91 0 141 -46.5t50 -131.5q0 -137 -107 -260t-235 -123q-93 0 -149 53t-56 140q0 127 114 247.5t242 120.5zM1118 1346l-1061 -988l-57 62l860 803q-34 -14 -75 -20.5t-95 -6.5q-20 0 -48 9.5t-91 41.5q0 -2 1 -8q3 -33 3 -43
q0 -130 -108 -252.5t-234 -122.5q-93 0 -149 52t-56 139q0 126 115.5 248t241.5 122q39 0 78 -10.5t54 -23.5l1 -1q121 -104 231 -104q77 0 152.5 37.5t177.5 128.5z" />
    <glyph glyph-name="Acircumflex" unicode="&#xc2;" 
d="M569 1092l-188 -543h383zM1100 188q21 -57 45.5 -73.5t105.5 -18.5v-96h-532v96q11 0 32 1q138 2 138 44q0 13 -4 31t-10 36l-80 236h-445l-55 -145q-10 -26 -16.5 -59t-6.5 -54q0 -49 32.5 -69.5t119.5 -20.5h18v-96h-462v96h20q66 0 100.5 30.5t69.5 127.5l405 1143h84
zM682 1870l229 -350h-73l-222 196l-221 -196h-73l227 350h133z" />
    <glyph glyph-name="Ecircumflex" unicode="&#xca;" 
d="M57 0v96q10 0 27 1q147 1 147 87v1006q0 86 -148 88h-26v96h1014l25 -489h-92q-36 243 -111 320t-307 77q-94 0 -120 -17.5t-26 -68.5v-434h11q133 0 187 55.5t64 204.5h91v-610h-91q-10 148 -64 204t-187 56h-11v-494q0 -52 26.5 -70t135.5 -18q250 0 327 77t124 357h86
l-27 -524h-1055zM655 1870l229 -350h-73l-222 196l-221 -196h-73l227 350h133z" />
    <glyph glyph-name="Aacute" unicode="&#xc1;" 
d="M569 1092l-188 -543h383zM1100 188q21 -57 45.5 -73.5t105.5 -18.5v-96h-532v96q11 0 32 1q138 2 138 44q0 13 -4 31t-10 36l-80 236h-445l-55 -145q-10 -26 -16.5 -59t-6.5 -54q0 -49 32.5 -69.5t119.5 -20.5h18v-96h-462v96h20q66 0 100.5 30.5t69.5 127.5l405 1143h84
zM815 1704l-301 -184h-74l277 301q27 30 54 45.5t52 15.5q31 0 53.5 -24t22.5 -56q0 -26 -16.5 -46.5t-67.5 -51.5z" />
    <glyph glyph-name="Edieresis" unicode="&#xcb;" 
d="M57 0v96q10 0 27 1q147 1 147 87v1006q0 86 -148 88h-26v96h1014l25 -489h-92q-36 243 -111 320t-307 77q-94 0 -120 -17.5t-26 -68.5v-434h11q133 0 187 55.5t64 204.5h91v-610h-91q-10 148 -64 204t-187 56h-11v-494q0 -52 26.5 -70t135.5 -18q250 0 327 77t124 357h86
l-27 -524h-1055zM772 1796q45 0 77.5 -33.5t32.5 -79.5q0 -49 -31 -80.5t-79 -31.5q-49 0 -82 32t-33 80q0 45 34.5 79t80.5 34zM409 1796q44 0 77.5 -34t33.5 -79q0 -48 -31.5 -80t-79.5 -32q-49 0 -81.5 32t-32.5 80q0 45 34 79t80 34z" />
    <glyph glyph-name="Egrave" unicode="&#xc8;" 
d="M57 0v96q10 0 27 1q147 1 147 87v1006q0 86 -148 88h-26v96h1014l25 -489h-92q-36 243 -111 320t-307 77q-94 0 -120 -17.5t-26 -68.5v-434h11q133 0 187 55.5t64 204.5h91v-610h-91q-10 148 -64 204t-187 56h-11v-494q0 -52 26.5 -70t135.5 -18q250 0 327 77t124 357h86
l-27 -524h-1055zM391 1704q-51 31 -67.5 51.5t-16.5 46.5q0 32 22.5 56t53.5 24q25 0 52 -15.5t54 -45.5l277 -301h-76z" />
    <glyph glyph-name="Iacute" unicode="&#xcd;" 
d="M221 0v96h193q54 0 76 19t22 67v1010q0 48 -22 67t-76 19h-193v96h789v-96h-191q-55 0 -76.5 -19t-21.5 -67v-1010q0 -49 21.5 -67.5t76.5 -18.5h191v-96h-789zM815 1704l-301 -184h-74l277 301q27 30 54 45.5t52 15.5q31 0 53.5 -24t22.5 -56q0 -26 -16.5 -46.5
t-67.5 -51.5z" />
    <glyph glyph-name="Icircumflex" unicode="&#xce;" 
d="M221 0v96h193q54 0 76 19t22 67v1010q0 48 -22 67t-76 19h-193v96h789v-96h-191q-55 0 -76.5 -19t-21.5 -67v-1010q0 -49 21.5 -67.5t76.5 -18.5h191v-96h-789zM682 1870l229 -350h-73l-222 196l-221 -196h-73l227 350h133z" />
    <glyph glyph-name="Idieresis" unicode="&#xcf;" 
d="M221 0v96h193q54 0 76 19t22 67v1010q0 48 -22 67t-76 19h-193v96h789v-96h-191q-55 0 -76.5 -19t-21.5 -67v-1010q0 -49 21.5 -67.5t76.5 -18.5h191v-96h-789zM799 1796q45 0 77.5 -33.5t32.5 -79.5q0 -49 -31 -80.5t-79 -31.5q-49 0 -82 32t-33 80q0 45 34.5 79
t80.5 34zM436 1796q44 0 77.5 -34t33.5 -79q0 -48 -31.5 -80t-79.5 -32q-49 0 -81.5 32t-32.5 80q0 45 34 79t80 34z" />
    <glyph glyph-name="Igrave" unicode="&#xcc;" 
d="M221 0v96h193q54 0 76 19t22 67v1010q0 48 -22 67t-76 19h-193v96h789v-96h-191q-55 0 -76.5 -19t-21.5 -67v-1010q0 -49 21.5 -67.5t76.5 -18.5h191v-96h-789zM418 1704q-51 31 -67.5 51.5t-16.5 46.5q0 32 22.5 56t53.5 24q25 0 52 -15.5t54 -45.5l277 -301h-76z" />
    <glyph glyph-name="Oacute" unicode="&#xd3;" 
d="M616 1315q-160 0 -236.5 -157t-76.5 -486q0 -308 78 -460.5t235 -152.5q158 0 236 156t78 471q0 321 -77 475t-237 154zM70 686q0 317 153.5 519t390.5 202q239 0 393 -202t154 -519q0 -319 -153.5 -519t-393.5 -200q-237 0 -390.5 200.5t-153.5 518.5zM815 1704
l-301 -184h-74l277 301q27 30 54 45.5t52 15.5q31 0 53.5 -24t22.5 -56q0 -26 -16.5 -46.5t-67.5 -51.5z" />
    <glyph glyph-name="Ocircumflex" unicode="&#xd4;" 
d="M616 1315q-160 0 -236.5 -157t-76.5 -486q0 -308 78 -460.5t235 -152.5q158 0 236 156t78 471q0 321 -77 475t-237 154zM70 686q0 317 153.5 519t390.5 202q239 0 393 -202t154 -519q0 -319 -153.5 -519t-393.5 -200q-237 0 -390.5 200.5t-153.5 518.5zM682 1870
l229 -350h-73l-222 196l-221 -196h-73l227 350h133z" />
    <glyph glyph-name="apple" unicode="&#xf000;" 
d="M637 992q-1 5 -1.5 11.5t-0.5 16.5q0 101 79 188t195 109q1 -8 1.5 -19t0.5 -30q0 -111 -84.5 -195t-169.5 -84h-6q-3 0 -6 0.5t-8 2.5zM1188 324q-91 -199 -167 -279t-169 -80q-40 0 -107 26.5t-102 26.5q-36 0 -107 -26.5t-104 -26.5q-53 0 -106 36t-105 108
q-84 115 -130 243t-46 246q0 179 102.5 291t266.5 112q55 0 126.5 -27.5t100.5 -27.5q28 0 98.5 29t124.5 29q91 0 163 -33t132 -101q-83 -54 -123.5 -119.5t-40.5 -148.5q0 -93 50.5 -166t142.5 -112z" />
    <glyph glyph-name="Ograve" unicode="&#xd2;" 
d="M616 1315q-160 0 -236.5 -157t-76.5 -486q0 -308 78 -460.5t235 -152.5q158 0 236 156t78 471q0 321 -77 475t-237 154zM70 686q0 317 153.5 519t390.5 202q239 0 393 -202t154 -519q0 -319 -153.5 -519t-393.5 -200q-237 0 -390.5 200.5t-153.5 518.5zM418 1704
q-51 31 -67.5 51.5t-16.5 46.5q0 32 22.5 56t53.5 24q25 0 52 -15.5t54 -45.5l277 -301h-76z" />
    <glyph glyph-name="Uacute" unicode="&#xda;" 
d="M197 1192q0 51 -23.5 68.5t-103.5 17.5h-35v96h528v-96h-63q-53 0 -73.5 -19t-20.5 -67v-766q0 -181 66 -264.5t208 -83.5q141 0 200.5 92t59.5 346v643q0 71 -32.5 95t-139.5 24v96h440v-96h-14q-93 0 -121.5 -28.5t-28.5 -137.5v-604q0 -294 -99.5 -417.5
t-326.5 -123.5q-207 0 -314 117t-107 344v764zM881 1704l-301 -184h-74l277 301q27 30 54 45.5t52 15.5q31 0 53.5 -24t22.5 -56q0 -26 -16.5 -46.5t-67.5 -51.5z" />
    <glyph glyph-name="Ucircumflex" unicode="&#xdb;" 
d="M197 1192q0 51 -23.5 68.5t-103.5 17.5h-35v96h528v-96h-63q-53 0 -73.5 -19t-20.5 -67v-766q0 -181 66 -264.5t208 -83.5q141 0 200.5 92t59.5 346v643q0 71 -32.5 95t-139.5 24v96h440v-96h-14q-93 0 -121.5 -28.5t-28.5 -137.5v-604q0 -294 -99.5 -417.5
t-326.5 -123.5q-207 0 -314 117t-107 344v764zM748 1870l229 -350h-73l-222 196l-221 -196h-73l227 350h133z" />
    <glyph glyph-name="Ugrave" unicode="&#xd9;" 
d="M197 1192q0 51 -23.5 68.5t-103.5 17.5h-35v96h528v-96h-63q-53 0 -73.5 -19t-20.5 -67v-766q0 -181 66 -264.5t208 -83.5q141 0 200.5 92t59.5 346v643q0 71 -32.5 95t-139.5 24v96h440v-96h-14q-93 0 -121.5 -28.5t-28.5 -137.5v-604q0 -294 -99.5 -417.5
t-326.5 -123.5q-207 0 -314 117t-107 344v764zM484 1704q-51 31 -67.5 51.5t-16.5 46.5q0 32 22.5 56t53.5 24q25 0 52 -15.5t54 -45.5l277 -301h-76z" />
    <glyph glyph-name="dotlessi" unicode="&#x131;" 
d="M197 86l268 4q40 0 55 15t15 61v622q0 47 -20 63.5t-73 16.5h-223v80l502 25v-807q0 -47 14 -61.5t56 -14.5l262 -4v-86h-856v86z" />
    <glyph glyph-name="circumflex" unicode="&#x2c6;" 
d="M682 1442l229 -350h-73l-222 196l-221 -196h-73l227 350h133z" />
    <glyph glyph-name="tilde" unicode="&#x2dc;" 
d="M547 1214q-18 4 -32.5 6.5t-20.5 2.5q-43 0 -65 -19.5t-38 -70.5h-57q19 109 69.5 170t120.5 61q19 0 36 -2t34 -6l109 -27q10 -3 21 -4.5t21 -1.5q40 0 62 19.5t35 66.5h57q-21 -112 -70 -169.5t-122 -57.5q-13 0 -27 1.5t-27 4.5z" />
    <glyph glyph-name="macron" unicode="&#xaf;" 
d="M887 1325v-139h-541v139h541z" />
    <glyph glyph-name="breve" unicode="&#x2d8;" 
d="M850 1407h65q-19 -137 -96.5 -209t-204.5 -72q-126 0 -201.5 71.5t-97.5 209.5h66q18 -71 71.5 -102t161.5 -31t164 31.5t72 101.5z" />
    <glyph glyph-name="dotaccent" unicode="&#x2d9;" 
d="M616 1374q48 0 83.5 -35.5t35.5 -83.5q0 -50 -33.5 -83t-85.5 -33q-50 0 -83 33t-33 83q0 48 34.5 83.5t81.5 35.5z" />
    <glyph glyph-name="ring" unicode="&#x2da;" 
d="M616 1462q-59 0 -100 -41t-41 -100t41 -101t100 -42t100.5 41.5t41.5 101.5q0 59 -41.5 100t-100.5 41zM616 1569q103 0 175.5 -72.5t72.5 -175.5q0 -104 -71.5 -176t-176.5 -72q-104 0 -175.5 72t-71.5 176t71.5 176t175.5 72z" />
    <glyph glyph-name="cedilla" unicode="&#xb8;" 
d="M584 -196v196h63v-115q16 2 32 3t40 1q80 0 128 -45t48 -120q0 -84 -58.5 -131.5t-164.5 -47.5q-57 0 -129 18.5t-170 57.5l37 90q59 -37 121 -57.5t112 -20.5q56 0 83.5 22.5t27.5 68.5q0 40 -27.5 63t-77.5 23q-8 0 -23.5 -1.5t-41.5 -4.5z" />
    <glyph glyph-name="hungarumlaut" unicode="&#x2dd;" 
d="M952 1280l-221 -188h-59l172 284q23 39 47.5 57.5t52.5 18.5q30 0 51 -21t21 -51q0 -24 -14.5 -47t-49.5 -53zM674 1288l-187 -196h-61l131 274q20 43 44.5 64.5t53.5 21.5q28 0 50 -21.5t22 -50.5q0 -20 -12.5 -41.5t-40.5 -50.5z" />
    <glyph glyph-name="ogonek" unicode="&#x2db;" 
d="M805 -291q-36 -75 -93.5 -116.5t-125.5 -41.5q-71 0 -114.5 42.5t-43.5 111.5q0 84 64 165t196 165h47q-83 -63 -128.5 -130.5t-45.5 -125.5q0 -60 23.5 -92.5t66.5 -32.5q37 0 65.5 16.5t57.5 55.5z" />
    <glyph glyph-name="caron" unicode="&#x2c7;" 
d="M616 1245l222 197h73l-229 -350h-133l-227 350h73z" />
    <glyph glyph-name="Lslash" unicode="&#x141;" 
d="M57 0v96q17 0 46 1q155 1 155 87v434l-258 -169v108l258 172v461q0 87 -151 88h-50v96h611v-96h-72q-89 0 -109 -17t-20 -71v-369l332 217v-110l-332 -217v-527q0 -57 22.5 -75.5t126.5 -18.5q264 0 341 77t122 357h86l-26 -524h-1082z" />
    <glyph glyph-name="lslash" unicode="&#x142;" 
d="M465 90q40 0 55 15t15 61v498l-342 -224v99l342 221v477q0 47 -20 62.5t-81 15.5h-5q-18 2 -34 2q-4 0 -21 -1q-61 -1 -116 -1v82l463 22v-577l342 223v-98l-342 -222v-579q0 -47 14 -61.5t56 -14.5l260 -4v-86h-852v86z" />
    <glyph glyph-name="Scaron" unicode="&#x160;" 
d="M147 -25l-8 560h88q40 -238 151.5 -358t293.5 -120q134 0 211.5 72t77.5 197q0 183 -327 268q-31 8 -46 12q-260 69 -349 158.5t-89 253.5q0 173 107 281t278 108q109 0 199 -34.5t155 -100.5l72 117h71l19 -500h-84q-48 209 -154.5 316.5t-265.5 107.5q-116 0 -180 -59
t-64 -164q0 -172 328 -254q28 -7 43 -11q254 -65 348 -163t94 -275q0 -201 -119 -310.5t-340 -109.5q-108 0 -207.5 39t-156.5 103l-76 -134h-70zM616 1673l222 197h73l-229 -350h-133l-227 350h73z" />
    <glyph glyph-name="scaron" unicode="&#x161;" 
d="M360 63l-69 -94h-68v406h74q38 -153 138 -238.5t241 -85.5q105 0 169 48t64 126q0 112 -226 155l-48 9q-246 48 -322.5 117t-76.5 196q0 128 88.5 202.5t240.5 74.5q86 0 154 -19t131 -61l59 72h64v-340h-64q-37 123 -126 190.5t-214 67.5q-96 0 -153.5 -36t-57.5 -93
q0 -121 244 -163q41 -7 64 -11q219 -42 297.5 -109.5t78.5 -193.5q0 -148 -100 -234t-274 -86q-86 0 -167 26.5t-141 73.5zM616 1245l222 197h73l-229 -350h-133l-227 350h73z" />
    <glyph glyph-name="Zcaron" unicode="&#x17d;" 
d="M698 96q158 0 225.5 83t110.5 345h86l-26 -524h-1008v94l774 1188h-303q-162 0 -227.5 -75.5t-108.5 -309.5h-86l31 477h942v-86l-776 -1192h366zM616 1673l222 197h73l-229 -350h-133l-227 350h73z" />
    <glyph glyph-name="zcaron" unicode="&#x17e;" 
d="M971 0h-772v82l565 782h-227q-101 0 -155 -62t-67 -192h-75l20 338h725v-76l-561 -782h235q130 0 185.5 59t79.5 224h69zM616 1245l222 197h73l-229 -350h-133l-227 350h73z" />
    <glyph glyph-name="brokenbar" unicode="&#xa6;" 
d="M555 674v758h121v-758h-121zM555 -352v760h121v-760h-121z" />
    <glyph glyph-name="Eth" unicode="&#xd0;" 
d="M35 0v96h24q71 0 93 18t22 68v492h-174v90h174v428q0 52 -23.5 69t-115.5 17v96h500q300 0 462 -178t162 -508q0 -319 -155.5 -503.5t-423.5 -184.5h-545zM383 182q0 -51 25 -68.5t116 -17.5q145 0 212 29.5t112 103.5q42 71 63 185t21 274q0 327 -90 458.5t-316 131.5
q-93 0 -118 -17.5t-25 -68.5v-428h274v-90h-274v-492z" />
    <glyph glyph-name="eth" unicode="&#xf0;" 
d="M743 965q-35 48 -71.5 91.5t-73.5 80.5l-387 -174l-31 63l365 164q-41 39 -88.5 81.5t-118.5 104.5l47 64q89 -60 155 -106.5t122 -88.5l362 162l31 -64l-330 -149q195 -171 285 -344.5t90 -376.5q0 -224 -135 -365t-349 -141q-215 0 -349 140t-134 366q0 232 137 370
t369 138q23 0 49 -4t55 -12zM616 897q-141 0 -206.5 -102t-65.5 -322t65.5 -321t206.5 -101q144 0 209.5 100.5t65.5 321.5t-66 322.5t-209 101.5z" />
    <glyph glyph-name="Yacute" unicode="&#xdd;" 
d="M942 96v-96h-629v96h146q34 0 49.5 20.5t15.5 65.5v385l-368 609q-41 68 -68 85t-70 17h-18v96h545v-96h-82q-50 0 -70 -9t-20 -30q0 -11 6.5 -27t19.5 -38l285 -476l234 432q11 21 16.5 39t5.5 33q0 41 -31.5 58.5t-109.5 17.5h-35v96h469v-96h-16q-53 0 -82 -18.5
t-66 -83.5l-336 -598v-396q0 -50 18 -68t72 -18h119zM815 1704l-301 -184h-74l277 301q27 30 54 45.5t52 15.5q31 0 53.5 -24t22.5 -56q0 -26 -16.5 -46.5t-67.5 -51.5z" />
    <glyph glyph-name="yacute" unicode="&#xfd;" 
d="M563 948v-86h-55h-27q-25 0 -39 -11t-14 -32q0 -7 5.5 -23t17.5 -41l217 -499l204 491q5 10 8 22t3 24q0 39 -26.5 53t-116.5 16l-1 86h396v-86q-57 0 -92.5 -25.5t-61.5 -84.5l-346 -805q-88 -203 -180 -288t-217 -85q-87 0 -138 42t-51 112q0 54 35 89.5t88 35.5
q50 0 78.5 -28.5t28.5 -78.5q0 -17 -8.5 -33.5t-8.5 -19.5q0 -11 9 -16.5t28 -6.5q55 0 126 88.5t130 233.5l14 33l-325 749q-21 49 -53 68.5t-93 19.5h-12v86h477zM815 1276l-301 -184h-74l277 301q27 30 54 45.5t52 15.5q31 0 53.5 -24t22.5 -56q0 -26 -16.5 -46.5
t-67.5 -51.5z" />
    <glyph glyph-name="Thorn" unicode="&#xde;" 
d="M455 449q31 -4 62 -5.5t63 -1.5q200 0 281 68t81 229t-67.5 225t-270.5 64q-96 0 -122.5 -15t-26.5 -71v-4v-489zM59 96q138 0 163.5 15.5t25.5 72.5v1006q0 86 -153 88h-36v96h584v-96h-63q-82 0 -103.5 -16t-21.5 -72v-70h299q194 0 300.5 -100t106.5 -281
q0 -200 -137 -295.5t-426 -95.5q-38 0 -74.5 1.5t-68.5 4.5v-170q0 -85 203 -88h1v-96h-600v96z" />
    <glyph glyph-name="thorn" unicode="&#xfe;" 
d="M668 78q133 0 195.5 94t62.5 297q0 206 -59.5 299.5t-188.5 93.5q-143 0 -206.5 -91.5t-63.5 -301.5q0 -207 61.5 -299t198.5 -92zM219 1223q0 52 -20 69t-86 17h-25h-25v88l345 22v-604q59 84 132.5 125t166.5 41q186 0 308 -142t122 -366q0 -219 -124.5 -363.5
t-307.5 -144.5q-97 0 -166 34.5t-131 113.5v-375q0 -44 12.5 -58t55.5 -16l87 -4v-86h-500v86l88 4q43 2 55.5 16t12.5 58v1485z" />
    <glyph glyph-name="minus" unicode="&#x2212;" 
d="M1092 446h-951v140h951v-140z" />
    <glyph glyph-name="multiply" unicode="&#xd7;" 
d="M614 754l256 256q13 12 27.5 19t28.5 7q30 0 51.5 -21.5t21.5 -51.5q0 -14 -7 -28.5t-19 -27.5l-256 -256l264 -266q13 -13 20 -27.5t7 -27.5q0 -31 -21 -52.5t-51 -21.5q-17 0 -32 6t-27 19l-265 264l-256 -254q-12 -12 -27.5 -19.5t-29.5 -7.5q-31 0 -50.5 19.5
t-19.5 50.5q0 17 6.5 32t18.5 27l254 256l-264 266q-13 13 -20 28.5t-7 31.5q0 28 22.5 50t51.5 22q14 0 29.5 -7.5t27.5 -19.5z" />
    <glyph glyph-name="onesuperior" unicode="&#xb9;" 
d="M674 1397h51v-787q0 -31 17.5 -42t84.5 -11h127v-78h-614v78h137q46 0 63 11.5t17 41.5v588q0 19 -12 26t-53 7h-162v71q120 6 203 28.5t141 66.5z" />
    <glyph glyph-name="twosuperior" unicode="&#xb2;" 
d="M422 616h375q68 0 99 124q6 23 9 36h80l-33 -297h-725v53q111 115 296 277q263 230 263 356q0 75 -51.5 115.5t-146.5 40.5t-157 -35t-62 -80q0 -15 63.5 -36.5t63.5 -75.5q0 -36 -30 -60t-77 -24q-60 0 -96.5 36t-36.5 95q0 116 101 185t276 69q157 0 248.5 -69.5
t91.5 -186.5q0 -144 -285 -332q-169 -112 -266 -191z" />
    <glyph glyph-name="threesuperior" unicode="&#xb3;" 
d="M762 963q113 -30 168 -89.5t55 -152.5q0 -116 -109 -190t-284 -74q-157 0 -254.5 61.5t-97.5 153.5q0 58 34 93.5t91 35.5q47 0 74.5 -25.5t27.5 -68.5q0 -42 -40 -68t-40 -41q0 -25 52.5 -46.5t123.5 -21.5q123 0 178.5 49.5t55.5 159.5q0 96 -47.5 140.5t-151.5 44.5
q-23 0 -54 -3t-40 -3q-26 0 -40.5 10t-14.5 28q0 23 14.5 34t42.5 11q2 0 32 -2t58 -2q96 0 138 41.5t42 135.5q0 74 -46 112.5t-136 38.5q-68 0 -115 -20t-47 -41q0 -6 33 -33.5t33 -65.5q0 -36 -28 -58t-75 -22q-48 0 -77 28.5t-29 76.5q0 92 91.5 151.5t242.5 59.5
q148 0 236.5 -62.5t88.5 -164.5q0 -77 -43 -126t-143 -85z" />
    <glyph glyph-name="onequarter" unicode="&#xbc;" 
d="M915 408l-278 -297h278v297zM995 610h60v-499h162v-72h-162v-90q0 -22 11 -29.5t40 -7.5h86v-64h-416v64h86q30 0 40.5 7.5t10.5 29.5v88h-376v72zM403 1544h43v-653q0 -25 15 -34t74 -9h88v-66h-504v66h114q42 0 57 9.5t15 33.5v489q0 16 -10.5 21.5t-46.5 5.5h-137v59
q101 4 172 23t120 55zM1161 1092l45 -72l-1134 -737l-47 71z" />
    <glyph glyph-name="onehalf" unicode="&#xbd;" 
d="M713 -37h317q59 0 86 109l6 24h66l-27 -248h-614v43q94 97 251 232q224 192 224 297q0 62 -43.5 94.5t-126.5 32.5q-81 0 -133.5 -29t-52.5 -65q0 -13 54 -30t54 -63q0 -29 -25.5 -50t-64.5 -21q-50 0 -81.5 30t-31.5 78q0 97 86 154t234 57q130 0 209.5 -56.5
t79.5 -148.5q0 -127 -236 -278q-145 -94 -231 -162zM403 1544h43v-653q0 -25 15 -34t74 -9h88v-66h-504v66h114q42 0 57 9.5t15 33.5v489q0 16 -10.5 21.5t-46.5 5.5h-137v59q101 4 172 23t120 55zM1161 1092l45 -72l-1134 -737l-47 71z" />
    <glyph glyph-name="threequarters" unicode="&#xbe;" 
d="M915 408l-278 -297h278v297zM995 610h60v-499h162v-72h-162v-90q0 -22 11 -29.5t40 -7.5h86v-64h-416v64h86q30 0 40.5 7.5t10.5 29.5v88h-376v72zM479 1184q98 -25 143.5 -74t45.5 -127q0 -97 -92.5 -158t-243.5 -61q-135 0 -216 51t-81 131q0 46 29.5 74.5t76.5 28.5
q41 0 63.5 -20t22.5 -56q0 -35 -33.5 -57.5t-33.5 -34.5q0 -21 46 -38.5t109 -17.5q99 0 145 42t46 132q0 80 -40 117t-128 37q-16 0 -43 -3t-39 -3q-21 0 -32 8.5t-11 24.5q0 19 12.5 28t42.5 9q3 0 22 -2.5t36 -2.5q90 0 126.5 33.5t36.5 112.5q0 63 -38.5 95t-114.5 32
q-58 0 -98.5 -16.5t-40.5 -34.5q0 -5 28.5 -27.5t28.5 -54.5q0 -30 -24 -48t-64 -18q-42 0 -66 23t-24 63q0 79 79.5 126.5t217.5 47.5q116 0 189 -53t73 -135q0 -63 -36.5 -103.5t-119.5 -70.5zM1161 1092l45 -72l-1134 -737l-47 71z" />
    <glyph glyph-name="franc" unicode="&#x20a3;" 
d="M672 762h-54q-42 0 -62.5 17.5t-20.5 51.5q0 37 20 55.5t59 18.5h152q27 0 41 -11t14 -32v-133q64 90 125.5 133t126.5 43q74 0 128 -39t54 -92q0 -37 -26.5 -65.5t-61.5 -28.5q-23 0 -73.5 28.5t-87.5 28.5q-45 0 -87.5 -33.5t-97.5 -113.5v-449h129q36 0 60 -19.5
t24 -47.5q0 -37 -22.5 -55.5t-67.5 -18.5h-330q-39 0 -59 18t-20 54q0 35 20.5 52t62.5 17h54v621zM401 141q37 0 54.5 -17t17.5 -52t-17.5 -53.5t-52.5 -18.5h-333q-34 0 -51 18t-17 54q0 35 17.5 52t54.5 17h63v901h-63q-36 0 -54 18t-18 54t17 54t51 18h641
q38 0 55.5 -16.5t17.5 -53.5q0 -34 -18.5 -54t-50.5 -20h-422v-358h205q39 0 56 -15t17 -48q0 -31 -17.5 -47.5t-51.5 -16.5h-209v-416h108z" />
    <glyph glyph-name="Gbreve" unicode="&#x11e;" 
d="M1210 631v-96h-96q-41 0 -53 -17.5t-12 -68.5v-482h-88l-50 178q-5 -72 -93 -125t-206 -53q-243 0 -392.5 197t-149.5 522q0 322 146.5 521.5t379.5 199.5q101 0 191 -41t98 -88l49 121h90l18 -547h-94q-40 238 -121.5 350.5t-212.5 112.5q-157 0 -235 -156.5t-78 -472.5
q0 -317 79.5 -472t242.5 -155q111 0 172 75t61 212v92q0 55 -11.5 76t-39.5 21h-14h-101v96h520zM850 1835h65q-19 -137 -96.5 -209t-204.5 -72q-126 0 -201.5 71.5t-97.5 209.5h66q18 -71 71.5 -102t161.5 -31t164 31.5t72 101.5z" />
    <glyph glyph-name="gbreve" unicode="&#x11f;" 
d="M465 -16q-70 -10 -115 -56.5t-45 -111.5q0 -72 65.5 -109t192.5 -37q190 0 279.5 44t89.5 136q0 71 -47.5 102.5t-167.5 31.5h-252zM596 891q-107 0 -158 -60.5t-51 -187.5q0 -121 51.5 -180.5t157.5 -59.5q108 0 158.5 59t50.5 185q0 125 -51 184.5t-158 59.5zM889 928
q54 47 96 66.5t86 19.5q60 0 91.5 -32.5t31.5 -94.5q0 -39 -25.5 -63.5t-66.5 -24.5q-63 0 -84 55t-25 55q-6 0 -15 -5.5t-21 -16.5l-42 -33q38 -42 55 -89.5t17 -113.5q0 -162 -123.5 -249t-355.5 -87q-109 0 -152 -21t-43 -71q0 -41 32 -58.5t114 -17.5h20l166 5h111
q175 0 252 -60t77 -192q0 -158 -136.5 -241t-395.5 -83q-201 0 -312.5 56.5t-111.5 156.5q0 69 55 120.5t152 72.5q-83 19 -120.5 62.5t-37.5 119.5q0 83 53.5 138t147.5 69q-85 38 -129.5 108.5t-44.5 165.5q0 151 107.5 243.5t283.5 92.5q80 0 143.5 -19t118.5 -59z
M850 1407h65q-19 -137 -96.5 -209t-204.5 -72q-126 0 -201.5 71.5t-97.5 209.5h66q18 -71 71.5 -102t161.5 -31t164 31.5t72 101.5z" />
    <glyph glyph-name="Idotaccent" unicode="&#x130;" 
d="M221 0v96h193q54 0 76 19t22 67v1010q0 48 -22 67t-76 19h-193v96h789v-96h-191q-55 0 -76.5 -19t-21.5 -67v-1010q0 -49 21.5 -67.5t76.5 -18.5h191v-96h-789zM616 1802q48 0 83.5 -35.5t35.5 -83.5q0 -50 -33.5 -83t-85.5 -33q-50 0 -83 33t-33 83q0 48 34.5 83.5
t81.5 35.5z" />
    <glyph glyph-name="Scedilla" unicode="&#x15e;" 
d="M147 -25l-8 560h88q40 -238 151.5 -358t293.5 -120q134 0 211.5 72t77.5 197q0 183 -327 268q-31 8 -46 12q-260 69 -349 158.5t-89 253.5q0 173 107 281t278 108q109 0 199 -34.5t155 -100.5l72 117h71l19 -500h-84q-48 209 -154.5 316.5t-265.5 107.5q-116 0 -180 -59
t-64 -164q0 -172 328 -254q28 -7 43 -11q254 -65 348 -163t94 -275q0 -201 -119 -310.5t-340 -109.5q-108 0 -207.5 39t-156.5 103l-76 -134h-70zM584 -196v196h63v-115q16 2 32 3t40 1q80 0 128 -45t48 -120q0 -84 -58.5 -131.5t-164.5 -47.5q-57 0 -129 18.5t-170 57.5
l37 90q59 -37 121 -57.5t112 -20.5q56 0 83.5 22.5t27.5 68.5q0 40 -27.5 63t-77.5 23q-8 0 -23.5 -1.5t-41.5 -4.5z" />
    <glyph glyph-name="scedilla" unicode="&#x15f;" 
d="M360 63l-69 -94h-68v406h74q38 -153 138 -238.5t241 -85.5q105 0 169 48t64 126q0 112 -226 155l-48 9q-246 48 -322.5 117t-76.5 196q0 128 88.5 202.5t240.5 74.5q86 0 154 -19t131 -61l59 72h64v-340h-64q-37 123 -126 190.5t-214 67.5q-96 0 -153.5 -36t-57.5 -93
q0 -121 244 -163q41 -7 64 -11q219 -42 297.5 -109.5t78.5 -193.5q0 -148 -100 -234t-274 -86q-86 0 -167 26.5t-141 73.5zM584 -196v196h63v-115q16 2 32 3t40 1q80 0 128 -45t48 -120q0 -84 -58.5 -131.5t-164.5 -47.5q-57 0 -129 18.5t-170 57.5l37 90q59 -37 121 -57.5
t112 -20.5q56 0 83.5 22.5t27.5 68.5q0 40 -27.5 63t-77.5 23q-8 0 -23.5 -1.5t-41.5 -4.5z" />
    <glyph glyph-name="Cacute" unicode="&#x106;" 
d="M969 1278l61 119h84l23 -561h-88q-38 233 -133 356t-236 123q-187 0 -280 -157t-93 -472q0 -318 93.5 -470.5t287.5 -152.5q150 0 246.5 106.5t136.5 315.5l100 -12q-25 -238 -160 -374t-343 -136q-257 0 -423.5 203t-166.5 520q0 310 164 514.5t411 204.5
q100 0 180.5 -32.5t135.5 -94.5zM854 1704l-301 -184h-74l277 301q27 30 54 45.5t52 15.5q31 0 53.5 -24t22.5 -56q0 -26 -16.5 -46.5t-67.5 -51.5z" />
    <glyph glyph-name="cacute" unicode="&#x107;" 
d="M1094 264q-60 -151 -163.5 -224t-258.5 -73q-215 0 -350.5 136.5t-135.5 355.5q0 234 143.5 378t377.5 144q155 0 256.5 -68.5t101.5 -171.5q0 -67 -38 -107t-99 -40q-54 0 -88.5 31.5t-34.5 81.5q0 46 32.5 78.5t32.5 41.5q0 31 -47 51.5t-121 20.5q-153 0 -226 -99.5
t-73 -310.5q0 -201 79 -299t241 -98q104 0 175 51t118 158zM878 1276l-301 -184h-74l277 301q27 30 54 45.5t52 15.5q31 0 53.5 -24t22.5 -56q0 -26 -16.5 -46.5t-67.5 -51.5z" />
    <glyph glyph-name="Ccaron" unicode="&#x10c;" 
d="M969 1278l61 119h84l23 -561h-88q-38 233 -133 356t-236 123q-187 0 -280 -157t-93 -472q0 -318 93.5 -470.5t287.5 -152.5q150 0 246.5 106.5t136.5 315.5l100 -12q-25 -238 -160 -374t-343 -136q-257 0 -423.5 203t-166.5 520q0 310 164 514.5t411 204.5
q100 0 180.5 -32.5t135.5 -94.5zM655 1673l222 197h73l-229 -350h-133l-227 350h73z" />
    <glyph glyph-name="ccaron" unicode="&#x10d;" 
d="M1094 264q-60 -151 -163.5 -224t-258.5 -73q-215 0 -350.5 136.5t-135.5 355.5q0 234 143.5 378t377.5 144q155 0 256.5 -68.5t101.5 -171.5q0 -67 -38 -107t-99 -40q-54 0 -88.5 31.5t-34.5 81.5q0 46 32.5 78.5t32.5 41.5q0 31 -47 51.5t-121 20.5q-153 0 -226 -99.5
t-73 -310.5q0 -201 79 -299t241 -98q104 0 175 51t118 158zM679 1245l222 197h73l-229 -350h-133l-227 350h73z" />
    <glyph glyph-name="dcroat" unicode="&#x111;" 
d="M834 152q-61 -92 -137.5 -136.5t-174.5 -44.5q-185 0 -306.5 141.5t-121.5 360.5q0 221 123 364.5t307 143.5q97 0 168.5 -36.5t130.5 -115.5v273h-284v82h284v53q0 48 -20 63t-96 15h-7q-19 2 -32 2q-2 0 -7 -1q-20 -1 -38 -1v82l387 22v-235h219v-82h-219v-938
q0 -45 21.5 -61.5t84.5 -16.5q7 0 23.5 1t25.5 1v-88l-331 -23v175zM563 868q-133 0 -195.5 -94t-62.5 -297q0 -209 61.5 -301t198.5 -92q135 0 196.5 93.5t61.5 299.5q0 209 -61.5 300t-198.5 91z" />
    <glyph glyph-name="sfthyphen" unicode="&#xad;" 
d="M956 573v-174h-682v174h682z" />
    <glyph glyph-name="periodcentered" unicode="&#x2219;" 
d="M614 582q-49 0 -84.5 36.5t-35.5 86.5q0 49 35.5 84.5t84.5 35.5q50 0 86.5 -36.5t36.5 -86.5q0 -49 -36 -84.5t-87 -35.5z" />
    <glyph glyph-name="Euro" 
d="M918 598l-31 -84h-428q12 -248 77 -348t207 -100q112 0 189 81t117 240l92 -12q-40 -194 -149 -302t-265 -108q-192 0 -321.5 147t-163.5 402h-181l33 84h139q-1 16 -1.5 34t-0.5 56q0 36 0.5 53.5t1.5 32.5h-172l33 84h148q35 252 162 401.5t311 149.5q85 0 153 -32.5
t115 -94.5l51 119h72l18 -465h-88q-39 187 -115.5 285t-183.5 98q-134 0 -199.5 -107.5t-78.5 -353.5h555l-31 -84h-528v-176h463z" />
    <glyph glyph-name="Euro" unicode="&#x20ac;" 
d="M918 598l-31 -84h-428q12 -248 77 -348t207 -100q112 0 189 81t117 240l92 -12q-40 -194 -149 -302t-265 -108q-192 0 -321.5 147t-163.5 402h-181l33 84h139q-1 16 -1.5 34t-0.5 56q0 36 0.5 53.5t1.5 32.5h-172l33 84h148q35 252 162 401.5t311 149.5q85 0 153 -32.5
t115 -94.5l51 119h72l18 -465h-88q-39 187 -115.5 285t-183.5 98q-134 0 -199.5 -107.5t-78.5 -353.5h555l-31 -84h-528v-176h463z" />
  </font>
</defs>
</svg>
