<?xml version="1.0" standalone="no"?>
<!DOCTYPE svg PUBLIC "-//W3C//DTD SVG 1.1//EN" "http://www.w3.org/Graphics/SVG/1.1/DTD/svg11.dtd" >
<svg xmlns="http://www.w3.org/2000/svg" xmlns:xlink="http://www.w3.org/1999/xlink" version="1.1">
<metadata>
Created by FontForge 20170731 at Thu May 11 13:03:47 2017
 By Aleksey,,,
Or Type &#38; GUNMAD
</metadata>
<defs>
<font id="Rather-Medium" horiz-adv-x="0" >
  <font-face 
    font-family="Rather Medium"
    font-weight="500"
    font-stretch="normal"
    units-per-em="1000"
    panose-1="0 0 6 0 0 0 0 0 0 0"
    ascent="800"
    descent="-200"
    x-height="500"
    cap-height="725"
    bbox="-425 -247 1115 979"
    underline-thickness="50"
    underline-position="-200"
    unicode-range="U+000D-FB04"
  />
<missing-glyph horiz-adv-x="250" 
 />
    <glyph glyph-name="f_f_i" unicode="ffi" horiz-adv-x="883" 
d="M410 546q0 179 165 179h69v-81h-61q-77 0 -77 -96v-48h124v-83h-124v-417h-96v417h-203v-417h-96v417h-99v83h99v46q0 179 165 179h69v-81h-61q-77 0 -77 -96v-48h203v46zM706 725h108v-114h-108v114zM712 0v500h95v-500h-95z" />
    <glyph glyph-name="f_f_l" unicode="ffl" horiz-adv-x="881" 
d="M410 546q0 179 165 179h69v-81h-61q-77 0 -77 -96v-48h124v-83h-124v-417h-96v417h-203v-417h-96v417h-99v83h99v46q0 179 165 179h69v-81h-61q-77 0 -77 -96v-48h203v46zM713 725h95v-725h-95v725z" />
    <glyph glyph-name="f_f" unicode="ff" horiz-adv-x="652" 
d="M583 644q-77 0 -77 -96v-48h124v-83h-124v-417h-96v417h-203v-417h-96v417h-99v83h99v46q0 179 165 179h69v-81h-61q-77 0 -77 -96v-48h203v46q0 179 165 179h69v-81h-61z" />
    <glyph glyph-name=".notdef" horiz-adv-x="250" 
 />
    <glyph glyph-name=".null" 
 />
    <glyph glyph-name="nonmarkingreturn" horiz-adv-x="333" 
 />
    <glyph glyph-name="CR" unicode="&#xd;" horiz-adv-x="250" 
 />
    <glyph glyph-name="space" unicode=" " horiz-adv-x="250" 
 />
    <glyph glyph-name="exclam" unicode="!" horiz-adv-x="293" 
d="M121 204l-24 268v253h98v-253l-23 -268h-51zM92 0v114h108v-114h-108z" />
    <glyph glyph-name="quotedbl" unicode="&#x22;" horiz-adv-x="368" 
d="M60 755h82v-274h-82v274zM226 755h82v-274h-82v274z" />
    <glyph glyph-name="numbersign" unicode="#" horiz-adv-x="722" 
d="M668 417h-117l-15 -144h111l-10 -83h-110l-21 -190h-94l21 190h-172l-21 -190h-94l21 190h-111l8 83h112l16 144h-106l8 83h107l25 225h93l-25 -225h172l25 225h94l-25 -225h117zM442 273l15 144h-172l-15 -144h172z" />
    <glyph glyph-name="dollar" unicode="$" horiz-adv-x="692" 
d="M634 194q0 -98 -70 -151.5t-193 -55.5v-68h-55v70q-121 9 -183.5 71.5t-72.5 162.5h95q27 -131 161 -149v249l-73 18q-171 40 -171 186q0 91 60.5 148t183.5 62v74h55v-74q236 -14 252 -235h-97q-9 69 -45 106.5t-110 43.5v-246l68 -16q92 -21 143.5 -66.5t51.5 -129.5z
M274 429l42 -10v233q-78 -6 -112.5 -40t-34.5 -82q0 -40 24 -64t81 -37zM371 71q69 2 117.5 30t48.5 88q0 48 -32 72.5t-94 38.5l-40 10v-239z" />
    <glyph glyph-name="percent" unicode="%" horiz-adv-x="885" 
d="M262 -30l-77 44l436 744l77 -43zM213 434q-63 0 -106.5 43.5t-43.5 106.5t43.5 107t106.5 44q62 0 106.5 -44.5t44.5 -106.5q0 -63 -44 -106.5t-107 -43.5zM213 509q31 0 53 22t22 53t-22 53t-53 22t-53 -22t-22 -53t22 -53t53 -22zM665 -9q-63 0 -106.5 43.5
t-43.5 106.5t43.5 107t106.5 44q62 0 106.5 -44.5t44.5 -106.5q0 -63 -44 -106.5t-107 -43.5zM665 66q31 0 53 22t22 53t-22 53t-53 22t-53 -22t-22 -53t22 -53t53 -22z" />
    <glyph glyph-name="ampersand" unicode="&#x26;" horiz-adv-x="734" 
d="M748 0h-124l-75 70q-81 -83 -235 -83q-129 0 -193.5 56t-64.5 144q0 122 129 185l24 12q-50 50 -72.5 89.5t-22.5 79.5q0 74 55.5 129.5t147.5 55.5q86 0 143.5 -49t57.5 -132q0 -108 -121 -172l-37 -20l161 -151q11 38 11 79l1 59h95l-1 -64q-2 -87 -29 -146zM210 559
q0 -25 18.5 -55t68.5 -79l37 18q88 43 88 113q0 40 -27.5 69t-78.5 29q-52 0 -79 -29.5t-27 -65.5zM314 70q108 0 164 65l-201 185l-30 -16q-49 -26 -72 -51t-23 -64q0 -57 45 -88t117 -31z" />
    <glyph glyph-name="quotesingle" unicode="'" horiz-adv-x="202" 
d="M60 755h82v-274h-82v274z" />
    <glyph glyph-name="parenleft" unicode="(" horiz-adv-x="309" 
d="M202 -95q-95 110 -123.5 202.5t-28.5 268.5q0 175 28.5 267.5t123.5 202.5h92q-93 -117 -120.5 -211.5t-27.5 -258.5t27.5 -259t120.5 -212h-92z" />
    <glyph glyph-name="parenright" unicode=")" horiz-adv-x="309" 
d="M107 -95h-92q93 117 120.5 212t27.5 259t-27.5 258.5t-120.5 211.5h92q95 -110 123.5 -202.5t28.5 -267.5q0 -176 -28.5 -268.5t-123.5 -202.5z" />
    <glyph glyph-name="asterisk" unicode="*" horiz-adv-x="371" 
d="M347 548l-41 -70l-90 65l10 -112h-81l10 112l-90 -66l-40 71l98 45l-98 45l40 70l94 -70l-14 117h81l-10 -114l90 68l40 -71l-96 -45z" />
    <glyph glyph-name="plus" unicode="+" horiz-adv-x="548" 
d="M315 556v-179h178v-84h-178v-183h-84v183h-176v84h176v179h84z" />
    <glyph glyph-name="comma" unicode="," horiz-adv-x="231" 
d="M89 104h107l-110 -212h-86z" />
    <glyph glyph-name="hyphen" unicode="-" horiz-adv-x="534" 
d="M70 243h394v83h-394v-83z" />
    <glyph glyph-name="period" unicode="." horiz-adv-x="214" 
d="M53 0v114h108v-114h-108z" />
    <glyph glyph-name="slash" unicode="/" horiz-adv-x="447" 
d="M396 755h97l-348 -755h-97z" />
    <glyph glyph-name="zero" unicode="0" horiz-adv-x="703" 
d="M353 -13q-133 0 -206 78.5t-73 208.5v177q0 130 73 208.5t206 78.5t204.5 -78t71.5 -209v-177q0 -131 -71.5 -209t-204.5 -78zM353 73q180 0 180 205v169q0 205 -180 205q-183 0 -183 -205v-169q0 -205 183 -205z" />
    <glyph glyph-name="one" unicode="1" horiz-adv-x="422" 
d="M60 725h232v-725h-97v638h-135v87z" />
    <glyph glyph-name="two" unicode="2" horiz-adv-x="684" 
d="M229 87h378v-87h-522l1 77l291 250q37 32 53.5 47t38.5 40.5t30.5 48.5t8.5 50q0 56 -39.5 98t-121.5 42q-155 0 -180 -158h-96q6 47 23.5 88.5t49 77t84.5 56.5t121 21q124 0 189.5 -66t65.5 -157q0 -72 -40 -127.5t-123 -124.5z" />
    <glyph glyph-name="three" unicode="3" horiz-adv-x="716" 
d="M410 454q102 0 166.5 -54.5t64.5 -145.5v-47q0 -98 -75.5 -159t-197.5 -61q-133 0 -211.5 66.5t-84.5 170.5h95q12 -74 64 -112t130 -39q79 -1 131 38.5t52 105.5v30q0 60 -44 95.5t-134 35.5h-110v79l224 184h-398v85h531v-85l-233 -187h30z" />
    <glyph glyph-name="four" unicode="4" horiz-adv-x="720" 
d="M650 233v-76h-98v-157h-97v157h-384v86l379 482h102v-492h98zM170 233h285v365z" />
    <glyph glyph-name="five" unicode="5" horiz-adv-x="720" 
d="M397 498q107 0 179 -56.5t72 -162.5v-70q0 -99 -75.5 -160.5t-201.5 -61.5q-129 0 -206 64t-83 165h95q11 -68 62.5 -106t130.5 -38q84 0 133 41.5t49 108.5v47q0 67 -47.5 105.5t-124.5 38.5q-109 0 -165 -94h-106v406h516v-87h-421v-223q67 83 193 83z" />
    <glyph glyph-name="six" unicode="6" horiz-adv-x="696" 
d="M361 474q113 0 188.5 -62.5t75.5 -165.5v-30q0 -102 -73 -165.5t-202 -63.5q-130 0 -203 66t-73 178v216q0 59 16 109.5t49.5 92t90.5 65.5t132 24q70 0 122.5 -20.5t82.5 -55.5t46 -74t20 -85h-95q-7 67 -49.5 108.5t-126.5 41.5q-90 0 -142.5 -52.5t-52.5 -150.5v-61
q63 85 194 85zM529 219v25q0 68 -46.5 107t-131.5 39q-86 0 -133.5 -39.5t-47.5 -106.5v-25q0 -69 46.5 -108.5t133.5 -39.5q86 0 132.5 39.5t46.5 108.5z" />
    <glyph glyph-name="seven" unicode="7" horiz-adv-x="617" 
d="M55 725h508v-67l-298 -658h-103l290 638h-397v87z" />
    <glyph glyph-name="eight" unicode="8" horiz-adv-x="684" 
d="M476 369q49 -6 94 -51.5t45 -120.5q0 -93 -72.5 -151t-200.5 -58q-129 1 -201 58.5t-72 149.5q0 76 45.5 121.5t93.5 51.5q-117 51 -117 163q0 88 64 146.5t187 58.5t187 -58.5t64 -146.5q0 -111 -117 -163zM342 652q-83 0 -119 -35.5t-36 -88.5t35.5 -87.5t119.5 -34.5
q83 0 118.5 34.5t35.5 87.5t-35.5 88.5t-118.5 35.5zM342 72q83 0 129 33t46 96q0 62 -45.5 94.5t-129.5 32.5q-85 0 -130.5 -32.5t-45.5 -94.5q0 -63 46.5 -96t129.5 -33z" />
    <glyph glyph-name="nine" unicode="9" horiz-adv-x="709" 
d="M358 738q130 0 203 -66t73 -178v-216q0 -59 -16 -109.5t-49.5 -92t-90.5 -65.5t-132 -24q-70 0 -122.5 20.5t-82.5 55.5t-46 74t-20 85h95q7 -67 49.5 -108.5t126.5 -41.5q90 0 142.5 52t52.5 151v61q-63 -85 -194 -85q-113 0 -188.5 62.5t-75.5 165.5v30q0 102 73 165.5
t202 63.5zM538 481v25q0 69 -46.5 108.5t-133.5 39.5q-86 0 -132.5 -39.5t-46.5 -108.5v-25q0 -68 46.5 -107t131.5 -39q86 0 133.5 39.5t47.5 106.5z" />
    <glyph glyph-name="colon" unicode=":" horiz-adv-x="240" 
d="M68 386v114h108v-114h-108zM68 0v114h108v-114h-108z" />
    <glyph glyph-name="semicolon" unicode=";" horiz-adv-x="267" 
d="M96 388v114h108v-114h-108zM89 104h107l-110 -212h-86z" />
    <glyph glyph-name="less" unicode="&#x3c;" horiz-adv-x="848" 
d="M739 696v-95l-550 -234l550 -222v-96l-645 266v107z" />
    <glyph glyph-name="equal" unicode="=" horiz-adv-x="544" 
d="M55 401v83h438v-83h-438zM55 188v83h438v-83h-438z" />
    <glyph glyph-name="greater" unicode="&#x3e;" horiz-adv-x="848" 
d="M94 696l645 -266v-107l-645 -274v95l550 234l-550 222v96z" />
    <glyph glyph-name="question" unicode="?" horiz-adv-x="665" 
d="M256 366h87q84 0 124 38.5t40 102.5q0 65 -40.5 106t-126.5 41q-77 0 -118 -39.5t-52 -121.5h-93q5 48 19.5 88t43.5 77.5t80.5 59t121.5 21.5q128 0 195 -65t67 -166q0 -96 -62 -158.5t-170 -62.5h-21v-91h-95v170zM250 0v114h108v-114h-108z" />
    <glyph glyph-name="at" unicode="@" horiz-adv-x="784" 
d="M406 -198q-162 0 -248.5 76.5t-86.5 222.5v100q0 134 88.5 223t233.5 89q134 0 216.5 -52.5t82.5 -141.5v-319h-83l-3 64q-34 -36 -85.5 -56.5t-107.5 -20.5q-75 0 -124 36t-49 108q0 76 56 114.5t147 45.5l154 12v11q0 61 -57.5 89.5t-146.5 28.5q-106 0 -172 -66.5
t-66 -176.5v-74q0 -125 71 -177.5t200 -52.5h264v-83h-284zM425 69q48 0 96 20t76 50v85l-135 -10q-65 -5 -96 -23.5t-31 -55.5q0 -66 90 -66z" />
    <glyph glyph-name="A" unicode="A" horiz-adv-x="683" 
d="M577 0l-73 193h-325l-73 -193h-93l274 725h109l273 -725h-92zM211 277h261l-130 344z" />
    <glyph glyph-name="B" unicode="B" horiz-adv-x="691" 
d="M363 725q260 0 260 -182q0 -73 -36.5 -108t-99.5 -46q70 -8 112.5 -52t42.5 -127q0 -108 -71.5 -159t-215.5 -51h-260v725h268zM362 643h-170v-213h170q90 0 128 26.5t38 80.5q0 53 -38 79.5t-128 26.5zM367 349h-175v-267h175q96 0 138 33t42 100t-42 100.5t-138 33.5z
" />
    <glyph glyph-name="C" unicode="C" horiz-adv-x="733" 
d="M376 -13q-152 0 -235 89t-83 240v92q0 151 83 240t235 89q140 0 222 -76.5t93 -209.5h-96q-20 201 -219 201q-221 0 -221 -252v-76q0 -252 221 -252q203 0 220 210h96q-9 -137 -91 -216t-225 -79z" />
    <glyph glyph-name="D" unicode="D" horiz-adv-x="723" 
d="M95 0h250q84 0 145.5 22t93.5 53.5t50.5 79t22.5 84t4 84.5v79q0 48 -4 84.5t-22.5 84t-50.5 79t-93.5 53.5t-145.5 22h-250v-725zM192 640h153q55 0 95.5 -13t64 -33.5t37 -52t18 -61.5t4.5 -69v-97q0 -38 -4.5 -68t-18 -61t-37 -52t-64 -34t-95.5 -13h-153v554z" />
    <glyph glyph-name="E" unicode="E" horiz-adv-x="669" 
d="M95 725h518v-88h-421v-217h389v-88h-389v-244h421v-88h-518v725z" />
    <glyph glyph-name="F" unicode="F" horiz-adv-x="635" 
d="M95 725h494v-88h-397v-227h365v-88h-365v-322h-97v725z" />
    <glyph glyph-name="G" unicode="G" horiz-adv-x="762" 
d="M370 -13q-148 0 -230 89.5t-82 239.5v92q0 151 82.5 240t234.5 89q132 0 211.5 -67.5t97.5 -186.5h-97q-33 169 -212 169q-221 0 -221 -252v-76q0 -252 221 -252q104 0 161 55.5t57 157.5v21h-246v84h343v-390h-70l-12 116q-26 -61 -87 -95t-151 -34z" />
    <glyph glyph-name="H" unicode="H" horiz-adv-x="755" 
d="M563 345h-371v-345h-97v725h97v-294h371v294h96v-725h-96v345z" />
    <glyph glyph-name="I" unicode="I" horiz-adv-x="287" 
d="M95 725h97v-725h-97v725z" />
    <glyph glyph-name="J" unicode="J" horiz-adv-x="577" 
d="M271 -13q-116 0 -176 52.5t-60 138.5v63h95v-44q0 -125 142 -125q69 0 103.5 38.5t34.5 125.5v489h96v-497q0 -241 -235 -241z" />
    <glyph glyph-name="K" unicode="K" horiz-adv-x="680" 
d="M547 0l-235 356l-120 -131v-225h-97v725h97v-370l338 370h122l-276 -300l283 -425h-112z" />
    <glyph glyph-name="L" unicode="L" horiz-adv-x="636" 
d="M192 725v-636h420v-89h-517v725h97z" />
    <glyph glyph-name="M" unicode="M" horiz-adv-x="880" 
d="M669 725h115v-725h-96v574l-208 -390h-80l-208 387v-571h-97v725h116l229 -433z" />
    <glyph glyph-name="N" unicode="N" horiz-adv-x="781" 
d="M590 725h96v-725h-112l-382 579v-579h-97v725h113l382 -576v576z" />
    <glyph glyph-name="O" unicode="O" horiz-adv-x="752" 
d="M376 -13q-152 0 -235 89t-83 240v93q0 151 83 240t235 89t235 -89t83 -240v-93q0 -151 -83 -240t-235 -89zM376 72q221 0 221 252v77q0 252 -221 252t-221 -252v-77q0 -252 221 -252z" />
    <glyph glyph-name="P" unicode="P" horiz-adv-x="668" 
d="M95 0h97v280h188q247 0 247 222q0 99 -56 161t-189 62h-287v-725zM372 640q82 0 120 -34.5t38 -103.5t-38.5 -103.5t-121.5 -34.5h-178v276h180z" />
    <glyph glyph-name="Q" unicode="Q" horiz-adv-x="752" 
d="M694 409v-93q0 -142 -72 -227l62 -65l-65 -60l-64 67q-75 -44 -179 -44q-152 0 -235 89t-83 240v93q0 151 83 240t235 89t235 -89t83 -240zM439 281l118 -124q40 62 40 167v77q0 252 -221 252t-221 -252v-77q0 -252 221 -252q68 0 116 25l-117 122z" />
    <glyph glyph-name="R" unicode="R" horiz-adv-x="684" 
d="M629 502q0 -162 -135 -207l132 -295h-102l-122 280h-20h-190v-280h-97v725h289q245 0 245 -223zM372 364q83 0 121.5 34.5t38.5 103.5t-38 103.5t-120 34.5h-182v-276h180z" />
    <glyph glyph-name="S" unicode="S" horiz-adv-x="692" 
d="M340 738q267 0 283 -236h-97q-9 75 -51.5 113t-132.5 38q-92 0 -132.5 -35.5t-40.5 -87.5q0 -40 24 -64t81 -37l165 -39q92 -21 143.5 -66.5t51.5 -129.5q0 -100 -73 -153.5t-202 -53.5q-142 0 -215 63.5t-84 172.5h95q32 -152 206 -152q73 0 124.5 28t51.5 90
q0 48 -32 72.5t-94 38.5l-168 41q-171 40 -171 186q0 95 66.5 153t201.5 58z" />
    <glyph glyph-name="T" unicode="T" horiz-adv-x="627" 
d="M16 725h598v-86h-256v-639h-96v639h-246v86z" />
    <glyph glyph-name="U" unicode="U" horiz-adv-x="742" 
d="M376 -13q-88 0 -149 24t-92 68t-43.5 93.5t-12.5 112.5v440h96v-413q0 -119 44 -179.5t157 -60.5t157 60.5t44 179.5v413h96v-440q0 -63 -12.5 -112.5t-43.5 -93.5t-92 -68t-149 -24z" />
    <glyph glyph-name="V" unicode="V" horiz-adv-x="697" 
d="M576 725h98l-270 -725h-111l-270 725h97l228 -614z" />
    <glyph glyph-name="W" unicode="W" horiz-adv-x="1098" 
d="M973 725h97l-220 -725h-112l-189 581l-189 -581h-112l-220 725h97l177 -596l196 596h103l195 -596z" />
    <glyph glyph-name="X" unicode="X" horiz-adv-x="704" 
d="M675 0h-115l-208 294l-208 -294h-115l266 373l-250 352h115l192 -273l192 273h115l-249 -352z" />
    <glyph glyph-name="Y" unicode="Y" horiz-adv-x="623" 
d="M263 0v249l-255 476h105l198 -376l199 376h105l-255 -476v-249h-97z" />
    <glyph glyph-name="Z" unicode="Z" horiz-adv-x="629" 
d="M153 86h428v-86h-535v93l427 546h-418v86h525v-93z" />
    <glyph glyph-name="bracketleft" unicode="[" horiz-adv-x="314" 
d="M60 916h220v-74h-127v-941h127v-74h-220v1089z" />
    <glyph glyph-name="backslash" unicode="\" horiz-adv-x="451" 
d="M413 0h-97l-348 755h97z" />
    <glyph glyph-name="bracketright" unicode="]" horiz-adv-x="314" 
d="M254 916v-1089h-220v74h127v941h-127v74h220z" />
    <glyph glyph-name="asciicircum" unicode="^" horiz-adv-x="698" 
d="M408 725l218 -469h-75l-195 423l-208 -423h-75l229 469h106z" />
    <glyph glyph-name="underscore" unicode="_" horiz-adv-x="748" 
d="M55 -147h638v83h-638v-83z" />
    <glyph glyph-name="grave" unicode="`" horiz-adv-x="246" 
d="M211 580h-92l-91 175h92z" />
    <glyph glyph-name="a" unicode="a" horiz-adv-x="581" 
d="M229 -13q-75 0 -124 36t-49 108q0 76 56 114.5t147 45.5l162 12v40q0 41 -42.5 65.5t-99.5 24.5q-53 0 -92 -22.5t-46 -67.5h-91q8 71 69.5 120.5t160.5 49.5q100 0 168 -49t68 -115v-349h-83l-4 64q-34 -35 -89 -56t-111 -21zM241 69q49 0 100 20t80 50v85l-143 -10
q-65 -5 -96 -23.5t-31 -55.5q0 -66 90 -66z" />
    <glyph glyph-name="b" unicode="b" horiz-adv-x="618" 
d="M332 513q60 0 106.5 -20.5t72 -54t38.5 -71.5t13 -79v-76q0 -41 -12.5 -79t-38.5 -71.5t-72.5 -54t-108.5 -20.5q-113 0 -168 80l-3 -67h-87v725h96v-290q60 78 164 78zM466 217v66q0 69 -37 109t-112 40t-112 -40t-37 -109v-66q0 -68 37.5 -108.5t111.5 -40.5
t111.5 40.5t37.5 108.5z" />
    <glyph glyph-name="c" unicode="c" horiz-adv-x="583" 
d="M297 -13q-65 0 -114 20.5t-75.5 54t-39.5 71.5t-13 79v76q0 41 13 79t39.5 71.5t75.5 54t114 20.5q113 0 171 -59t66 -141h-96q-17 119 -141 119q-73 0 -109.5 -40t-36.5 -109v-66q0 -68 36.5 -108.5t109.5 -40.5q62 0 97 31t43 86h96q-8 -82 -65.5 -140t-170.5 -58z" />
    <glyph glyph-name="d" unicode="d" horiz-adv-x="618" 
d="M287 -13q-117 0 -174.5 68t-57.5 157v76q0 41 13 79t39 71.5t72 54t105 20.5q107 0 165 -78v290h96v-725h-86l-4 67q-55 -80 -168 -80zM301 68q74 0 111 40.5t37 108.5v66q0 70 -36.5 109.5t-111.5 39.5t-112.5 -40t-37.5 -109v-66q0 -68 37.5 -108.5t112.5 -40.5z" />
    <glyph glyph-name="e" unicode="e" horiz-adv-x="592" 
d="M537 287v-74h-390q1 -68 39 -108t113 -40q103 0 136 80h98q-20 -68 -76.5 -113t-157.5 -45q-65 0 -114 20t-76.5 54t-40.5 72t-13 79v76q0 41 13 79t40.5 71.5t76.5 54t114 20.5t113 -20t74 -53.5t38.5 -71.5t12.5 -81zM147 287h298q0 148 -146 148q-74 0 -112.5 -39.5
t-39.5 -108.5z" />
    <glyph glyph-name="f" unicode="f" horiz-adv-x="353" 
d="M284 644q-77 0 -77 -96v-48h124v-83h-124v-417h-96v417h-99v83h99v46q0 179 165 179h69v-81h-61z" />
    <glyph glyph-name="g" unicode="g" horiz-adv-x="618" 
d="M313 -245q-239 0 -245 205h90q5 -69 45 -98t110 -29q68 0 105 40.5t37 110.5v81q-61 -78 -170 -78q-115 0 -172.5 68t-57.5 157v76q0 41 12.5 79t38.5 71.5t73 54t108 20.5q113 0 168 -80l4 67h86v-510q0 -45 -10 -83t-34 -74t-72 -57t-116 -21zM301 68q75 0 111.5 39.5
t36.5 109.5v66q0 68 -37 108.5t-111 40.5q-75 0 -112.5 -40.5t-37.5 -108.5v-66q0 -69 37.5 -109t112.5 -40z" />
    <glyph glyph-name="h" unicode="h" horiz-adv-x="617" 
d="M72 0v725h95v-297q57 85 175 85q102 0 157 -59t55 -147v-307h-95v289q0 143 -139 143q-74 0 -113.5 -40.5t-39.5 -112.5v-279h-95z" />
    <glyph glyph-name="i" unicode="i" horiz-adv-x="246" 
d="M177 725v-114h-108v114h108zM170 500v-500h-95v500h95z" />
    <glyph glyph-name="j" unicode="j" horiz-adv-x="251" 
d="M181 725v-115h-104v115h104zM-22 -232v81h33q71 0 71 96v555h95v-553q0 -95 -40.5 -137t-119.5 -42h-39z" />
    <glyph glyph-name="k" unicode="k" horiz-adv-x="537" 
d="M400 0l-161 238l-72 -70v-168h-95v725h95v-440l221 215h121l-202 -196l206 -304h-113z" />
    <glyph glyph-name="l" unicode="l" horiz-adv-x="240" 
d="M72 0v725h95v-725h-95z" />
    <glyph glyph-name="m" unicode="m" horiz-adv-x="942" 
d="M684 513q93 0 144 -59.5t51 -146.5v-307h-95v289q0 143 -123 143q-67 0 -102.5 -40.5t-35.5 -112.5v-279h-95v289q0 143 -122 143q-67 0 -103 -40.5t-36 -112.5v-279h-95v500h92l1 -77q51 90 163 90q64 0 108.5 -29t66.5 -78q53 107 181 107z" />
    <glyph glyph-name="n" unicode="n" horiz-adv-x="617" 
d="M342 513q102 0 157 -59t55 -147v-307h-95v289q0 143 -139 143q-74 0 -113.5 -40.5t-39.5 -112.5v-279h-95v500h92l1 -77q56 90 177 90z" />
    <glyph glyph-name="o" unicode="o" horiz-adv-x="601" 
d="M300 -13q-65 0 -114.5 20.5t-77 54t-40.5 71.5t-13 79v76q0 41 13 79t40.5 71.5t77 54t114.5 20.5q66 0 115 -20.5t76.5 -54t40.5 -71.5t13 -79v-76q0 -41 -13 -79t-40.5 -71.5t-76.5 -54t-115 -20.5zM300 68q75 0 112 40t37 109v66q0 69 -37 109t-112 40t-112 -40
t-37 -109v-66q0 -69 37 -109t112 -40z" />
    <glyph glyph-name="p" unicode="p" horiz-adv-x="618" 
d="M72 -232v732h87l3 -67q55 80 168 80q62 0 108.5 -20.5t72.5 -54t38.5 -71.5t12.5 -79v-76q0 -41 -13 -79t-38.5 -71.5t-72 -54t-106.5 -20.5q-104 0 -164 78v-297h-96zM317 68q75 0 112 40t37 109v66q0 69 -37 109t-112 40t-112 -40t-37 -109v-66q0 -69 37 -109t112 -40z
" />
    <glyph glyph-name="q" unicode="q" horiz-adv-x="618" 
d="M285 -13q-60 0 -106.5 20.5t-72 54t-38.5 71.5t-13 79v76q0 41 12.5 79t39 71.5t73 54t108.5 20.5q112 0 167 -80l4 67h86v-732h-96v297q-58 -78 -164 -78zM151 283v-66q0 -69 37.5 -109t112.5 -40t111.5 39.5t36.5 109.5v66q0 68 -37 108.5t-111 40.5
q-75 0 -112.5 -40.5t-37.5 -108.5z" />
    <glyph glyph-name="r" unicode="r" horiz-adv-x="361" 
d="M72 -1v501h80l1 -84q12 38 46 65t86 27q31 0 56 -3v-85q-42 3 -52 3q-122 0 -122 -123v-301h-95z" />
    <glyph glyph-name="s" unicode="s" horiz-adv-x="533" 
d="M274 -13q-207 0 -226 167h89q18 -89 139 -89q57 0 88.5 18t31.5 51q0 52 -82 65l-113 18q-63 10 -100.5 44t-37.5 93q0 70 53 114.5t150 44.5q95 0 147.5 -45t61.5 -122h-89q-15 87 -122 87q-51 0 -81.5 -19t-30.5 -56q0 -50 73 -61l118 -17q143 -21 143 -143
q0 -78 -59 -114t-153 -36z" />
    <glyph glyph-name="t" unicode="t" horiz-adv-x="407" 
d="M386 500v-82h-135v-418h-94v418h-136v82h136v129h94v-129h135z" />
    <glyph glyph-name="u" unicode="u" horiz-adv-x="617" 
d="M277 -13q-102 0 -157 59t-55 147v307h95v-289q0 -143 140 -143q73 0 112.5 40.5t39.5 112.5v279h95v-500h-91l-2 77q-54 -90 -177 -90z" />
    <glyph glyph-name="v" unicode="v" horiz-adv-x="503" 
d="M497 500l-189 -500h-106l-197 500h96l152 -391l149 391h95z" />
    <glyph glyph-name="w" unicode="w" horiz-adv-x="757" 
d="M650 500h92l-143 -500h-101l-119 359l-120 -359h-101l-143 500h92l102 -385l121 385h97l121 -385z" />
    <glyph glyph-name="x" unicode="x" horiz-adv-x="533" 
d="M20 0l190 256l-181 244h112l126 -168l125 168h112l-182 -243l192 -257h-112l-135 181l-136 -181h-111z" />
    <glyph glyph-name="y" unicode="y" horiz-adv-x="560" 
d="M446 500h99l-302 -732h-99l103 249l-232 483h108l170 -370z" />
    <glyph glyph-name="z" unicode="z" horiz-adv-x="505" 
d="M61 417h283l-287 -331v-86h404v83h-288l287 331v86h-399v-83z" />
    <glyph glyph-name="braceleft" unicode="{" horiz-adv-x="379" 
d="M256 -210q-81 0 -112.5 46t-31.5 150v162q0 45 -23.5 69.5t-63.5 41.5v52q40 17 63.5 41.5t23.5 69.5v150q0 105 31 150.5t113 45.5h81v-74h-51q-50 0 -67 -31.5t-17 -106.5v-137q0 -99 -90 -134q90 -35 90 -134v-149q0 -75 17 -106.5t67 -31.5h51v-74h-81z" />
    <glyph glyph-name="bar" unicode="|" horiz-adv-x="210" 
d="M143 798v-1044h-76v1044h76z" />
    <glyph glyph-name="braceright" unicode="}" horiz-adv-x="379" 
d="M106 -210h-81v74h51q50 0 67 31.5t17 106.5v149q0 99 90 134q-90 35 -90 134v137q0 75 -17 106.5t-67 31.5h-51v74h81q82 0 113 -45.5t31 -150.5v-150q0 -45 23.5 -69.5t63.5 -41.5v-52q-40 -17 -63.5 -41.5t-23.5 -69.5v-162q0 -104 -31.5 -150t-112.5 -46z" />
    <glyph glyph-name="asciitilde" unicode="~" horiz-adv-x="673" 
d="M465 214q-59 0 -142.5 39t-128.5 39q-65 0 -66 -77h-83q3 83 44 124t104 41q44 0 91.5 -20t88 -40.5t69.5 -20.5q76 0 82 83h86q0 -73 -38.5 -120.5t-106.5 -47.5z" />
    <glyph glyph-name="exclamdown" unicode="&#xa1;" horiz-adv-x="264" 
d="M92 747h108v-114h-108v114zM121 543h51l23 -268v-253h-98v253z" />
    <glyph glyph-name="cent" unicode="&#xa2;" horiz-adv-x="583" 
d="M320 69q102 12 117 116h96q-8 -77 -60 -134t-153 -63v-65h-55v65q-108 10 -159 75t-51 149v76q0 84 51 149t159 75v71h55v-71q53 -3 94 -21.5t65.5 -47.5t37.5 -61.5t17 -68.5h-96q-15 106 -118 118v-362zM151 217q0 -60 28.5 -99t85.5 -48v360q-114 -17 -114 -147v-66z
" />
    <glyph glyph-name="sterling" unicode="&#xa3;" horiz-adv-x="623" 
d="M341 227q0 -48 -17.5 -79t-60.5 -65h310v-83h-498v83h82q48 37 70 67t22 69q0 32 -26 73h-119v64h71q-1 2 -14.5 18t-15.5 18t-12.5 16t-12.5 18t-9 16.5t-9 19.5t-5.5 18.5t-4.5 23t-1 23.5q0 92 63 151.5t183 59.5q122 0 181 -62.5t61 -168.5h-89q-4 66 -41.5 106
t-113.5 40q-75 0 -111 -36.5t-36 -87.5q0 -20 5 -38t16.5 -37t21 -31t28 -34t27.5 -33h208v-64h-166q13 -30 13 -65z" />
    <glyph glyph-name="currency" unicode="&#xa4;" horiz-adv-x="635" 
d="M539 351q0 -68 -40 -126l66 -60l-61 -61l-61 65q-58 -40 -126 -40q-70 0 -127 41l-60 -66l-61 61l66 61q-39 56 -39 125q0 70 40 125l-67 62l61 62l61 -69q57 41 126 41q71 0 126 -40l62 68l60 -61l-67 -63q41 -59 41 -125zM317 209q59 0 100 41.5t41 100.5t-41 100.5
t-100 41.5t-100 -41.5t-41 -100.5t41 -100.5t100 -41.5z" />
    <glyph glyph-name="yen" unicode="&#xa5;" horiz-adv-x="643" 
d="M617 725l-217 -405h150v-72h-188v-71h188v-72h-188v-105h-97v105h-187v72h187v71h-187v72h149l-217 405h105l198 -376l199 376h105z" />
    <glyph glyph-name="brokenbar" unicode="&#xa6;" horiz-adv-x="210" 
d="M143 798v-435h-76v435h76zM143 189v-435h-76v435h76z" />
    <glyph glyph-name="section" unicode="&#xa7;" horiz-adv-x="682" 
d="M602 215q0 -89 -86 -140q43 -44 43 -120q0 -89 -58 -144t-169 -55q-124 0 -183 62t-65 168h96q8 -73 42 -109.5t108 -36.5q67 0 100 32.5t33 80.5q0 39 -22.5 62t-84.5 45l-93 33q-90 32 -139 74t-49 117q0 87 81 137q-44 47 -44 126q0 89 57.5 144t168.5 55
q124 0 184.5 -62t66.5 -169h-97q-8 72 -42.5 109t-108.5 37q-67 0 -100 -32.5t-33 -80.5q0 -40 22.5 -64.5t84.5 -44.5l99 -32q88 -29 138 -72.5t50 -119.5zM291 183l96 -34q35 -13 63 -27q56 30 56 83q0 44 -29.5 67.5t-89.5 43.5l-103 34q-36 13 -61 25q-51 -27 -51 -80
q0 -44 29 -67t90 -45z" />
    <glyph glyph-name="dieresis" unicode="&#xa8;" horiz-adv-x="401" 
d="M133 691v-105h-103v105h103zM371 691v-105h-103v105h103z" />
    <glyph glyph-name="copyright" unicode="&#xa9;" horiz-adv-x="877" 
d="M438 -19q-176 0 -284.5 107t-108.5 286q0 178 109 286t284 108t284.5 -108t109.5 -286q0 -179 -109 -286t-285 -107zM438 53q145 0 233.5 86.5t88.5 234.5t-88.5 235t-233.5 87t-233.5 -86.5t-88.5 -235.5q0 -148 88 -234.5t234 -86.5zM438 138q-62 0 -107.5 19t-69 50.5
t-34.5 65t-11 69.5v76q0 36 11 69.5t34.5 65t69 50.5t107.5 19q57 0 100 -16.5t66.5 -44.5t35.5 -57.5t14 -63.5h-84q-6 51 -38.5 82t-93.5 31q-67 0 -103.5 -38.5t-36.5 -97.5v-71q0 -59 36.5 -98.5t103.5 -39.5q58 0 91.5 32t40.5 80h84q-5 -74 -56 -128t-160 -54z" />
    <glyph glyph-name="ordfeminine" unicode="&#xaa;" horiz-adv-x="436" 
d="M180 290q-56 0 -92.5 26t-36.5 77q0 105 152 116l120 9v27q0 29 -31.5 45.5t-73.5 16.5q-39 0 -68 -15.5t-34 -46.5h-70q6 52 52 87.5t121 35.5q76 0 126.5 -35t50.5 -83v-251h-64l-2 44q-56 -53 -150 -53zM189 352q36 0 74 14t60 35v57l-106 -7q-93 -6 -93 -54
q0 -45 65 -45z" />
    <glyph glyph-name="guillemotleft" unicode="&#xab;" horiz-adv-x="512" 
d="M196 76l-131 173l131 173h68l-115 -173l115 -173h-68zM371 76l-131 173l131 173h68l-115 -173l115 -173h-68z" />
    <glyph glyph-name="logicalnot" unicode="&#xac;" horiz-adv-x="571" 
d="M511 499v-235h-77v159h-384v76h461z" />
    <glyph glyph-name="registered" unicode="&#xae;" horiz-adv-x="853" 
d="M438 768q164 0 279 -113.5t115 -280.5q0 -168 -115 -280.5t-279 -112.5q-165 0 -279 112.5t-114 280.5t114 281t279 113zM438 53q134 0 228 92t94 229q0 138 -94 230t-228 92t-228 -92t-94 -230q0 -137 94 -229t228 -92zM613 476q0 -109 -85 -135l86 -197h-76l-80 188
h-104v-188h-68v472h159q168 0 168 -140zM354 397h86q54 0 78 19t24 60q0 40 -23.5 58.5t-75.5 18.5h-89v-156z" />
    <glyph glyph-name="macron" unicode="&#xaf;" horiz-adv-x="479" 
d="M64 664h351v-78h-351v78z" />
    <glyph glyph-name="degree" unicode="&#xb0;" horiz-adv-x="420" 
d="M55 545q0 -65 45.5 -110t109.5 -45t109.5 45t45.5 110t-45.5 110t-109.5 45t-109.5 -45t-45.5 -110zM113 545q0 41 28.5 69t68.5 28t68.5 -28t28.5 -69t-28.5 -69t-68.5 -28t-68.5 28t-28.5 69z" />
    <glyph glyph-name="plusminus" unicode="&#xb1;" horiz-adv-x="553" 
d="M318 670v-179h178v-84h-178v-183h-84v183h-176v84h176v179h84zM55 56v84h438v-84h-438z" />
    <glyph glyph-name="uni00B2" unicode="&#xb2;" horiz-adv-x="299" 
d="M117 50h157v-50h-240l-1 42l126 109q43 37 51 53q8 14 8 29q0 24 -15 41.5t-50 17.5q-65 0 -74 -66h-54q6 48 37 80.5t93 32.5q58 0 88 -31t30 -74q0 -34 -18.5 -60t-59.5 -59z" />
    <glyph glyph-name="uni00B3" unicode="&#xb3;" horiz-adv-x="337" 
d="M198 210q43 0 73 -25.5t30 -66.5v-24q0 -45 -35 -72.5t-92 -27.5q-62 0 -98.5 30.5t-39.5 78.5h55q12 -60 80 -62q33 0 54 16t21 43v13q0 24 -19 39t-53 15h-54v45l91 75h-170v48h245v-48l-95 -77h7z" />
    <glyph glyph-name="acute" unicode="&#xb4;" horiz-adv-x="239" 
d="M56 580l91 175h92l-91 -175h-92z" />
    <glyph glyph-name="uni00B5" unicode="&#xb5;" horiz-adv-x="622" 
d="M452 500h95v-500h-91l-2 77q-54 -90 -177 -90q-66 0 -118 29v-262h-95v746h96v-289q0 -143 140 -143q73 0 112.5 40.5t39.5 112.5v279z" />
    <glyph glyph-name="paragraph" unicode="&#xb6;" horiz-adv-x="783" 
d="M721 724v-94h-80v-785h-95v785h-180v-785h-95v494q-93 0 -147 55.5t-54 139.5q0 81 53.5 135.5t145.5 54.5h452z" />
    <glyph glyph-name="periodcentered" unicode="&#xb7;" horiz-adv-x="751" 
d="M413 386v-106h-95v106h95z" />
    <glyph glyph-name="cedilla" unicode="&#xb8;" horiz-adv-x="231" 
d="M16 -246v64h85q27 0 38.5 6.5t11.5 27.5t-11.5 28t-38.5 7h-75v113h63v-49h17q105 0 105 -99q0 -98 -105 -98h-90z" />
    <glyph glyph-name="uni00B9" unicode="&#xb9;" horiz-adv-x="218" 
d="M39 334h127v-334h-54v279h-73v55z" />
    <glyph glyph-name="ordmasculine" unicode="&#xba;" horiz-adv-x="451" 
d="M225 292q-94 0 -139 49t-45 113v55q0 64 45 112.5t139 48.5q95 0 140 -48.5t45 -112.5v-55q0 -64 -45 -113t-140 -49zM225 354q55 0 83 28t28 75v49q0 48 -28 75.5t-83 27.5t-82.5 -27.5t-27.5 -75.5v-49q0 -47 27.5 -75t82.5 -28z" />
    <glyph glyph-name="guillemotright" unicode="&#xbb;" horiz-adv-x="512" 
d="M140 76h-68l115 173l-115 173h68l131 -173zM315 76h-68l115 173l-115 173h68l131 -173z" />
    <glyph glyph-name="onequarter" unicode="&#xbc;" horiz-adv-x="736" 
d="M561 725h60l-474 -725h-60zM153 390v279h-73v55h127v-334h-54zM657 111v-42h-43v-69h-54v69h-170v47l168 217h56v-222h43zM445 111h115v152z" />
    <glyph glyph-name="onehalf" unicode="&#xbd;" horiz-adv-x="759" 
d="M560 725h60l-474 -725h-60zM154 390v279h-73v55h127v-334h-54zM522 50h157v-50h-240l-1 42l126 109q43 37 51 53q8 14 8 29q0 24 -15 41.5t-50 17.5q-65 0 -74 -66h-54q6 48 37 80.5t93 32.5q58 0 88 -31t30 -74q0 -34 -18.5 -60t-59.5 -59z" />
    <glyph glyph-name="threequarters" unicode="&#xbe;" horiz-adv-x="833" 
d="M345 485q0 -45 -35 -72.5t-92 -27.5q-62 0 -98.5 30.5t-39.5 78.5h55q12 -60 80 -62q33 0 54 16t21 43v13q0 24 -19 39t-53 15h-54v45l91 75h-170v48h245v-48l-95 -77h7q43 0 73 -25.5t30 -66.5v-24zM662 725h60l-474 -725h-60zM754 111v-42h-43v-69h-54v69h-170v47
l168 217h56v-222h43zM542 111h115v152z" />
    <glyph glyph-name="questiondown" unicode="&#xbf;" horiz-adv-x="658" 
d="M428 725v-114h-108v114h108zM422 359h-87q-84 0 -124 -38.5t-40 -102.5q0 -65 40.5 -106t126.5 -41q77 0 118 39.5t52 121.5h93q-5 -48 -19.5 -88t-43.5 -77.5t-80.5 -59t-121.5 -21.5q-128 0 -195 65t-67 166q0 96 62 158.5t170 62.5h21v91h95v-170z" />
    <glyph glyph-name="Agrave" unicode="&#xc0;" horiz-adv-x="683" 
d="M396 795h-84l-105 175h99zM577 0l-73 193h-325l-73 -193h-93l274 725h109l273 -725h-92zM211 277h261l-130 344z" />
    <glyph glyph-name="Aacute" unicode="&#xc1;" horiz-adv-x="683" 
d="M466 970l-105 -175h-84l90 175h99zM577 0l-73 193h-325l-73 -193h-93l274 725h109l273 -725h-92zM211 277h261l-130 344z" />
    <glyph glyph-name="Acircumflex" unicode="&#xc2;" horiz-adv-x="683" 
d="M341 903l-62 -108h-87l109 175h80l109 -175h-87zM577 0l-73 193h-325l-73 -193h-93l274 725h109l273 -725h-92zM211 277h261l-130 344z" />
    <glyph glyph-name="Atilde" unicode="&#xc3;" horiz-adv-x="683" 
d="M262 836q-48 0 -87 -46l-34 50q45 72 117 72q36 0 80 -24.5t69 -24.5q52 0 89 47l43 -47q-16 -28 -47 -49t-75 -21q-43 0 -89 21.5t-66 21.5zM577 0l-73 193h-325l-73 -193h-93l274 725h109l273 -725h-92zM211 277h261l-130 344z" />
    <glyph glyph-name="Adieresis" unicode="&#xc4;" horiz-adv-x="683" 
d="M282 916v-105h-102v105h102zM503 916v-105h-102v105h102zM577 0l-73 193h-325l-73 -193h-93l274 725h109l273 -725h-92zM211 277h261l-130 344z" />
    <glyph glyph-name="Aring" unicode="&#xc5;" horiz-adv-x="683" 
d="M341 783q-41 0 -69 28.5t-28 68.5t28.5 68.5t68.5 28.5t69 -28.5t29 -68.5t-28.5 -68.5t-69.5 -28.5zM341 929q-20 0 -34.5 -14t-14.5 -35q0 -20 14.5 -34.5t34.5 -14.5q21 0 35 14.5t14 34.5q0 21 -14 35t-35 14zM577 0l-73 193h-325l-73 -193h-93l274 725h109l273 -725
h-92zM211 277h261l-130 344z" />
    <glyph glyph-name="AE" unicode="&#xc6;" horiz-adv-x="1097" 
d="M1040 637h-421v-217h389v-88h-389v-244h421v-88h-518v193h-294l-110 -193h-108l414 725h616v-88zM276 277h246v360h-41z" />
    <glyph glyph-name="Ccedilla" unicode="&#xc7;" horiz-adv-x="733" 
d="M692 282q-9 -131 -85 -209.5t-209 -84.5v-37h17q105 0 105 -99q0 -98 -105 -98h-90v64h85q27 0 38.5 6.5t11.5 27.5t-11.5 28t-38.5 7h-75v102q-134 12 -205.5 99t-71.5 228v92q0 151 83 240t235 89q140 0 222 -76.5t93 -209.5h-96q-20 201 -219 201q-221 0 -221 -252
v-76q0 -252 221 -252q203 0 220 210h96z" />
    <glyph glyph-name="Egrave" unicode="&#xc8;" horiz-adv-x="669" 
d="M300 970l90 -175h-84l-105 175h99zM95 725h518v-88h-421v-217h389v-88h-389v-244h421v-88h-518v725z" />
    <glyph glyph-name="Eacute" unicode="&#xc9;" horiz-adv-x="669" 
d="M361 970h99l-105 -175h-84zM95 725h518v-88h-421v-217h389v-88h-389v-244h421v-88h-518v725z" />
    <glyph glyph-name="Ecircumflex" unicode="&#xca;" horiz-adv-x="669" 
d="M273 795h-87l109 175h80l109 -175h-87l-62 108zM95 725h518v-88h-421v-217h389v-88h-389v-244h421v-88h-518v725z" />
    <glyph glyph-name="Edieresis" unicode="&#xcb;" horiz-adv-x="669" 
d="M276 916v-105h-102v105h102zM497 916v-105h-102v105h102zM95 725h518v-88h-421v-217h389v-88h-389v-244h421v-88h-518v725z" />
    <glyph glyph-name="Igrave" unicode="&#xcc;" horiz-adv-x="287" 
d="M109 970l90 -175h-84l-105 175h99zM95 725h97v-725h-97v725z" />
    <glyph glyph-name="Iacute" unicode="&#xcd;" horiz-adv-x="287" 
d="M170 970h99l-105 -175h-84zM95 725h97v-725h-97v725z" />
    <glyph glyph-name="Icircumflex" unicode="&#xce;" horiz-adv-x="287" 
d="M82 795h-87l109 175h80l109 -175h-87l-62 108zM95 725h97v-725h-97v725z" />
    <glyph glyph-name="Idieresis" unicode="&#xcf;" horiz-adv-x="287" 
d="M85 916v-105h-102v105h102zM306 916v-105h-102v105h102zM95 725h97v-725h-97v725z" />
    <glyph glyph-name="Eth" unicode="&#xd0;" horiz-adv-x="771" 
d="M389 725q84 0 145.5 -22t93.5 -53.5t50.5 -79t22.5 -84t4 -84.5v-79q0 -48 -4 -84.5t-22.5 -84t-50.5 -79t-93.5 -53.5t-145.5 -22h-250v338h-128v83h128v304h250zM608 314v97q0 39 -4.5 69t-18 61.5t-37 52t-64 33.5t-95.5 13h-153v-219h159v-83h-159v-252h153
q55 0 95.5 13t64 34t37 52t18 61t4.5 68z" />
    <glyph glyph-name="Ntilde" unicode="&#xd1;" horiz-adv-x="781" 
d="M312 836q-48 0 -87 -46l-34 50q45 72 117 72q36 0 80 -24.5t69 -24.5q52 0 89 47l43 -47q-16 -28 -47 -49t-75 -21q-43 0 -89 21.5t-66 21.5zM590 725h96v-725h-112l-382 579v-579h-97v725h113l382 -576v576z" />
    <glyph glyph-name="Ograve" unicode="&#xd2;" horiz-adv-x="752" 
d="M341 970l90 -175h-84l-105 175h99zM376 -13q-152 0 -235 89t-83 240v93q0 151 83 240t235 89t235 -89t83 -240v-93q0 -151 -83 -240t-235 -89zM376 72q221 0 221 252v77q0 252 -221 252t-221 -252v-77q0 -252 221 -252z" />
    <glyph glyph-name="Oacute" unicode="&#xd3;" horiz-adv-x="752" 
d="M402 970h99l-105 -175h-84zM376 -13q-152 0 -235 89t-83 240v93q0 151 83 240t235 89t235 -89t83 -240v-93q0 -151 -83 -240t-235 -89zM376 72q221 0 221 252v77q0 252 -221 252t-221 -252v-77q0 -252 221 -252z" />
    <glyph glyph-name="Ocircumflex" unicode="&#xd4;" horiz-adv-x="752" 
d="M314 795h-87l109 175h80l109 -175h-87l-62 108zM376 -13q-152 0 -235 89t-83 240v93q0 151 83 240t235 89t235 -89t83 -240v-93q0 -151 -83 -240t-235 -89zM376 72q221 0 221 252v77q0 252 -221 252t-221 -252v-77q0 -252 221 -252z" />
    <glyph glyph-name="Otilde" unicode="&#xd5;" horiz-adv-x="752" 
d="M210 790l-34 50q45 72 117 72q36 0 80 -24.5t69 -24.5q52 0 89 47l43 -47q-16 -28 -47 -49t-75 -21t-90 21.5t-65 21.5q-48 0 -87 -46zM376 -13q-152 0 -235 89t-83 240v93q0 151 83 240t235 89t235 -89t83 -240v-93q0 -151 -83 -240t-235 -89zM376 72q221 0 221 252v77
q0 252 -221 252t-221 -252v-77q0 -252 221 -252z" />
    <glyph glyph-name="Odieresis" unicode="&#xd6;" horiz-adv-x="752" 
d="M317 916v-105h-102v105h102zM538 916v-105h-102v105h102zM376 -13q-152 0 -235 89t-83 240v93q0 151 83 240t235 89t235 -89t83 -240v-93q0 -151 -83 -240t-235 -89zM376 72q221 0 221 252v77q0 252 -221 252t-221 -252v-77q0 -252 221 -252z" />
    <glyph glyph-name="multiply" unicode="&#xd7;" horiz-adv-x="534" 
d="M402 133l-136 138l-134 -137l-59 59l134 138l-134 138l59 59l134 -138l136 139l59 -59l-136 -139l136 -139z" />
    <glyph glyph-name="Oslash" unicode="&#xd8;" horiz-adv-x="759" 
d="M620 647q81 -89 81 -238v-93q0 -151 -83 -240t-235 -89q-118 0 -197 56l-31 -43h-97l71 99q-64 85 -64 217v93q0 151 83 240t235 89q100 0 174 -41l21 28h97zM162 401v-77q0 -86 26 -142l318 442q-49 29 -123 29q-221 0 -221 -252zM604 324v77q0 105 -40 167l-325 -453
q54 -43 144 -43q221 0 221 252z" />
    <glyph glyph-name="Ugrave" unicode="&#xd9;" horiz-adv-x="742" 
d="M336 970l90 -175h-84l-105 175h99zM376 -13q-88 0 -149 24t-92 68t-43.5 93.5t-12.5 112.5v440h96v-413q0 -119 44 -179.5t157 -60.5t157 60.5t44 179.5v413h96v-440q0 -63 -12.5 -112.5t-43.5 -93.5t-92 -68t-149 -24z" />
    <glyph glyph-name="Uacute" unicode="&#xda;" horiz-adv-x="742" 
d="M397 970h99l-105 -175h-84zM376 -13q-88 0 -149 24t-92 68t-43.5 93.5t-12.5 112.5v440h96v-413q0 -119 44 -179.5t157 -60.5t157 60.5t44 179.5v413h96v-440q0 -63 -12.5 -112.5t-43.5 -93.5t-92 -68t-149 -24z" />
    <glyph glyph-name="Ucircumflex" unicode="&#xdb;" horiz-adv-x="742" 
d="M309 795h-87l109 175h80l109 -175h-87l-62 108zM376 -13q-88 0 -149 24t-92 68t-43.5 93.5t-12.5 112.5v440h96v-413q0 -119 44 -179.5t157 -60.5t157 60.5t44 179.5v413h96v-440q0 -63 -12.5 -112.5t-43.5 -93.5t-92 -68t-149 -24z" />
    <glyph glyph-name="Udieresis" unicode="&#xdc;" horiz-adv-x="742" 
d="M312 916v-105h-102v105h102zM533 916v-105h-102v105h102zM376 -13q-88 0 -149 24t-92 68t-43.5 93.5t-12.5 112.5v440h96v-413q0 -119 44 -179.5t157 -60.5t157 60.5t44 179.5v413h96v-440q0 -63 -12.5 -112.5t-43.5 -93.5t-92 -68t-149 -24z" />
    <glyph glyph-name="Yacute" unicode="&#xdd;" horiz-adv-x="623" 
d="M338 970h99l-105 -175h-84zM263 0v249l-255 476h105l198 -376l199 376h105l-255 -476v-249h-97z" />
    <glyph glyph-name="Thorn" unicode="&#xde;" horiz-adv-x="660" 
d="M90 0v755h97v-138h175q133 0 189 -62t56 -161q0 -222 -247 -222h-173v-172h-97zM187 256h163q83 0 121.5 34.5t38.5 103.5t-38 103.5t-120 34.5h-165v-276z" />
    <glyph glyph-name="germandbls" unicode="&#xdf;" horiz-adv-x="632" 
d="M453 387q49 -9 91 -53.5t42 -124.5q0 -100 -62 -162t-176 -62q-52 0 -99 14v91q53 -20 99 -20q66 0 103.5 37.5t37.5 102.5q0 58 -39 94t-125 36h-59v87h53q75 0 108 38t33 91q0 55 -34.5 91t-112.5 36q-74 0 -102.5 -48t-28.5 -129v-506h-96v523q0 245 218 245
q128 0 190.5 -58.5t62.5 -151.5q0 -61 -28.5 -105.5t-75.5 -65.5z" />
    <glyph glyph-name="agrave" unicode="&#xe0;" horiz-adv-x="581" 
d="M255 745l90 -175h-84l-105 175h99zM229 -13q-75 0 -124 36t-49 108q0 76 56 114.5t147 45.5l162 12v40q0 41 -42.5 65.5t-99.5 24.5q-53 0 -92 -22.5t-46 -67.5h-91q8 71 69.5 120.5t160.5 49.5q100 0 168 -49t68 -115v-349h-83l-4 64q-34 -35 -89 -56t-111 -21zM241 69
q49 0 100 20t80 50v85l-143 -10q-65 -5 -96 -23.5t-31 -55.5q0 -66 90 -66z" />
    <glyph glyph-name="aacute" unicode="&#xe1;" horiz-adv-x="581" 
d="M316 745h99l-105 -175h-84zM229 -13q-75 0 -124 36t-49 108q0 76 56 114.5t147 45.5l162 12v40q0 41 -42.5 65.5t-99.5 24.5q-53 0 -92 -22.5t-46 -67.5h-91q8 71 69.5 120.5t160.5 49.5q100 0 168 -49t68 -115v-349h-83l-4 64q-34 -35 -89 -56t-111 -21zM241 69
q49 0 100 20t80 50v85l-143 -10q-65 -5 -96 -23.5t-31 -55.5q0 -66 90 -66z" />
    <glyph glyph-name="acircumflex" unicode="&#xe2;" horiz-adv-x="581" 
d="M228 570h-87l109 175h80l109 -175h-87l-62 108zM229 -13q-75 0 -124 36t-49 108q0 76 56 114.5t147 45.5l162 12v40q0 41 -42.5 65.5t-99.5 24.5q-53 0 -92 -22.5t-46 -67.5h-91q8 71 69.5 120.5t160.5 49.5q100 0 168 -49t68 -115v-349h-83l-4 64q-34 -35 -89 -56
t-111 -21zM241 69q49 0 100 20t80 50v85l-143 -10q-65 -5 -96 -23.5t-31 -55.5q0 -66 90 -66z" />
    <glyph glyph-name="atilde" unicode="&#xe3;" horiz-adv-x="581" 
d="M124 565l-34 50q45 72 117 72q36 0 80 -24.5t69 -24.5q52 0 89 47l43 -47q-16 -28 -47 -49t-75 -21t-90 21.5t-65 21.5q-48 0 -87 -46zM229 -13q-75 0 -124 36t-49 108q0 76 56 114.5t147 45.5l162 12v40q0 41 -42.5 65.5t-99.5 24.5q-53 0 -92 -22.5t-46 -67.5h-91
q8 71 69.5 120.5t160.5 49.5q100 0 168 -49t68 -115v-349h-83l-4 64q-34 -35 -89 -56t-111 -21zM241 69q49 0 100 20t80 50v85l-143 -10q-65 -5 -96 -23.5t-31 -55.5q0 -66 90 -66z" />
    <glyph glyph-name="adieresis" unicode="&#xe4;" horiz-adv-x="581" 
d="M231 691v-105h-102v105h102zM452 691v-105h-102v105h102zM229 -13q-75 0 -124 36t-49 108q0 76 56 114.5t147 45.5l162 12v40q0 41 -42.5 65.5t-99.5 24.5q-53 0 -92 -22.5t-46 -67.5h-91q8 71 69.5 120.5t160.5 49.5q100 0 168 -49t68 -115v-349h-83l-4 64
q-34 -35 -89 -56t-111 -21zM241 69q49 0 100 20t80 50v85l-143 -10q-65 -5 -96 -23.5t-31 -55.5q0 -66 90 -66z" />
    <glyph glyph-name="aring" unicode="&#xe5;" horiz-adv-x="581" 
d="M193 655q0 40 28.5 68.5t68.5 28.5t69 -28.5t29 -68.5t-28.5 -68.5t-69.5 -28.5q-40 0 -68.5 28t-28.5 69zM241 655q0 -20 14.5 -34.5t34.5 -14.5q21 0 35 14.5t14 34.5q0 21 -14 35t-35 14q-20 0 -34.5 -14t-14.5 -35zM229 -13q-75 0 -124 36t-49 108q0 76 56 114.5
t147 45.5l162 12v40q0 41 -42.5 65.5t-99.5 24.5q-53 0 -92 -22.5t-46 -67.5h-91q8 71 69.5 120.5t160.5 49.5q100 0 168 -49t68 -115v-349h-83l-4 64q-34 -35 -89 -56t-111 -21zM241 69q49 0 100 20t80 50v85l-143 -10q-65 -5 -96 -23.5t-31 -55.5q0 -66 90 -66z" />
    <glyph glyph-name="ae" unicode="&#xe6;" horiz-adv-x="960" 
d="M905 213h-390v-8q3 -65 41 -102.5t111 -37.5q103 0 136 80h98q-20 -68 -76.5 -113t-157.5 -45q-146 0 -209 99q-41 -50 -101.5 -74.5t-124.5 -24.5q-77 0 -126.5 36t-49.5 108q0 77 56 115t147 45l162 12v40q0 41 -42.5 65.5t-99.5 24.5q-53 0 -92 -22.5t-46 -67.5h-91
q8 71 69.5 120.5t160.5 49.5q128 0 197 -74q65 74 190 74q65 0 113 -20t74 -53.5t38.5 -71.5t12.5 -81v-74zM667 435q-70 0 -108 -35t-43 -98v-15h297q0 148 -146 148zM421 155v69l-143 -10q-65 -5 -96 -23.5t-31 -54.5q0 -67 93 -67q51 0 99.5 22t77.5 64z" />
    <glyph glyph-name="ccedilla" unicode="&#xe7;" horiz-adv-x="583" 
d="M297 68q62 0 97 31t43 86h96q-3 -35 -16 -67t-37 -60t-63.5 -47t-90.5 -23v-37h17q105 0 105 -99q0 -98 -105 -98h-90v64h85q27 0 38.5 6.5t11.5 27.5t-11.5 28t-38.5 7h-75v102q-107 10 -157.5 75t-50.5 148v76q0 41 13 79t39.5 71.5t75.5 54t114 20.5q113 0 171 -59
t66 -141h-96q-17 119 -141 119q-73 0 -109.5 -40t-36.5 -109v-66q0 -68 36.5 -108.5t109.5 -40.5z" />
    <glyph glyph-name="egrave" unicode="&#xe8;" horiz-adv-x="592" 
d="M350 570h-84l-105 175h99zM537 287v-74h-390q1 -68 39 -108t113 -40q103 0 136 80h98q-20 -68 -76.5 -113t-157.5 -45q-65 0 -114 20t-76.5 54t-40.5 72t-13 79v76q0 41 13 79t40.5 71.5t76.5 54t114 20.5t113 -20t74 -53.5t38.5 -71.5t12.5 -81zM147 287h298
q0 148 -146 148q-74 0 -112.5 -39.5t-39.5 -108.5z" />
    <glyph glyph-name="eacute" unicode="&#xe9;" horiz-adv-x="592" 
d="M420 745l-105 -175h-84l90 175h99zM537 287v-74h-390q1 -68 39 -108t113 -40q103 0 136 80h98q-20 -68 -76.5 -113t-157.5 -45q-65 0 -114 20t-76.5 54t-40.5 72t-13 79v76q0 41 13 79t40.5 71.5t76.5 54t114 20.5t113 -20t74 -53.5t38.5 -71.5t12.5 -81zM147 287h298
q0 148 -146 148q-74 0 -112.5 -39.5t-39.5 -108.5z" />
    <glyph glyph-name="ecircumflex" unicode="&#xea;" horiz-adv-x="592" 
d="M295 678l-62 -108h-87l109 175h80l109 -175h-87zM537 287v-74h-390q1 -68 39 -108t113 -40q103 0 136 80h98q-20 -68 -76.5 -113t-157.5 -45q-65 0 -114 20t-76.5 54t-40.5 72t-13 79v76q0 41 13 79t40.5 71.5t76.5 54t114 20.5t113 -20t74 -53.5t38.5 -71.5t12.5 -81z
M147 287h298q0 148 -146 148q-74 0 -112.5 -39.5t-39.5 -108.5z" />
    <glyph glyph-name="edieresis" unicode="&#xeb;" horiz-adv-x="592" 
d="M236 691v-105h-102v105h102zM457 691v-105h-102v105h102zM537 287v-74h-390q1 -68 39 -108t113 -40q103 0 136 80h98q-20 -68 -76.5 -113t-157.5 -45q-65 0 -114 20t-76.5 54t-40.5 72t-13 79v76q0 41 13 79t40.5 71.5t76.5 54t114 20.5t113 -20t74 -53.5t38.5 -71.5
t12.5 -81zM147 287h298q0 148 -146 148q-74 0 -112.5 -39.5t-39.5 -108.5z" />
    <glyph glyph-name="igrave" unicode="&#xec;" horiz-adv-x="240" 
d="M85 745l90 -175h-84l-105 175h99zM167 500v-500h-95v500h95z" />
    <glyph glyph-name="iacute" unicode="&#xed;" horiz-adv-x="240" 
d="M146 745h99l-105 -175h-84zM167 500v-500h-95v500h95z" />
    <glyph glyph-name="icircumflex" unicode="&#xee;" horiz-adv-x="240" 
d="M58 570h-87l109 175h80l109 -175h-87l-62 108zM167 500v-500h-95v500h95z" />
    <glyph glyph-name="idieresis" unicode="&#xef;" horiz-adv-x="240" 
d="M61 691v-105h-102v105h102zM282 691v-105h-102v105h102zM167 500v-500h-95v500h95z" />
    <glyph glyph-name="eth" unicode="&#xf0;" horiz-adv-x="595" 
d="M564 640v-62h-88q69 -130 69 -290v-76q0 -41 -13 -79t-40.5 -71.5t-77 -54t-114.5 -20.5q-66 0 -115 20.5t-76.5 54t-40.5 71.5t-13 79v76q0 40 13.5 78.5t39.5 72t71.5 54t102.5 20.5q108 0 165 -68q-14 60 -63 133h-205v62h158q-33 41 -77 85h108q35 -36 69 -85h127z
M449 217v66q0 69 -37 109t-112 40t-112 -40t-37 -109v-66q0 -68 37.5 -108.5t111.5 -40.5t111.5 40.5t37.5 108.5z" />
    <glyph glyph-name="ntilde" unicode="&#xf1;" horiz-adv-x="617" 
d="M151 565l-34 50q45 72 117 72q36 0 80 -24.5t69 -24.5q52 0 89 47l43 -47q-16 -28 -47 -49t-75 -21q-43 0 -89 21.5t-66 21.5q-48 0 -87 -46zM342 513q102 0 157 -59t55 -147v-307h-95v289q0 143 -139 143q-74 0 -113.5 -40.5t-39.5 -112.5v-279h-95v500h92l1 -77
q56 90 177 90z" />
    <glyph glyph-name="ograve" unicode="&#xf2;" horiz-adv-x="601" 
d="M265 745l90 -175h-84l-105 175h99zM300 -13q-65 0 -114.5 20.5t-77 54t-40.5 71.5t-13 79v76q0 41 13 79t40.5 71.5t77 54t114.5 20.5q66 0 115 -20.5t76.5 -54t40.5 -71.5t13 -79v-76q0 -41 -13 -79t-40.5 -71.5t-76.5 -54t-115 -20.5zM300 68q75 0 112 40t37 109v66
q0 69 -37 109t-112 40t-112 -40t-37 -109v-66q0 -69 37 -109t112 -40z" />
    <glyph glyph-name="oacute" unicode="&#xf3;" horiz-adv-x="601" 
d="M326 745h99l-105 -175h-84zM300 -13q-65 0 -114.5 20.5t-77 54t-40.5 71.5t-13 79v76q0 41 13 79t40.5 71.5t77 54t114.5 20.5q66 0 115 -20.5t76.5 -54t40.5 -71.5t13 -79v-76q0 -41 -13 -79t-40.5 -71.5t-76.5 -54t-115 -20.5zM300 68q75 0 112 40t37 109v66
q0 69 -37 109t-112 40t-112 -40t-37 -109v-66q0 -69 37 -109t112 -40z" />
    <glyph glyph-name="ocircumflex" unicode="&#xf4;" horiz-adv-x="601" 
d="M238 570h-87l109 175h80l109 -175h-87l-62 108zM300 -13q-65 0 -114.5 20.5t-77 54t-40.5 71.5t-13 79v76q0 41 13 79t40.5 71.5t77 54t114.5 20.5q66 0 115 -20.5t76.5 -54t40.5 -71.5t13 -79v-76q0 -41 -13 -79t-40.5 -71.5t-76.5 -54t-115 -20.5zM300 68q75 0 112 40
t37 109v66q0 69 -37 109t-112 40t-112 -40t-37 -109v-66q0 -69 37 -109t112 -40z" />
    <glyph glyph-name="otilde" unicode="&#xf5;" horiz-adv-x="601" 
d="M134 565l-34 50q45 72 117 72q36 0 80 -24.5t69 -24.5q52 0 89 47l43 -47q-16 -28 -47 -49t-75 -21t-89.5 21.5t-65.5 21.5q-48 0 -87 -46zM300 -13q-65 0 -114.5 20.5t-77 54t-40.5 71.5t-13 79v76q0 41 13 79t40.5 71.5t77 54t114.5 20.5q66 0 115 -20.5t76.5 -54
t40.5 -71.5t13 -79v-76q0 -41 -13 -79t-40.5 -71.5t-76.5 -54t-115 -20.5zM300 68q75 0 112 40t37 109v66q0 69 -37 109t-112 40t-112 -40t-37 -109v-66q0 -69 37 -109t112 -40z" />
    <glyph glyph-name="odieresis" unicode="&#xf6;" horiz-adv-x="601" 
d="M241 691v-105h-102v105h102zM462 691v-105h-102v105h102zM300 -13q-65 0 -114.5 20.5t-77 54t-40.5 71.5t-13 79v76q0 41 13 79t40.5 71.5t77 54t114.5 20.5q66 0 115 -20.5t76.5 -54t40.5 -71.5t13 -79v-76q0 -41 -13 -79t-40.5 -71.5t-76.5 -54t-115 -20.5zM300 68
q75 0 112 40t37 109v66q0 69 -37 109t-112 40t-112 -40t-37 -109v-66q0 -69 37 -109t112 -40z" />
    <glyph glyph-name="divide" unicode="&#xf7;" horiz-adv-x="548" 
d="M233 458v95h84v-95h-84zM55 293v84h438v-84h-438zM233 116v94h84v-94h-84z" />
    <glyph glyph-name="oslash" unicode="&#xf8;" horiz-adv-x="599" 
d="M559 501l-60 -72q45 -59 45 -141v-76q0 -41 -13 -79t-40.5 -71.5t-76.5 -54t-115 -20.5q-84 0 -145 36l-19 -23l-97 1l60 72q-44 58 -44 139v76q0 41 13 79t40.5 71.5t77 54t114.5 20.5q87 0 144 -35l19 23h97zM150 283v-66q0 -40 12 -70l224 265q-34 20 -87 20
q-75 0 -112 -40t-37 -109zM448 217v66q0 42 -13 71l-224 -265q37 -21 88 -21q75 0 112 40t37 109z" />
    <glyph glyph-name="ugrave" unicode="&#xf9;" horiz-adv-x="617" 
d="M273 745l90 -175h-84l-105 175h99zM277 -13q-102 0 -157 59t-55 147v307h95v-289q0 -143 140 -143q73 0 112.5 40.5t39.5 112.5v279h95v-500h-91l-2 77q-54 -90 -177 -90z" />
    <glyph glyph-name="uacute" unicode="&#xfa;" horiz-adv-x="617" 
d="M334 745h99l-105 -175h-84zM277 -13q-102 0 -157 59t-55 147v307h95v-289q0 -143 140 -143q73 0 112.5 40.5t39.5 112.5v279h95v-500h-91l-2 77q-54 -90 -177 -90z" />
    <glyph glyph-name="ucircumflex" unicode="&#xfb;" horiz-adv-x="617" 
d="M246 570h-87l109 175h80l109 -175h-87l-62 108zM277 -13q-102 0 -157 59t-55 147v307h95v-289q0 -143 140 -143q73 0 112.5 40.5t39.5 112.5v279h95v-500h-91l-2 77q-54 -90 -177 -90z" />
    <glyph glyph-name="udieresis" unicode="&#xfc;" horiz-adv-x="617" 
d="M249 691v-105h-102v105h102zM470 691v-105h-102v105h102zM277 -13q-102 0 -157 59t-55 147v307h95v-289q0 -143 140 -143q73 0 112.5 40.5t39.5 112.5v279h95v-500h-91l-2 77q-54 -90 -177 -90z" />
    <glyph glyph-name="yacute" unicode="&#xfd;" horiz-adv-x="560" 
d="M405 745l-105 -175h-84l90 175h99zM446 500h99l-302 -732h-99l103 249l-232 483h108l170 -370z" />
    <glyph glyph-name="thorn" unicode="&#xfe;" horiz-adv-x="625" 
d="M335 513q62 0 108.5 -20.5t72.5 -54t38.5 -71.5t12.5 -79v-76q0 -41 -13 -79t-38.5 -71.5t-72 -54t-106.5 -20.5q-104 0 -164 78v-297h-95v957h95v-285q55 73 162 73zM472 217v66q0 69 -37.5 109t-112.5 40t-112 -40t-37 -109v-66q0 -69 37 -109t112 -40t112.5 40
t37.5 109z" />
    <glyph glyph-name="ydieresis" unicode="&#xff;" horiz-adv-x="560" 
d="M221 691v-105h-102v105h102zM442 691v-105h-102v105h102zM446 500h99l-302 -732h-99l103 249l-232 483h108l170 -370z" />
    <glyph glyph-name="Amacron" unicode="&#x100;" horiz-adv-x="683" 
d="M516 889v-78h-351v78h351zM577 0l-73 193h-325l-73 -193h-93l274 725h109l273 -725h-92zM211 277h261l-130 344z" />
    <glyph glyph-name="amacron" unicode="&#x101;" horiz-adv-x="581" 
d="M114 664h351v-78h-351v78zM229 -13q-75 0 -124 36t-49 108q0 76 56 114.5t147 45.5l162 12v40q0 41 -42.5 65.5t-99.5 24.5q-53 0 -92 -22.5t-46 -67.5h-91q8 71 69.5 120.5t160.5 49.5q100 0 168 -49t68 -115v-349h-83l-4 64q-34 -35 -89 -56t-111 -21zM241 69
q49 0 100 20t80 50v85l-143 -10q-65 -5 -96 -23.5t-31 -55.5q0 -66 90 -66z" />
    <glyph glyph-name="Abreve" unicode="&#x102;" horiz-adv-x="683" 
d="M340 793q-52 0 -91.5 28.5t-53.5 72.5l60 29q29 -61 85 -61q30 0 52.5 17t32.5 44l61 -29q-15 -44 -54.5 -72.5t-91.5 -28.5zM577 0l-73 193h-325l-73 -193h-93l274 725h109l273 -725h-92zM211 277h261l-130 344z" />
    <glyph glyph-name="abreve" unicode="&#x103;" horiz-adv-x="581" 
d="M289 568q-52 0 -91.5 28.5t-53.5 72.5l60 29q29 -61 85 -61q30 0 52.5 17t32.5 44l61 -29q-15 -44 -54.5 -72.5t-91.5 -28.5zM229 -13q-75 0 -124 36t-49 108q0 76 56 114.5t147 45.5l162 12v40q0 41 -42.5 65.5t-99.5 24.5q-53 0 -92 -22.5t-46 -67.5h-91
q8 71 69.5 120.5t160.5 49.5q100 0 168 -49t68 -115v-349h-83l-4 64q-34 -35 -89 -56t-111 -21zM241 69q49 0 100 20t80 50v85l-143 -10q-65 -5 -96 -23.5t-31 -55.5q0 -66 90 -66z" />
    <glyph glyph-name="Aogonek" unicode="&#x104;" horiz-adv-x="683" 
d="M659 -127h29v-62h-33q-72 0 -101 30q-21 21 -18.5 54t29.5 68l29 37h-17l-73 193h-325l-73 -193h-93l274 725h109l273 -725l-50 -63q-24 -31 -5 -52q10 -12 45 -12zM211 277h261l-130 344z" />
    <glyph glyph-name="aogonek" unicode="&#x105;" horiz-adv-x="581" 
d="M505 -127h29v-62h-33q-72 0 -101 30q-21 21 -18.5 54t29.5 68l29 37h-7l-4 64q-34 -35 -89 -56t-111 -21q-75 0 -124 36t-49 108q0 76 56 114.5t147 45.5l162 12v40q0 41 -42.5 65.5t-99.5 24.5q-53 0 -92 -22.5t-46 -67.5h-91q8 71 69.5 120.5t160.5 49.5q100 0 168 -49
t68 -115v-349h-1l-50 -63q-24 -31 -5 -52q10 -12 45 -12zM421 139v85l-143 -10q-65 -5 -96 -23.5t-31 -55.5q0 -66 90 -66q49 0 100 20t80 50z" />
    <glyph glyph-name="Cacute" unicode="&#x106;" horiz-adv-x="733" 
d="M393 970h99l-105 -175h-84zM376 -13q-152 0 -235 89t-83 240v92q0 151 83 240t235 89q140 0 222 -76.5t93 -209.5h-96q-20 201 -219 201q-221 0 -221 -252v-76q0 -252 221 -252q203 0 220 210h96q-9 -137 -91 -216t-225 -79z" />
    <glyph glyph-name="cacute" unicode="&#x107;" horiz-adv-x="583" 
d="M321 745h99l-105 -175h-84zM297 -13q-65 0 -114 20.5t-75.5 54t-39.5 71.5t-13 79v76q0 41 13 79t39.5 71.5t75.5 54t114 20.5q113 0 171 -59t66 -141h-96q-17 119 -141 119q-73 0 -109.5 -40t-36.5 -109v-66q0 -68 36.5 -108.5t109.5 -40.5q62 0 97 31t43 86h96
q-8 -82 -65.5 -140t-170.5 -58z" />
    <glyph glyph-name="Cdotaccent" unicode="&#x10a;" horiz-adv-x="733" 
d="M312 872q0 23 16 39t39 16t39 -16t16 -39t-16 -39t-39 -16t-39 16t-16 39zM376 -13q-152 0 -235 89t-83 240v92q0 151 83 240t235 89q140 0 222 -76.5t93 -209.5h-96q-20 201 -219 201q-221 0 -221 -252v-76q0 -252 221 -252q203 0 220 210h96q-9 -137 -91 -216t-225 -79
z" />
    <glyph glyph-name="cdotaccent" unicode="&#x10b;" horiz-adv-x="583" 
d="M240 647q0 23 16 39t39 16t39 -16t16 -39t-16 -39t-39 -16t-39 16t-16 39zM297 -13q-65 0 -114 20.5t-75.5 54t-39.5 71.5t-13 79v76q0 41 13 79t39.5 71.5t75.5 54t114 20.5q113 0 171 -59t66 -141h-96q-17 119 -141 119q-73 0 -109.5 -40t-36.5 -109v-66
q0 -68 36.5 -108.5t109.5 -40.5q62 0 97 31t43 86h96q-8 -82 -65.5 -140t-170.5 -58z" />
    <glyph glyph-name="Ccaron" unicode="&#x10c;" horiz-adv-x="733" 
d="M407 792h-80l-109 175h87l62 -109l63 109h87zM596 282h96q-9 -137 -91 -216t-225 -79q-152 0 -235 89t-83 240v92q0 151 83 240t235 89q140 0 222 -76.5t93 -209.5h-96q-20 201 -219 201q-221 0 -221 -252v-76q0 -252 221 -252q203 0 220 210z" />
    <glyph glyph-name="ccaron" unicode="&#x10d;" horiz-adv-x="583" 
d="M335 567h-80l-109 175h87l62 -109l63 109h87zM297 68q62 0 97 31t43 86h96q-8 -82 -65.5 -140t-170.5 -58q-65 0 -114 20.5t-75.5 54t-39.5 71.5t-13 79v76q0 41 13 79t39.5 71.5t75.5 54t114 20.5q113 0 171 -59t66 -141h-96q-17 119 -141 119q-73 0 -109.5 -40
t-36.5 -109v-66q0 -68 36.5 -108.5t109.5 -40.5z" />
    <glyph glyph-name="Dcaron" unicode="&#x10e;" horiz-adv-x="723" 
d="M398 792h-80l-109 175h87l62 -109l63 109h87zM345 725q84 0 145.5 -22t93.5 -53.5t50.5 -79t22.5 -84t4 -84.5v-79q0 -48 -4 -84.5t-22.5 -84t-50.5 -79t-93.5 -53.5t-145.5 -22h-250v725h250zM564 314v97q0 39 -4.5 69t-18 61.5t-37 52t-64 33.5t-95.5 13h-153v-554h153
q55 0 95.5 13t64 34t37 52t18 61t4.5 68z" />
    <glyph glyph-name="dcaron" unicode="&#x10f;" horiz-adv-x="613" 
d="M704 755h92l-89 -230h-92zM287 -13q-117 0 -174.5 68t-57.5 157v76q0 41 13 79t39 71.5t72 54t105 20.5q107 0 165 -78v290h96v-725h-86l-4 67q-55 -80 -168 -80zM301 68q74 0 111 40.5t37 108.5v66q0 70 -36.5 109.5t-111.5 39.5t-112.5 -40t-37.5 -109v-66
q0 -68 37.5 -108.5t112.5 -40.5z" />
    <glyph glyph-name="Dcroat" unicode="&#x110;" horiz-adv-x="771" 
d="M389 725q84 0 145.5 -22t93.5 -53.5t50.5 -79t22.5 -84t4 -84.5v-79q0 -48 -4 -84.5t-22.5 -84t-50.5 -79t-93.5 -53.5t-145.5 -22h-250v338h-128v83h128v304h250zM608 314v97q0 39 -4.5 69t-18 61.5t-37 52t-64 33.5t-95.5 13h-153v-219h159v-83h-159v-252h153
q55 0 95.5 13t64 34t37 52t18 61t4.5 68z" />
    <glyph glyph-name="dcroat" unicode="&#x111;" horiz-adv-x="631" 
d="M629 657v-68h-84v-589h-86l-4 67q-55 -80 -168 -80q-117 0 -174.5 68t-57.5 157v76q0 41 13 79t39 71.5t72 54t105 20.5q107 0 165 -78v154h-183v68h183v68h96v-68h84zM449 217v66q0 70 -36.5 109.5t-111.5 39.5t-112.5 -40t-37.5 -109v-66q0 -68 37.5 -108.5
t112.5 -40.5q74 0 111 40.5t37 108.5z" />
    <glyph glyph-name="Emacron" unicode="&#x112;" horiz-adv-x="669" 
d="M159 889h351v-78h-351v78zM95 725h518v-88h-421v-217h389v-88h-389v-244h421v-88h-518v725z" />
    <glyph glyph-name="emacron" unicode="&#x113;" horiz-adv-x="592" 
d="M470 664v-78h-351v78h351zM537 287v-74h-390q1 -68 39 -108t113 -40q103 0 136 80h98q-20 -68 -76.5 -113t-157.5 -45q-65 0 -114 20t-76.5 54t-40.5 72t-13 79v76q0 41 13 79t40.5 71.5t76.5 54t114 20.5t113 -20t74 -53.5t38.5 -71.5t12.5 -81zM147 287h298
q0 148 -146 148q-74 0 -112.5 -39.5t-39.5 -108.5z" />
    <glyph glyph-name="Edotaccent" unicode="&#x116;" horiz-adv-x="669" 
d="M280 872q0 23 16 39t39 16t39 -16t16 -39t-16 -39t-39 -16t-39 16t-16 39zM95 725h518v-88h-421v-217h389v-88h-389v-244h421v-88h-518v725z" />
    <glyph glyph-name="edotaccent" unicode="&#x117;" horiz-adv-x="592" 
d="M295 592q-23 0 -39 16t-16 39t16 39t39 16t39 -16t16 -39t-16 -39t-39 -16zM537 287v-74h-390q1 -68 39 -108t113 -40q103 0 136 80h98q-20 -68 -76.5 -113t-157.5 -45q-65 0 -114 20t-76.5 54t-40.5 72t-13 79v76q0 41 13 79t40.5 71.5t76.5 54t114 20.5t113 -20
t74 -53.5t38.5 -71.5t12.5 -81zM147 287h298q0 148 -146 148q-74 0 -112.5 -39.5t-39.5 -108.5z" />
    <glyph glyph-name="Eogonek" unicode="&#x118;" horiz-adv-x="669" 
d="M603 -127h29v-62h-33q-72 0 -101 30q-21 21 -18.5 54t29.5 68l29 37h-443v725h518v-88h-421v-217h389v-88h-389v-244h421v-88l-50 -63q-24 -31 -5 -52q10 -12 45 -12z" />
    <glyph glyph-name="eogonek" unicode="&#x119;" horiz-adv-x="592" 
d="M537 287v-74h-390q1 -68 39 -108t113 -40q103 0 136 80h98q-41 -139 -195 -156l-41 -52q-24 -31 -5 -52q10 -12 45 -12h29v-62h-33q-72 0 -101 30q-21 21 -18.5 54t29.5 68l20 26q-72 7 -121 43t-68 82t-19 98v76q0 41 13 79t40.5 71.5t76.5 54t114 20.5t113 -20
t74 -53.5t38.5 -71.5t12.5 -81zM147 287h298q0 148 -146 148q-74 0 -112.5 -39.5t-39.5 -108.5z" />
    <glyph glyph-name="Ecaron" unicode="&#x11a;" horiz-adv-x="669" 
d="M375 792h-80l-109 175h87l62 -109l63 109h87zM613 637h-421v-217h389v-88h-389v-244h421v-88h-518v725h518v-88z" />
    <glyph glyph-name="ecaron" unicode="&#x11b;" horiz-adv-x="592" 
d="M335 567h-80l-109 175h87l62 -109l63 109h87zM537 287v-74h-390q1 -68 39 -108t113 -40q103 0 136 80h98q-20 -68 -76.5 -113t-157.5 -45q-65 0 -114 20t-76.5 54t-40.5 72t-13 79v76q0 41 13 79t40.5 71.5t76.5 54t114 20.5t113 -20t74 -53.5t38.5 -71.5t12.5 -81z
M147 287h298q0 148 -146 148q-74 0 -112.5 -39.5t-39.5 -108.5z" />
    <glyph glyph-name="Gbreve" unicode="&#x11e;" horiz-adv-x="762" 
d="M380 793q-52 0 -91.5 28.5t-53.5 72.5l60 29q29 -61 85 -61q30 0 52.5 17t32.5 44l61 -29q-15 -44 -54.5 -72.5t-91.5 -28.5zM370 -13q-148 0 -230 89.5t-82 239.5v92q0 151 82.5 240t234.5 89q132 0 211.5 -67.5t97.5 -186.5h-97q-33 169 -212 169q-221 0 -221 -252v-76
q0 -252 221 -252q104 0 161 55.5t57 157.5v21h-246v84h343v-390h-70l-12 116q-26 -61 -87 -95t-151 -34z" />
    <glyph glyph-name="gbreve" unicode="&#x11f;" horiz-adv-x="618" 
d="M306 568q-52 0 -91.5 28.5t-53.5 72.5l60 29q29 -61 85 -61q30 0 52.5 17t32.5 44l61 -29q-15 -44 -54.5 -72.5t-91.5 -28.5zM313 -245q-239 0 -245 205h90q5 -69 45 -98t110 -29q68 0 105 40.5t37 110.5v81q-61 -78 -170 -78q-115 0 -172.5 68t-57.5 157v76
q0 41 12.5 79t38.5 71.5t73 54t108 20.5q113 0 168 -80l4 67h86v-510q0 -45 -10 -83t-34 -74t-72 -57t-116 -21zM301 68q75 0 111.5 39.5t36.5 109.5v66q0 68 -37 108.5t-111 40.5q-75 0 -112.5 -40.5t-37.5 -108.5v-66q0 -69 37.5 -109t112.5 -40z" />
    <glyph glyph-name="Gdotaccent" unicode="&#x120;" horiz-adv-x="762" 
d="M326 872q0 23 16 39t39 16t39 -16t16 -39t-16 -39t-39 -16t-39 16t-16 39zM370 -13q-148 0 -230 89.5t-82 239.5v92q0 151 82.5 240t234.5 89q132 0 211.5 -67.5t97.5 -186.5h-97q-33 169 -212 169q-221 0 -221 -252v-76q0 -252 221 -252q104 0 161 55.5t57 157.5v21
h-246v84h343v-390h-70l-12 116q-26 -61 -87 -95t-151 -34z" />
    <glyph glyph-name="gdotaccent" unicode="&#x121;" horiz-adv-x="618" 
d="M252 647q0 23 16 39t39 16t39 -16t16 -39t-16 -39t-39 -16t-39 16t-16 39zM313 -245q-239 0 -245 205h90q5 -69 45 -98t110 -29q68 0 105 40.5t37 110.5v81q-61 -78 -170 -78q-115 0 -172.5 68t-57.5 157v76q0 41 12.5 79t38.5 71.5t73 54t108 20.5q113 0 168 -80l4 67
h86v-510q0 -45 -10 -83t-34 -74t-72 -57t-116 -21zM301 68q75 0 111.5 39.5t36.5 109.5v66q0 68 -37 108.5t-111 40.5q-75 0 -112.5 -40.5t-37.5 -108.5v-66q0 -69 37.5 -109t112.5 -40z" />
    <glyph glyph-name="Gcommaaccent" unicode="&#x122;" horiz-adv-x="762" 
d="M370 -13q-148 0 -230 89.5t-82 239.5v92q0 151 82.5 240t234.5 89q132 0 211.5 -67.5t97.5 -186.5h-97q-33 169 -212 169q-221 0 -221 -252v-76q0 -252 221 -252q104 0 161 55.5t57 157.5v21h-246v84h343v-390h-70l-12 116q-26 -61 -87 -95t-151 -34zM380 -69h92
l-91 -175h-92z" />
    <glyph glyph-name="gcommaaccent" unicode="&#x123;" horiz-adv-x="618" 
d="M251 580l91 175h92l-91 -175h-92zM313 -245q-239 0 -245 205h90q5 -69 45 -98t110 -29q68 0 105 40.5t37 110.5v81q-61 -78 -170 -78q-115 0 -172.5 68t-57.5 157v76q0 41 12.5 79t38.5 71.5t73 54t108 20.5q113 0 168 -80l4 67h86v-510q0 -45 -10 -83t-34 -74t-72 -57
t-116 -21zM301 68q75 0 111.5 39.5t36.5 109.5v66q0 68 -37 108.5t-111 40.5q-75 0 -112.5 -40.5t-37.5 -108.5v-66q0 -69 37.5 -109t112.5 -40z" />
    <glyph glyph-name="Hbar" unicode="&#x126;" horiz-adv-x="752" 
d="M734 621v-78h-76v-543h-96v345h-371v-345h-97v543h-76v78h76v104h97v-104h371v104h96v-104h76zM562 431v112h-371v-112h371z" />
    <glyph glyph-name="hbar" unicode="&#x127;" horiz-adv-x="615" 
d="M339 513q102 0 157 -59t55 -147v-307h-95v289q0 143 -139 143q-74 0 -113.5 -40.5t-39.5 -112.5v-279h-95v582h-69v70h69v73h95v-73h187v-70h-187v-154q57 85 175 85z" />
    <glyph glyph-name="Imacron" unicode="&#x12a;" horiz-adv-x="287" 
d="M-32 889h351v-78h-351v78zM95 725h97v-725h-97v725z" />
    <glyph glyph-name="imacron" unicode="&#x12b;" horiz-adv-x="240" 
d="M-56 664h351v-78h-351v78zM167 500v-500h-95v500h95z" />
    <glyph glyph-name="Iogonek" unicode="&#x12e;" horiz-adv-x="287" 
d="M182 -127h29v-62h-33q-72 0 -101 30q-21 21 -18.5 54t29.5 68l29 37h-22v725h97v-725l-50 -63q-24 -31 -5 -52q10 -12 45 -12z" />
    <glyph glyph-name="iogonek" unicode="&#x12f;" horiz-adv-x="240" 
d="M120 592q-23 0 -39 16t-16 39t16 39t39 16t39 -16t16 -39t-16 -39t-39 -16zM157 -127h29v-62h-33q-72 0 -101 30q-21 21 -18.5 54t29.5 68l29 37h-20v500h95v-500l-50 -63q-24 -31 -5 -52q10 -12 45 -12z" />
    <glyph glyph-name="Idotaccent" unicode="&#x130;" horiz-adv-x="287" 
d="M89 872q0 23 16 39t39 16t39 -16t16 -39t-16 -39t-39 -16t-39 16t-16 39zM95 725h97v-725h-97v725z" />
    <glyph glyph-name="dotlessi" unicode="&#x131;" horiz-adv-x="240" 
d="M167 500v-500h-95v500h95z" />
    <glyph glyph-name="IJ" unicode="&#x132;" horiz-adv-x="864" 
d="M95 725h97v-725h-97v725zM558 -13q-116 0 -176 52.5t-60 138.5v63h95v-44q0 -125 142 -125q69 0 103.5 38.5t34.5 125.5v489h96v-497q0 -241 -235 -241z" />
    <glyph glyph-name="ij" unicode="&#x133;" horiz-adv-x="497" 
d="M177 725v-114h-108v114h108zM427 725v-115h-104v115h104zM170 500v-500h-95v500h95zM224 -232v81h33q71 0 71 96v555h95v-553q0 -95 -40.5 -137t-119.5 -42h-39z" />
    <glyph glyph-name="Kcommaaccent" unicode="&#x136;" horiz-adv-x="680" 
d="M376 425l283 -425h-112l-235 356l-120 -131v-225h-97v725h97v-370l338 370h122zM246 -244l91 175h92l-91 -175h-92z" />
    <glyph glyph-name="kcommaaccent" unicode="&#x137;" horiz-adv-x="537" 
d="M307 304l206 -304h-113l-161 238l-72 -70v-168h-95v725h95v-440l221 215h121zM171 -244l91 175h92l-91 -175h-92z" />
    <glyph glyph-name="kgreenlandic" unicode="&#x138;" horiz-adv-x="547" 
d="M524 500l-206 -200l203 -300h-113l-159 233l-59 -57v-176h-95v500h95v-208l214 208h120z" />
    <glyph glyph-name="Lacute" unicode="&#x139;" horiz-adv-x="636" 
d="M193 970h99l-105 -175h-84zM192 725v-636h420v-89h-517v725h97z" />
    <glyph glyph-name="lacute" unicode="&#x13a;" horiz-adv-x="240" 
d="M146 970h99l-105 -175h-84zM72 0v725h95v-725h-95z" />
    <glyph glyph-name="Lcommaaccent" unicode="&#x13b;" horiz-adv-x="636" 
d="M192 725v-636h420v-89h-517v725h97zM314 -69h92l-91 -175h-92z" />
    <glyph glyph-name="lcommaaccent" unicode="&#x13c;" horiz-adv-x="240" 
d="M72 0v725h95v-725h-95zM119 -69h92l-91 -175h-92z" />
    <glyph glyph-name="Lcaron" unicode="&#x13d;" horiz-adv-x="638" 
d="M358 755h92l-89 -230h-92zM192 725v-636h420v-89h-517v725h97z" />
    <glyph glyph-name="lcaron" unicode="&#x13e;" horiz-adv-x="246" 
d="M358 755h92l-89 -230h-92zM72 0v725h95v-725h-95z" />
    <glyph glyph-name="Ldot" unicode="&#x13f;" horiz-adv-x="638" 
d="M192 725v-636h420v-89h-517v725h97zM389 361v-106h-95v106h95z" />
    <glyph glyph-name="ldot" unicode="&#x140;" horiz-adv-x="246" 
d="M72 0v725h95v-725h-95zM395 375v-106h-95v106h95z" />
    <glyph glyph-name="Lslash" unicode="&#x141;" horiz-adv-x="635" 
d="M190 89h420v-89h-517v225l-91 -55v97l91 56v402h97v-344l211 129v-97l-211 -130v-194z" />
    <glyph glyph-name="lslash" unicode="&#x142;" horiz-adv-x="267" 
d="M260 460v-97l-87 -54v-309h-95v253l-72 -44v97l72 44v375h95v-318z" />
    <glyph glyph-name="Nacute" unicode="&#x143;" horiz-adv-x="781" 
d="M516 970l-105 -175h-84l90 175h99zM590 725h96v-725h-112l-382 579v-579h-97v725h113l382 -576v576z" />
    <glyph glyph-name="nacute" unicode="&#x144;" horiz-adv-x="617" 
d="M343 745h99l-105 -175h-84zM342 513q102 0 157 -59t55 -147v-307h-95v289q0 143 -139 143q-74 0 -113.5 -40.5t-39.5 -112.5v-279h-95v500h92l1 -77q56 90 177 90z" />
    <glyph glyph-name="Ncommaaccent" unicode="&#x145;" horiz-adv-x="781" 
d="M590 725h96v-725h-112l-382 579v-579h-97v725h113l382 -576v576zM299 -244l91 175h92l-91 -175h-92z" />
    <glyph glyph-name="ncommaaccent" unicode="&#x146;" horiz-adv-x="617" 
d="M342 513q102 0 157 -59t55 -147v-307h-95v289q0 143 -139 143q-74 0 -113.5 -40.5t-39.5 -112.5v-279h-95v500h92l1 -77q56 90 177 90zM308 -69h92l-91 -175h-92z" />
    <glyph glyph-name="Ncaron" unicode="&#x147;" horiz-adv-x="781" 
d="M431 792h-80l-109 175h87l62 -109l63 109h87zM590 725h96v-725h-112l-382 579v-579h-97v725h113l382 -576v576z" />
    <glyph glyph-name="ncaron" unicode="&#x148;" horiz-adv-x="617" 
d="M357 567h-80l-109 175h87l62 -109l63 109h87zM342 513q102 0 157 -59t55 -147v-307h-95v289q0 143 -139 143q-74 0 -113.5 -40.5t-39.5 -112.5v-279h-95v500h92l1 -77q56 90 177 90z" />
    <glyph glyph-name="Omacron" unicode="&#x14c;" horiz-adv-x="752" 
d="M200 889h351v-78h-351v78zM376 -13q-152 0 -235 89t-83 240v93q0 151 83 240t235 89t235 -89t83 -240v-93q0 -151 -83 -240t-235 -89zM376 72q221 0 221 252v77q0 252 -221 252t-221 -252v-77q0 -252 221 -252z" />
    <glyph glyph-name="omacron" unicode="&#x14d;" horiz-adv-x="601" 
d="M124 664h351v-78h-351v78zM300 -13q-65 0 -114.5 20.5t-77 54t-40.5 71.5t-13 79v76q0 41 13 79t40.5 71.5t77 54t114.5 20.5q66 0 115 -20.5t76.5 -54t40.5 -71.5t13 -79v-76q0 -41 -13 -79t-40.5 -71.5t-76.5 -54t-115 -20.5zM300 68q75 0 112 40t37 109v66
q0 69 -37 109t-112 40t-112 -40t-37 -109v-66q0 -69 37 -109t112 -40z" />
    <glyph glyph-name="Ohungarumlaut" unicode="&#x150;" horiz-adv-x="752" 
d="M230 804l91 175h92l-91 -175h-92zM417 804l91 175h92l-91 -175h-92zM376 -13q-152 0 -235 89t-83 240v93q0 151 83 240t235 89t235 -89t83 -240v-93q0 -151 -83 -240t-235 -89zM376 72q221 0 221 252v77q0 252 -221 252t-221 -252v-77q0 -252 221 -252z" />
    <glyph glyph-name="ohungarumlaut" unicode="&#x151;" horiz-adv-x="601" 
d="M154 579l91 175h92l-91 -175h-92zM341 579l91 175h92l-91 -175h-92zM300 -13q-65 0 -114.5 20.5t-77 54t-40.5 71.5t-13 79v76q0 41 13 79t40.5 71.5t77 54t114.5 20.5q66 0 115 -20.5t76.5 -54t40.5 -71.5t13 -79v-76q0 -41 -13 -79t-40.5 -71.5t-76.5 -54t-115 -20.5z
M300 68q75 0 112 40t37 109v66q0 69 -37 109t-112 40t-112 -40t-37 -109v-66q0 -69 37 -109t112 -40z" />
    <glyph glyph-name="OE" unicode="&#x152;" horiz-adv-x="1171" 
d="M1115 637h-421v-217h389v-88h-389v-244h421v-88h-518v62q-83 -75 -221 -75q-152 0 -235 89t-83 240v93q0 151 83 240t235 89q138 0 221 -75v62h518v-88zM376 72q221 0 221 252v77q0 252 -221 252t-221 -252v-77q0 -252 221 -252z" />
    <glyph glyph-name="oe" unicode="&#x153;" horiz-adv-x="965" 
d="M909 287v-74h-378q1 -69 36.5 -108.5t109.5 -39.5q98 0 131 80h97q-18 -66 -74.5 -112t-150.5 -46q-133 0 -194 99q-63 -99 -195 -99q-62 0 -109 20.5t-74 54t-40 71.5t-13 79v76q0 41 13 79t40 71.5t74 54t109 20.5q132 0 195 -99q63 99 194 99q117 0 173 -67t56 -159z
M531 287h287q0 71 -35.5 109.5t-105.5 38.5q-144 0 -146 -148zM439 217v66q0 149 -145 149q-71 0 -107 -40t-36 -109v-66q0 -68 36.5 -108.5t106.5 -40.5q74 0 109.5 40t35.5 109z" />
    <glyph glyph-name="Racute" unicode="&#x154;" horiz-adv-x="684" 
d="M467 970l-105 -175h-84l90 175h99zM629 502q0 -162 -135 -207l132 -295h-102l-122 280h-20h-190v-280h-97v725h289q245 0 245 -223zM372 364q83 0 121.5 34.5t38.5 103.5t-38 103.5t-120 34.5h-182v-276h180z" />
    <glyph glyph-name="racute" unicode="&#x155;" horiz-adv-x="361" 
d="M198 745h99l-105 -175h-84zM72 -1v501h80l1 -84q12 38 46 65t86 27q31 0 56 -3v-85q-42 3 -52 3q-122 0 -122 -123v-301h-95z" />
    <glyph glyph-name="Rcommaaccent" unicode="&#x156;" horiz-adv-x="684" 
d="M629 502q0 -162 -135 -207l132 -295h-102l-122 280h-20h-190v-280h-97v725h289q245 0 245 -223zM372 364q83 0 121.5 34.5t38.5 103.5t-38 103.5t-120 34.5h-182v-276h180zM250 -244l91 175h92l-91 -175h-92z" />
    <glyph glyph-name="rcommaaccent" unicode="&#x157;" horiz-adv-x="361" 
d="M72 -1v501h80l1 -84q12 38 46 65t86 27q31 0 56 -3v-85q-42 3 -52 3q-122 0 -122 -123v-301h-95zM149 -69h92l-91 -175h-92z" />
    <glyph glyph-name="Rcaron" unicode="&#x158;" horiz-adv-x="684" 
d="M382 792h-80l-109 175h87l62 -109l63 109h87zM629 502q0 -162 -135 -207l132 -295h-102l-122 280h-20h-190v-280h-97v725h289q245 0 245 -223zM372 364q83 0 121.5 34.5t38.5 103.5t-38 103.5t-120 34.5h-182v-276h180z" />
    <glyph glyph-name="rcaron" unicode="&#x159;" horiz-adv-x="361" 
d="M212 567h-80l-109 175h87l62 -109l63 109h87zM285 508q31 0 56 -3v-85q-42 3 -52 3q-122 0 -122 -123v-301h-95v501h80l1 -84q12 38 46 65t86 27z" />
    <glyph glyph-name="Sacute" unicode="&#x15a;" horiz-adv-x="692" 
d="M371 970h99l-105 -175h-84zM340 738q267 0 283 -236h-97q-9 75 -51.5 113t-132.5 38q-92 0 -132.5 -35.5t-40.5 -87.5q0 -40 24 -64t81 -37l165 -39q92 -21 143.5 -66.5t51.5 -129.5q0 -100 -73 -153.5t-202 -53.5q-142 0 -215 63.5t-84 172.5h95q32 -152 206 -152
q73 0 124.5 28t51.5 90q0 48 -32 72.5t-94 38.5l-168 41q-171 40 -171 186q0 95 66.5 153t201.5 58z" />
    <glyph glyph-name="sacute" unicode="&#x15b;" horiz-adv-x="533" 
d="M288 745h99l-105 -175h-84zM274 -13q-207 0 -226 167h89q18 -89 139 -89q57 0 88.5 18t31.5 51q0 52 -82 65l-113 18q-63 10 -100.5 44t-37.5 93q0 70 53 114.5t150 44.5q95 0 147.5 -45t61.5 -122h-89q-15 87 -122 87q-51 0 -81.5 -19t-30.5 -56q0 -50 73 -61l118 -17
q143 -21 143 -143q0 -78 -59 -114t-153 -36z" />
    <glyph glyph-name="Scedilla" unicode="&#x15e;" horiz-adv-x="692" 
d="M634 194q0 -96 -68.5 -149.5t-189.5 -57.5v-36h17q105 0 105 -99q0 -98 -105 -98h-90v64h85q27 0 38.5 6.5t11.5 27.5t-11.5 28t-38.5 7h-75v102q-119 10 -181 72.5t-72 161.5h95q32 -152 206 -152q73 0 124.5 28t51.5 90q0 48 -32 72.5t-94 38.5l-168 41
q-171 40 -171 186q0 95 66.5 153t201.5 58q267 0 283 -236h-97q-9 75 -51.5 113t-132.5 38q-92 0 -132.5 -35.5t-40.5 -87.5q0 -40 24 -64t81 -37l165 -39q92 -21 143.5 -66.5t51.5 -129.5z" />
    <glyph glyph-name="scedilla" unicode="&#x15f;" horiz-adv-x="533" 
d="M486 137q0 -73 -52.5 -109.5t-138.5 -40.5v-36h17q105 0 105 -99q0 -98 -105 -98h-90v64h85q27 0 38.5 6.5t11.5 27.5t-11.5 28t-38.5 7h-75v102q-166 16 -184 165h89q18 -89 139 -89q57 0 88.5 18t31.5 51q0 52 -82 65l-113 18q-63 10 -100.5 44t-37.5 93q0 70 53 114.5
t150 44.5q95 0 147.5 -45t61.5 -122h-89q-15 87 -122 87q-51 0 -81.5 -19t-30.5 -56q0 -50 73 -61l118 -17q143 -21 143 -143z" />
    <glyph glyph-name="Scaron" unicode="&#x160;" horiz-adv-x="692" 
d="M385 792h-80l-109 175h87l62 -109l63 109h87zM439 390q92 -21 143.5 -66.5t51.5 -129.5q0 -100 -73 -153.5t-202 -53.5q-142 0 -215 63.5t-84 172.5h95q32 -152 206 -152q73 0 124.5 28t51.5 90q0 48 -32 72.5t-94 38.5l-168 41q-171 40 -171 186q0 95 66.5 153t201.5 58
q267 0 283 -236h-97q-9 75 -51.5 113t-132.5 38q-92 0 -132.5 -35.5t-40.5 -87.5q0 -40 24 -64t81 -37z" />
    <glyph glyph-name="scaron" unicode="&#x161;" horiz-adv-x="533" 
d="M302 567h-80l-109 175h87l62 -109l63 109h87zM343 280q143 -21 143 -143q0 -78 -59 -114t-153 -36q-207 0 -226 167h89q18 -89 139 -89q57 0 88.5 18t31.5 51q0 52 -82 65l-113 18q-63 10 -100.5 44t-37.5 93q0 70 53 114.5t150 44.5q95 0 147.5 -45t61.5 -122h-89
q-15 87 -122 87q-51 0 -81.5 -19t-30.5 -56q0 -50 73 -61z" />
    <glyph glyph-name="uni0162" unicode="&#x162;" horiz-adv-x="627" 
d="M358 0h-13v-49h17q105 0 105 -99q0 -98 -105 -98h-90v64h85q27 0 38.5 6.5t11.5 27.5t-11.5 28t-38.5 7h-75v113h-20v639h-246v86h598v-86h-256v-639z" />
    <glyph glyph-name="uni0163" unicode="&#x163;" horiz-adv-x="407" 
d="M251 0h-14v-49h17q105 0 105 -99q0 -98 -105 -98h-90v64h85q27 0 38.5 6.5t11.5 27.5t-11.5 28t-38.5 7h-75v113h-17v418h-136v82h136v129h94v-129h135v-82h-135v-418z" />
    <glyph glyph-name="Tcaron" unicode="&#x164;" horiz-adv-x="627" 
d="M354 792h-80l-109 175h87l62 -109l63 109h87zM16 725h598v-86h-256v-639h-96v639h-246v86z" />
    <glyph glyph-name="tcaron" unicode="&#x165;" horiz-adv-x="407" 
d="M416 771h92l-89 -230h-92zM251 629v-129h135v-82h-135v-418h-94v418h-136v82h136v129h94z" />
    <glyph glyph-name="Tbar" unicode="&#x166;" horiz-adv-x="623" 
d="M614 639h-256v-165l158 -5l-94 -77l-64 2v-394h-96v397l-155 4l93 77l62 -2v163h-246v86h598v-86z" />
    <glyph glyph-name="tbar" unicode="&#x167;" horiz-adv-x="407" 
d="M386 418h-135v-105h95v-84h-95v-229h-94v229h-98v84h98v105h-136v82h136v129h94v-129h135v-82z" />
    <glyph glyph-name="Umacron" unicode="&#x16a;" horiz-adv-x="742" 
d="M195 889h351v-78h-351v78zM376 -13q-88 0 -149 24t-92 68t-43.5 93.5t-12.5 112.5v440h96v-413q0 -119 44 -179.5t157 -60.5t157 60.5t44 179.5v413h96v-440q0 -63 -12.5 -112.5t-43.5 -93.5t-92 -68t-149 -24z" />
    <glyph glyph-name="umacron" unicode="&#x16b;" horiz-adv-x="617" 
d="M132 664h351v-78h-351v78zM277 -13q-102 0 -157 59t-55 147v307h95v-289q0 -143 140 -143q73 0 112.5 40.5t39.5 112.5v279h95v-500h-91l-2 77q-54 -90 -177 -90z" />
    <glyph glyph-name="Uring" unicode="&#x16e;" horiz-adv-x="742" 
d="M287 872q0 35 24.5 59.5t59.5 24.5t59.5 -25t24.5 -59q0 -35 -24.5 -59.5t-59.5 -24.5t-59.5 24.5t-24.5 59.5zM328 872q0 -18 13 -31t30 -13q18 0 30.5 13t12.5 31t-12.5 30.5t-30.5 12.5q-17 0 -30 -12.5t-13 -30.5zM376 -13q-88 0 -149 24t-92 68t-43.5 93.5
t-12.5 112.5v440h96v-413q0 -119 44 -179.5t157 -60.5t157 60.5t44 179.5v413h96v-440q0 -63 -12.5 -112.5t-43.5 -93.5t-92 -68t-149 -24z" />
    <glyph glyph-name="uring" unicode="&#x16f;" horiz-adv-x="617" 
d="M224 647q0 35 24.5 59.5t59.5 24.5q34 0 59 -24.5t25 -59.5t-24.5 -59.5t-59.5 -24.5t-59.5 24.5t-24.5 59.5zM265 647q0 -18 13 -31t30 -13q18 0 30.5 13t12.5 31t-12.5 30.5t-30.5 12.5q-17 0 -30 -12.5t-13 -30.5zM277 -13q-102 0 -157 59t-55 147v307h95v-289
q0 -143 140 -143q73 0 112.5 40.5t39.5 112.5v279h95v-500h-91l-2 77q-54 -90 -177 -90z" />
    <glyph glyph-name="Uhungarumlaut" unicode="&#x170;" horiz-adv-x="742" 
d="M225 804l91 175h92l-91 -175h-92zM412 804l91 175h92l-91 -175h-92zM376 -13q-88 0 -149 24t-92 68t-43.5 93.5t-12.5 112.5v440h96v-413q0 -119 44 -179.5t157 -60.5t157 60.5t44 179.5v413h96v-440q0 -63 -12.5 -112.5t-43.5 -93.5t-92 -68t-149 -24z" />
    <glyph glyph-name="uhungarumlaut" unicode="&#x171;" horiz-adv-x="617" 
d="M162 579l91 175h92l-91 -175h-92zM349 579l91 175h92l-91 -175h-92zM277 -13q-102 0 -157 59t-55 147v307h95v-289q0 -143 140 -143q73 0 112.5 40.5t39.5 112.5v279h95v-500h-91l-2 77q-54 -90 -177 -90z" />
    <glyph glyph-name="Uogonek" unicode="&#x172;" horiz-adv-x="742" 
d="M577 725h96v-440q0 -59 -11 -105.5t-37.5 -89t-78 -69t-125.5 -32.5l-41 -52q-24 -31 -5 -52q10 -12 45 -12h29v-62h-33q-72 0 -101 30q-21 21 -18.5 54t29.5 68l19 25q-79 4 -133 29.5t-82 69t-39.5 91t-11.5 107.5v440h96v-413q0 -119 44 -179.5t157 -60.5t157 60.5
t44 179.5v413z" />
    <glyph glyph-name="uogonek" unicode="&#x173;" horiz-adv-x="617" 
d="M537 -127h29v-62h-33q-72 0 -101 30q-21 21 -18.5 54t29.5 68l29 37h-16l-2 77q-54 -90 -177 -90q-102 0 -157 59t-55 147v307h95v-289q0 -143 140 -143q73 0 112.5 40.5t39.5 112.5v279h95v-500l-50 -63q-24 -31 -5 -52q10 -12 45 -12z" />
    <glyph glyph-name="Wcircumflex" unicode="&#x174;" horiz-adv-x="1098" 
d="M549 903l-62 -108h-87l109 175h80l109 -175h-87zM973 725h97l-220 -725h-112l-189 581l-189 -581h-112l-220 725h97l177 -596l196 596h103l195 -596z" />
    <glyph glyph-name="wcircumflex" unicode="&#x175;" horiz-adv-x="757" 
d="M378 678l-62 -108h-87l109 175h80l109 -175h-87zM650 500h92l-143 -500h-101l-119 359l-120 -359h-101l-143 500h92l102 -385l121 385h97l121 -385z" />
    <glyph glyph-name="Ycircumflex" unicode="&#x176;" horiz-adv-x="623" 
d="M250 795h-87l109 175h80l109 -175h-87l-62 108zM263 0v249l-255 476h105l198 -376l199 376h105l-255 -476v-249h-97z" />
    <glyph glyph-name="ycircumflex" unicode="&#x177;" horiz-adv-x="560" 
d="M280 678l-62 -108h-87l109 175h80l109 -175h-87zM446 500h99l-302 -732h-99l103 249l-232 483h108l170 -370z" />
    <glyph glyph-name="Ydieresis" unicode="&#x178;" horiz-adv-x="623" 
d="M253 916v-105h-102v105h102zM474 916v-105h-102v105h102zM263 0v249l-255 476h105l198 -376l199 376h105l-255 -476v-249h-97z" />
    <glyph glyph-name="Zacute" unicode="&#x179;" horiz-adv-x="629" 
d="M440 970l-105 -175h-84l90 175h99zM153 86h428v-86h-535v93l427 546h-418v86h525v-93z" />
    <glyph glyph-name="zacute" unicode="&#x17a;" horiz-adv-x="505" 
d="M279 745h99l-105 -175h-84zM61 417h283l-287 -331v-86h404v83h-288l287 331v86h-399v-83z" />
    <glyph glyph-name="Zdotaccent" unicode="&#x17b;" horiz-adv-x="629" 
d="M315 817q-23 0 -39 16t-16 39t16 39t39 16t39 -16t16 -39t-16 -39t-39 -16zM153 86h428v-86h-535v93l427 546h-418v86h525v-93z" />
    <glyph glyph-name="zdotaccent" unicode="&#x17c;" horiz-adv-x="505" 
d="M198 647q0 23 16 39t39 16t39 -16t16 -39t-16 -39t-39 -16t-39 16t-16 39zM61 417h283l-287 -331v-86h404v83h-288l287 331v86h-399v-83z" />
    <glyph glyph-name="Zcaron" unicode="&#x17d;" horiz-adv-x="629" 
d="M355 792h-80l-109 175h87l62 -109l63 109h87zM153 86h428v-86h-535v93l427 546h-418v86h525v-93z" />
    <glyph glyph-name="zcaron" unicode="&#x17e;" horiz-adv-x="505" 
d="M293 567h-80l-109 175h87l62 -109l63 109h87zM173 83h288v-83h-404v86l287 331h-283v83h399v-86z" />
    <glyph glyph-name="florin" unicode="&#x192;" horiz-adv-x="358" 
d="M212 548v-48h125v-83h-125v-444q0 -179 -165 -179h-69v81h61q78 0 78 96v446h-99v83h99v46q0 179 165 179h68v-81h-60q-78 0 -78 -96z" />
    <glyph glyph-name="Scommaaccent" unicode="&#x218;" horiz-adv-x="692" 
d="M340 738q267 0 283 -236h-97q-9 75 -51.5 113t-132.5 38q-92 0 -132.5 -35.5t-40.5 -87.5q0 -40 24 -64t81 -37l165 -39q92 -21 143.5 -66.5t51.5 -129.5q0 -100 -73 -153.5t-202 -53.5q-142 0 -215 63.5t-84 172.5h95q32 -152 206 -152q73 0 124.5 28t51.5 90
q0 48 -32 72.5t-94 38.5l-168 41q-171 40 -171 186q0 95 66.5 153t201.5 58zM344 -69h92l-91 -175h-92z" />
    <glyph glyph-name="scommaaccent" unicode="&#x219;" horiz-adv-x="533" 
d="M274 -13q-207 0 -226 167h89q18 -89 139 -89q57 0 88.5 18t31.5 51q0 52 -82 65l-113 18q-63 10 -100.5 44t-37.5 93q0 70 53 114.5t150 44.5q95 0 147.5 -45t61.5 -122h-89q-15 87 -122 87q-51 0 -81.5 -19t-30.5 -56q0 -50 73 -61l118 -17q143 -21 143 -143
q0 -78 -59 -114t-153 -36zM263 -69h92l-91 -175h-92z" />
    <glyph glyph-name="uni021A" unicode="&#x21a;" horiz-adv-x="627" 
d="M16 725h598v-86h-256v-639h-96v639h-246v86zM313 -69h92l-91 -175h-92z" />
    <glyph glyph-name="uni021B" unicode="&#x21b;" horiz-adv-x="407" 
d="M251 500h135v-82h-135v-418h-94v418h-136v82h136v129h94v-129zM114 -244l91 175h92l-91 -175h-92z" />
    <glyph glyph-name="circumflex" unicode="&#x2c6;" horiz-adv-x="384" 
d="M341 580h-87l-62 109l-62 -109h-87l109 175h80z" />
    <glyph glyph-name="caron" unicode="&#x2c7;" horiz-adv-x="348" 
d="M240 755h87l-110 -175h-80l-109 175h87l62 -109z" />
    <glyph glyph-name="breve" unicode="&#x2d8;" horiz-adv-x="391" 
d="M195 568q-52 0 -91.5 28.5t-53.5 72.5l60 29q29 -61 85 -61q30 0 52.5 17t32.5 44l61 -29q-15 -44 -54.5 -72.5t-91.5 -28.5z" />
    <glyph glyph-name="dotaccent" unicode="&#x2d9;" horiz-adv-x="172" 
d="M31 647q0 23 16 39t39 16t39 -16t16 -39t-16 -39t-39 -16t-39 16t-16 39z" />
    <glyph glyph-name="ring" unicode="&#x2da;" horiz-adv-x="221" 
d="M26 684q0 35 24.5 59.5t59.5 24.5q34 0 59 -25t25 -59q0 -35 -24.5 -59.5t-59.5 -24.5t-59.5 24.5t-24.5 59.5zM67 684q0 -18 13 -31t30 -13q18 0 30.5 13t12.5 31t-12.5 30.5t-30.5 12.5q-17 0 -30 -12.5t-13 -30.5z" />
    <glyph glyph-name="ogonek" unicode="&#x2db;" horiz-adv-x="238" 
d="M166 -189q-74 0 -102 30q-22 21 -19 54t31 68l29 37h75l-51 -63q-24 -31 -5 -52q10 -12 45 -12h29v-62h-32z" />
    <glyph glyph-name="tilde" unicode="&#x2dc;" horiz-adv-x="452" 
d="M61 567l-34 50q43 71 117 71q36 0 80 -24t69 -24q52 0 89 47l43 -47q-16 -28 -47 -49t-75 -21q-43 0 -89 21.5t-66 21.5q-48 0 -87 -46z" />
    <glyph glyph-name="hungarumlaut" unicode="&#x2dd;" horiz-adv-x="430" 
d="M30 579l91 175h92l-91 -175h-92zM217 579l91 175h92l-91 -175h-92z" />
    <glyph glyph-name="gravecomb" unicode="&#x300;" 
d="M-155 745l90 -175h-84l-105 175h99z" />
    <glyph glyph-name="acutecomb" unicode="&#x301;" 
d="M-118 745h99l-105 -175h-84z" />
    <glyph glyph-name="uni0302" unicode="&#x302;" 
d="M-254 570h-87l109 175h80l109 -175h-87l-62 108z" />
    <glyph glyph-name="tildecomb" unicode="&#x303;" 
d="M-391 565l-34 50q45 72 117 72q36 0 80 -24.5t69 -24.5q52 0 89 47l43 -47q-16 -28 -47 -49t-75 -21q-43 0 -89 21.5t-66 21.5q-48 0 -87 -46z" />
    <glyph glyph-name="uni0304" unicode="&#x304;" 
d="M-391 664h351v-78h-351v78z" />
    <glyph glyph-name="uni0306" unicode="&#x306;" 
d="M-196 568q-52 0 -91.5 28.5t-53.5 72.5l60 29q29 -61 85 -61q30 0 52.5 17t32.5 44l61 -29q-15 -44 -54.5 -72.5t-91.5 -28.5z" />
    <glyph glyph-name="uni0307" unicode="&#x307;" 
d="M-142 647q0 23 16 39t39 16t39 -16t16 -39t-16 -39t-39 -16t-39 16t-16 39z" />
    <glyph glyph-name="uni0308" unicode="&#x308;" 
d="M-260 691v-105h-102v105h102zM-39 691v-105h-102v105h102z" />
    <glyph glyph-name="uni030A" unicode="&#x30a;" 
d="M-208 655q0 40 28.5 68.5t68.5 28.5t69 -28.5t29 -68.5t-28.5 -68.5t-69.5 -28.5t-69 28t-28 69zM-160 655q0 -20 14.5 -34.5t34.5 -14.5q21 0 35 14.5t14 34.5q0 21 -14 35t-35 14q-20 0 -34.5 -14t-14.5 -35z" />
    <glyph glyph-name="uni030B" unicode="&#x30b;" 
d="M-361 579l91 175h92l-91 -175h-92zM-174 579l91 175h92l-91 -175h-92z" />
    <glyph glyph-name="uni030C" unicode="&#x30c;" 
d="M-115 742h87l-110 -175h-80l-109 175h87l62 -109z" />
    <glyph glyph-name="uni0326" unicode="&#x326;" 
d="M-142 -69h92l-91 -175h-92z" />
    <glyph glyph-name="uni0327" unicode="&#x327;" 
d="M-215 -246v64h85q27 0 38.5 6.5t11.5 27.5t-11.5 28t-38.5 7h-75v113h63v-49h17q105 0 105 -99q0 -98 -105 -98h-90z" />
    <glyph glyph-name="uni0328" unicode="&#x328;" 
d="M-73 -189q-72 0 -101 30q-21 21 -18.5 54t29.5 68l29 37h75l-50 -63q-24 -31 -5 -52q10 -12 45 -12h29v-62h-33z" />
    <glyph glyph-name="uni0335" unicode="&#x335;" 
 />
    <glyph glyph-name="uni0338" unicode="&#x338;" 
 />
    <glyph glyph-name="pi" unicode="&#x3c0;" horiz-adv-x="654" 
d="M227 511v-511h-95v511h-88v82h555v-82h-86v-334q0 -48 13 -68t46 -20h27v-89h-34q-80 0 -113.5 37.5t-33.5 105.5v368h-191z" />
    <glyph glyph-name="Wgrave" unicode="&#x1e80;" horiz-adv-x="1098" 
d="M604 795h-84l-105 175h99zM973 725h97l-220 -725h-112l-189 581l-189 -581h-112l-220 725h97l177 -596l196 596h103l195 -596z" />
    <glyph glyph-name="wgrave" unicode="&#x1e81;" horiz-adv-x="757" 
d="M433 570h-84l-105 175h99zM650 500h92l-143 -500h-101l-119 359l-120 -359h-101l-143 500h92l102 -385l121 385h97l121 -385z" />
    <glyph glyph-name="Wacute" unicode="&#x1e82;" horiz-adv-x="1098" 
d="M674 970l-105 -175h-84l90 175h99zM973 725h97l-220 -725h-112l-189 581l-189 -581h-112l-220 725h97l177 -596l196 596h103l195 -596z" />
    <glyph glyph-name="wacute" unicode="&#x1e83;" horiz-adv-x="757" 
d="M503 745l-105 -175h-84l90 175h99zM650 500h92l-143 -500h-101l-119 359l-120 -359h-101l-143 500h92l102 -385l121 385h97l121 -385z" />
    <glyph glyph-name="Wdieresis" unicode="&#x1e84;" horiz-adv-x="1098" 
d="M490 916v-105h-102v105h102zM711 916v-105h-102v105h102zM973 725h97l-220 -725h-112l-189 581l-189 -581h-112l-220 725h97l177 -596l196 596h103l195 -596z" />
    <glyph glyph-name="wdieresis" unicode="&#x1e85;" horiz-adv-x="757" 
d="M319 691v-105h-102v105h102zM540 691v-105h-102v105h102zM650 500h92l-143 -500h-101l-119 359l-120 -359h-101l-143 500h92l102 -385l121 385h97l121 -385z" />
    <glyph glyph-name="Ygrave" unicode="&#x1ef2;" horiz-adv-x="623" 
d="M277 970l90 -175h-84l-105 175h99zM263 0v249l-255 476h105l198 -376l199 376h105l-255 -476v-249h-97z" />
    <glyph glyph-name="ygrave" unicode="&#x1ef3;" horiz-adv-x="560" 
d="M335 570h-84l-105 175h99zM446 500h99l-302 -732h-99l103 249l-232 483h108l170 -370z" />
    <glyph glyph-name="endash" unicode="&#x2013;" horiz-adv-x="616" 
d="M70 246h476v83h-476v-83z" />
    <glyph glyph-name="emdash" unicode="&#x2014;" horiz-adv-x="778" 
d="M70 246h638v83h-638v-83z" />
    <glyph glyph-name="quoteleft" unicode="&#x2018;" horiz-adv-x="231" 
d="M91 756l89 -230h-92l-89 230h92z" />
    <glyph glyph-name="quoteright" unicode="&#x2019;" horiz-adv-x="254" 
d="M140 755h92l-89 -230h-92z" />
    <glyph glyph-name="quotesinglbase" unicode="&#x201a;" horiz-adv-x="231" 
d="M114 114h92l-89 -230h-92z" />
    <glyph glyph-name="quotedblleft" unicode="&#x201c;" horiz-adv-x="398" 
d="M91 757l89 -230h-92l-89 230h92zM258 757l89 -230h-92l-89 230h92z" />
    <glyph glyph-name="quotedblright" unicode="&#x201d;" horiz-adv-x="398" 
d="M140 755h92l-89 -230h-92zM307 755h92l-89 -230h-92z" />
    <glyph glyph-name="quotedblbase" unicode="&#x201e;" horiz-adv-x="398" 
d="M114 114h92l-89 -230h-92zM281 114h92l-89 -230h-92z" />
    <glyph glyph-name="dagger" unicode="&#x2020;" horiz-adv-x="524" 
d="M217 -245v628h-150v83h150v331h90v-331h149v-83h-149v-628h-90z" />
    <glyph glyph-name="daggerdbl" unicode="&#x2021;" horiz-adv-x="524" 
d="M217 -245v362h-150v83h150v217h-150v83h150v297h90v-297h149v-83h-149v-217h149v-83h-149v-362h-90z" />
    <glyph glyph-name="bullet" unicode="&#x2022;" horiz-adv-x="431" 
d="M88 367q0 53 37 90t90 37t90.5 -37.5t37.5 -89.5q0 -53 -37.5 -90.5t-90.5 -37.5q-52 0 -89.5 37.5t-37.5 90.5z" />
    <glyph glyph-name="ellipsis" unicode="&#x2026;" horiz-adv-x="619" 
d="M60 0v114h108v-114h-108zM257 0v114h108v-114h-108zM454 0v114h108v-114h-108z" />
    <glyph glyph-name="perthousand" unicode="&#x2030;" horiz-adv-x="965" 
d="M621 758l77 -43l-436 -745l-77 44zM364 584q0 -63 -44 -106.5t-107 -43.5t-106.5 43.5t-43.5 106.5t43.5 107t106.5 44q62 0 106.5 -44.5t44.5 -106.5zM138 584q0 -31 22 -53t53 -22t53 22t22 53t-22 53t-53 22t-53 -22t-22 -53zM923 341q0 -53 -33 -94t-84 -52
q10 -28 10 -54q0 -63 -44 -106.5t-107 -43.5t-106.5 43.5t-43.5 106.5q0 53 33 94.5t83 52.5q-9 25 -9 53q0 63 43.5 107t106.5 44q62 0 106.5 -44.5t44.5 -106.5zM772 265q31 0 52.5 22t21.5 54q0 31 -21.5 53t-52.5 22t-53 -22t-22 -53q0 -32 22 -54t53 -22zM665 66
q31 0 53 22t22 53t-22 53t-53 22t-53 -22t-22 -53t22 -53t53 -22z" />
    <glyph glyph-name="guilsinglleft" unicode="&#x2039;" horiz-adv-x="337" 
d="M196 76l-131 173l131 173h68l-115 -173l115 -173h-68z" />
    <glyph glyph-name="guilsinglright" unicode="&#x203a;" horiz-adv-x="337" 
d="M141 76h-68l115 173l-115 173h68l131 -173z" />
    <glyph glyph-name="fraction" unicode="&#x2044;" horiz-adv-x="622" 
d="M56 0l474 725h60l-474 -725h-60z" />
    <glyph glyph-name="uni2074" unicode="&#x2074;" horiz-adv-x="339" 
d="M303 111v-42h-43v-69h-54v69h-170v47l168 217h56v-222h43zM91 111h115v152z" />
    <glyph glyph-name="Euro" unicode="&#x20ac;" horiz-adv-x="741" 
d="M415 72q167 0 186 146h97q-14 -108 -87 -169.5t-196 -61.5q-126 0 -201 71.5t-90 196.5h-78l6 68h69v70h-75l6 68h72q12 129 87.5 203t204.5 74q124 0 197 -63.5t87 -175.5h-96q-20 154 -188 154q-173 0 -195 -192h268l-12 -68h-259v-69v-1h234l-11 -68h-219
q25 -183 193 -183z" />
    <glyph glyph-name="trademark" unicode="&#x2122;" horiz-adv-x="733" 
d="M172 395v280h-107v50h273v-50h-112v-280h-54zM370 395v330h50l96 -148l96 148h50v-330h-53v230l-75 -114h-38l-73 114v-230h-53z" />
    <glyph glyph-name="uni2126" unicode="&#x2126;" horiz-adv-x="794" 
d="M68 0v76h197l1 57q-81 35 -135 97.5t-54 155.5v51q0 40 6.5 77t27.5 79t54.5 73t93 51.5t137.5 20.5t137 -20.5t92.5 -51t54.5 -73t27.5 -79.5t6.5 -77v-51q0 -92 -54 -154.5t-134 -98.5v-57h198v-76h-277v163q170 60 170 229v35q0 46 -10.5 85t-34 73.5t-69 54.5
t-107.5 20t-107.5 -20t-69 -54.5t-34 -73.5t-10.5 -85v-35q0 -170 169 -229v-163h-276z" />
    <glyph glyph-name="partialdiff" unicode="&#x2202;" horiz-adv-x="608" 
d="M169 742q179 -36 275.5 -159t96.5 -297v-61q0 -42 -12.5 -82t-39 -76t-75.5 -58t-115 -22q-64 0 -113 21.5t-75.5 56.5t-39.5 74.5t-13 81.5v55q0 42 12.5 82t39 75.5t73.5 57.5t109 22q87 0 131 -53q-36 86 -110.5 138t-178.5 62zM300 68q72 0 108.5 44.5t36.5 116.5
l-1 51q0 68 -37 110t-107 42q-73 0 -110 -44.5t-37 -116.5v-42q0 -72 37 -116.5t110 -44.5z" />
    <glyph glyph-name="uni2206" unicode="&#x2206;" horiz-adv-x="736" 
d="M312 725h111l293 -725h-696zM152 91h431l-216 511z" />
    <glyph glyph-name="product" unicode="&#x220f;" horiz-adv-x="828" 
d="M768 689v-94h-122v-841h-95v841h-267v-841h-95v841h-129v94h708z" />
    <glyph glyph-name="summation" unicode="&#x2211;" horiz-adv-x="739" 
d="M679 690v-94h-476l344 -349v-52l-344 -347h476v-94h-619v94l375 374l-375 374v94h619z" />
    <glyph glyph-name="minus" unicode="&#x2212;" horiz-adv-x="534" 
d="M55 293v84h438v-84h-438z" />
    <glyph glyph-name="radical" unicode="&#x221a;" horiz-adv-x="813" 
d="M743 725l-310 -971h-76l-122 500h-180v82h257l91 -379l243 768h97z" />
    <glyph glyph-name="infinity" unicode="&#x221e;" horiz-adv-x="690" 
d="M185 154q-62 0 -100.5 39t-38.5 101q0 63 39 103.5t100 40.5q83 0 162 -87q80 87 162 87q61 0 99.5 -40.5t38.5 -103.5q0 -62 -38 -101t-100 -39q-79 0 -162 85q-83 -85 -162 -85zM196 226q49 0 106 67q-28 36 -52.5 55t-54.5 19q-33 0 -54 -18.5t-21 -53.5t21 -52
t55 -17zM498 226q34 0 55 17t21 52t-21 53.5t-54 18.5q-51 0 -107 -74q55 -67 106 -67z" />
    <glyph glyph-name="integral" unicode="&#x222b;" horiz-adv-x="378" 
d="M24 -247v81h46q71 0 71 105v609q0 102 41 146t122 44h49v-81h-45q-71 0 -71 -104v-610q0 -101 -41 -145.5t-122 -44.5h-50z" />
    <glyph glyph-name="approxequal" unicode="&#x2248;" horiz-adv-x="673" 
d="M465 374q-59 0 -142.5 39t-128.5 39q-65 0 -66 -77h-83q3 83 44 124t104 41q44 0 91.5 -20t88 -40.5t69.5 -20.5q76 0 82 83h86q0 -73 -38.5 -120.5t-106.5 -47.5zM471 160q-59 0 -142.5 39t-128.5 39q-65 0 -66 -77h-83q3 83 44 124t104 41q44 0 91.5 -20t88 -40.5
t69.5 -20.5q76 0 82 83h86q0 -73 -38.5 -120.5t-106.5 -47.5z" />
    <glyph glyph-name="notequal" unicode="&#x2260;" horiz-adv-x="544" 
d="M493 401h-142l-59 -130h201v-83h-239l-44 -96h-96l44 96h-103v83h141l59 130h-200v83h238l45 98h96l-45 -98h104v-83z" />
    <glyph glyph-name="lessequal" unicode="&#x2264;" horiz-adv-x="776" 
d="M710 780v-96l-550 -222l550 -234v-95l-645 274v107zM65 13v86h645v-86h-645z" />
    <glyph glyph-name="greaterequal" unicode="&#x2265;" horiz-adv-x="776" 
d="M66 780l645 -266v-107l-645 -274v95l550 234l-550 222v96zM66 13v86h645v-86h-645z" />
    <glyph glyph-name="lozenge" unicode="&#x25ca;" horiz-adv-x="673" 
d="M370 0l235 351l-233 348h-72l-232 -348l234 -351h68zM336 84l-185 267l185 267l186 -267z" />
    <glyph glyph-name="i.loclTRK" horiz-adv-x="236" 
d="M63 647q0 23 16 39t39 16t39 -16t16 -39t-16 -39t-39 -16t-39 16t-16 39z" />
    <glyph glyph-name="nine.ss0" horiz-adv-x="678" 
d="M339 738q130 0 203 -62t73 -171q0 -47 -16 -92.5t-31.5 -70t-46.5 -66.5l-199 -276h-112l212 282q-45 -15 -97 -15q-111 0 -183.5 58.5t-72.5 172.5q0 115 71 177.5t199 62.5zM518 484v28q0 64 -47.5 102.5t-129.5 38.5q-81 0 -128.5 -38.5t-47.5 -102.5v-28
q0 -63 47.5 -101.5t128.5 -38.5q82 0 129.5 39t47.5 101z" />
    <glyph glyph-name="one.ss01" horiz-adv-x="525" 
d="M106 592l218 133h71v-725h-96v605l-193 -115v102z" />
    <glyph glyph-name="six.ss01" horiz-adv-x="686" 
d="M360 458q111 0 183.5 -58.5t72.5 -172.5q0 -115 -71 -177.5t-199 -62.5q-130 0 -203 62t-73 171q0 47 16 92.5t31.5 70t46.5 66.5l199 276h112l-212 -282q45 15 97 15zM520 213v28q0 63 -47.5 101.5t-128.5 38.5q-82 0 -129.5 -39t-47.5 -101v-28q0 -64 47.5 -102.5
t129.5 -38.5q81 0 128.5 38.5t47.5 102.5z" />
    <glyph glyph-name="one.ss02" horiz-adv-x="613" 
d="M76 0v87h212v518l-192 -115v102l218 133h71v-638h211v-87h-520z" />
    </font>
</defs>
</svg>
